<?xml version="1.0" standalone="no"?>
<!DOCTYPE svg PUBLIC "-//W3C//DTD SVG 1.1//EN" "http://www.w3.org/Graphics/SVG/1.1/DTD/svg11.dtd" >
<svg xmlns="http://www.w3.org/2000/svg">
<metadata></metadata>
<defs>
<font id="alien_linessymbol" horiz-adv-x="938" >
<font-face units-per-em="2048" ascent="1638" descent="-410" />
<missing-glyph horiz-adv-x="1293" />
<glyph horiz-adv-x="0" />
<glyph horiz-adv-x="682" />
<glyph unicode=" "  horiz-adv-x="1293" />
<glyph unicode="&#x09;" horiz-adv-x="1293" />
<glyph unicode="&#xa0;" horiz-adv-x="1293" />
<glyph unicode="!" horiz-adv-x="1098" d="M183 609q0 179 126 305q102 102 245 122v411h121v-411q143 -20 244 -122q127 -127 127 -305h-121q0 129 -91 220q-67 66 -159 85v-67q63 -17 113 -64q71 -71 71 -174q0 -102 -71 -173q-74 -72 -174 -72q-101 0 -173 72q-72 70 -72 173t72 174q11 11 23 20q39 30 90 44v67 q-94 -19 -159 -85q-92 -91 -92 -220h1h-1q0 -129 92 -219q90 -92 219 -92v1v-121q-179 0 -305 126t-126 305zM490 609q0 -51 36 -88q37 -36 88 -36q52 0 88 36q37 37 37 88q0 52 -37 88q-36 37 -88 37q-42 0 -76 -26q-4 -3 -12 -11q-36 -36 -36 -88z" />
<glyph unicode="&#x22;" horiz-adv-x="700" d="M156 1124v328v61h60h136v-121h-76v-268h-120zM471 1392v121h136h60v-61v-328h-120v268h-76z" />
<glyph unicode="#" horiz-adv-x="1277" d="M202 581l30 105h268l19 67h121l-34 -119l-15 -53h-61h-328zM263 157l81 287l16 53h60h136l-30 -106h-76l-67 -234h-120zM299 923l31 105h328h60l-15 -53l-34 -119h-121l19 67h-268zM538 1098l16 53l81 287h121l-67 -234h76l-30 -106h-136h-61zM645 391l30 106h136h60 l-15 -53l-82 -287h-120l67 234h-76zM701 579l15 53l34 119h121l-19 -66h267l-30 -106h-328h-60zM779 855l34 119l15 53h61h328l-30 -106h-268l-19 -66h-121zM853 1098l31 106h76l66 234h121l-82 -287l-15 -53h-60h-137z" />
<glyph unicode="$" horiz-adv-x="1355" d="M249 567q-1 104 57 195l102 -65q-82 -128 -1 -255q12 -20 27 -36l255 402q-5 4 -15 14q-27 26 -49 62q-54 85 -55 189t56 195q23 35 52 63q28 28 62 49q157 99 329 27l38 59l102 -65l-38 -59q10 -10 15 -14q32 -35 49 -62q53 -86 54.5 -190t-55.5 -194l-102 65 q80 126 1 255q-13 20 -28 36l-255 -402q19 -19 15 -14q30 -31 49 -62q53 -86 54.5 -190t-55.5 -194q-23 -35 -51 -63q-27 -27 -62 -49q-158 -100 -330 -27l-37 -59l-102 64l37 60q-10 10 -15 14q-27 26 -49 62q-54 85 -55 189zM537 341q104 -33 199 25q27 18 42 33 q18 18 33 42q81 127 1 255q-13 20 -28 36zM728 948q12 -20 27 -36l248 391q-106 32 -200 -25q-19 -13 -41 -33q-17 -17 -34 -42q-82 -128 0 -255z" />
<glyph unicode="%" horiz-adv-x="1471" d="M172 1209q0 119 84 203t203 84q120 0 203 -84q84 -84 84 -203q0 -71 -31 -131q9 -12 20 -28q37 -54 44 -61l3 -4q38 108 79 223t84 237l114 -40q-51 -143 -99 -277.5t-93 -260.5q45 -63 109 -149q63 34 137 34q120 0 204 -84t84 -203t-84 -203t-204 -84v-1v1 q-119 0 -203 84t-84 203q0 97 59 174q-33 42 -67 91q-53 -145 -102 -278.5t-94 -255.5l-113 42q51 135 106.5 287.5t116.5 321.5q-34 48 -51 71l-44 62l-1 2q-79 -61 -177 -61q-119 0 -203 84t-84 204zM292 1209q0 -69 49 -118t118 -49q70 0 118 49q49 49 49 118 q0 68 -49 117q-48 49 -118 49q-69 0 -118 -49t-49 -117zM947 465q0 -71 49 -118q49 -49 117 -49q69 0 118 49q49 47 49 118q0 69 -49 118t-118 49q-68 0 -117 -49t-49 -118z" />
<glyph unicode="&#x26;" horiz-adv-x="1355" d="M350 608q0 179 137 305q60 53 134 85q-5 3 -13 11q-87 78 -87 194q0 114 87 193q88 80 212 80v1v-1q125 0 212 -80q88 -80 88 -193h-121q0 66 -52 115q-53 48 -127 48q-75 0 -126 -48q-53 -50 -53 -115h1h-1q0 -67 53 -116q51 -48 126 -48q195 0 333 -126 q138 -127 138 -305t-138 -304t-333 -126v110q144 0 248 94q102 93 102 226t-102 227q-104 94 -248 94v-1v1q-144 0 -247 -94q-103 -95 -103 -227h-120z" />
<glyph unicode="'" horiz-adv-x="443" d="M135 1012v371h120v-125h167v-121h-167v-125h-120z" />
<glyph unicode="(" horiz-adv-x="861" d="M154 844q0 182 91 336q25 43 64 91q91 109 224 174t287 65v-120q-126 0 -234.5 -53t-183.5 -143q-32 -38 -53 -75q-74 -126 -74 -275q0 -126 53 -235t143 -184q37 -31 74 -52q129 -75 275 -75v1v-121q-181 0 -336 91q-54 31 -91 64q-110 91 -174.5 224t-64.5 287z M414 844q0 168 119 287q117 119 287 119v-121q-120 0 -201 -83q-84 -84 -84 -202t84 -202q83 -83 201 -83v-121q-168 0 -287 119t-119 287z" />
<glyph unicode=")" horiz-adv-x="861" d="M154 178v121v-1q145 0 275 75q34 19 75 52q89 75 142.5 184t53.5 235h-1h1q0 150 -75 275q-20 34 -52 75q-76 90 -184.5 143t-234.5 53v120q153 0 286 -65t225 -174q35 -42 64 -91q91 -154 91 -336q0 -154 -65 -287t-174 -224q-42 -36 -91 -64q-156 -91 -336 -91z M154 438v121q117 0 202 83q84 85 84 202h-1h1q0 116 -84 202q-83 83 -202 83v121q169 0 287 -119q119 -119 119 -287t-119 -287t-287 -119z" />
<glyph unicode="*" horiz-adv-x="1205" d="M352 1113l60 105l151 -86l2 2l3 3q12 12 24 21q43 33 96 46l2 175l120 -1l-1 -174q65 -16 114 -62l147 93l65 -102l-147 -93q14 -41 14 -83q0 -30 -8 -62l154 -82l-57 -106l-153 82q-3 -4 -10 -11q-48 -48 -113 -66l4 -174l-121 -2l-3 173q-73 14 -127 69l-150 -88 l-62 104l149 88q-11 37 -11 75t10 70zM614 957h1h-1q0 -54 40 -94q39 -39 94 -39t94 39q39 37 39 94q0 56 -39 95t-94 39q-47 0 -82 -28q-3 -3 -6 -5.5t-6 -5.5q-40 -42 -40 -95z" />
<glyph unicode="+" horiz-adv-x="1190" d="M107 630v121h216q17 87 83 154q63 63 153 82l-1 216l120 1l1 -216q88 -18 156 -83q62 -65 82 -152l216 2l1 -120l-216 -2q-19 -93 -83 -157q-65 -63 -150 -82l3 -216l-121 -2l-3 217q-92 16 -158 83q-13 13 -25 28q-44 57 -58 126h-216zM438 690q0 -64 38 -111 q10 -12 16 -17q52 -54 129 -54q75 0 128 54q54 52 54 128t-54 129q-54 54 -128 54v-1v1q-75 0 -129 -54q-54 -53 -54 -129z" />
<glyph unicode="," horiz-adv-x="796" d="M111 319q0 110 77 186q77 77 185 77q109 0 186 -77t77 -186q0 -108 -77 -185q-54 -54 -125 -70v-229h-121v229q-73 16 -125 70q-77 75 -77 185zM231 319h1h-1q0 -58 42 -100t100 -42v1v-1q59 0 100 42q42 42 42 100q0 59 -42 101q-41 41 -100 41q-58 0 -100 -41 q-42 -42 -42 -101z" />
<glyph unicode="-" d="M223 634v121h671v-121h-671z" />
<glyph unicode="." horiz-adv-x="659" d="M223 380q0 84 59.5 143t143.5 59q83 0 142.5 -59t59.5 -143t-59.5 -143t-142.5 -59q-84 0 -143.5 59t-59.5 143z" />
<glyph unicode="/" horiz-adv-x="911" d="M232 231l521 1134l115 -53l-521 -1134z" />
<glyph unicode="0" horiz-adv-x="1554" d="M154 844q0 181 78 336q25 50 55 91q78 109 192.5 174t246.5 65v-120q-108 0 -201.5 -53.5t-157.5 -142.5q-30 -43 -45 -75q-65 -129 -65 -275h1h-1q0 -255 169 -419q34 -33 64 -52q107 -75 236 -75v-121v1q-156 0 -289 91q-44 29 -78 64q-94 91 -149.5 224t-55.5 287z M377 844q0 168 102 287q104 119 247 119v-121q-102 0 -173 -83q-72 -84 -72 -202q0 -119 72 -202q71 -84 173 -84v1v-121q-145 0 -247 119q-102 118 -102 287zM876 178v121v-1q131 0 250 75q34 22 67 52q178 164 178 419q0 148 -68 275q-19 37 -47 75q-149 196 -380 196v120 q139 0 259.5 -65t204.5 -174q30 -41 58 -91q82 -155 82 -336q0 -154 -59 -287t-158 -224q-37 -36 -82 -64q-142 -91 -305 -91zM876 438v121q106 0 183 83q76 84 76 202q0 117 -76 202q-76 83 -183 83v121q153 0 260 -119q108 -118 108 -287q0 -170 -108 -287 q-108 -119 -260 -119z" />
<glyph unicode="1" horiz-adv-x="933" d="M164 1233q140 103 331 266l99 85v-131q0 -158 0.5 -301t0.5 -269q111 -20 190 -98q104 -106 104 -252q0 -147 -104 -251q-103 -104 -251 -104v-1v1q-148 0 -252 104q-103 103 -103 251h-1h1q0 147 103 252q81 80 192 98q1 201 0 441q-123 -103 -237 -188zM299 533 q0 -97 69 -166q70 -69 166 -69q95 0 166 69q69 70 69 166q0 95 -69 166q-69 69 -166 69t-166 -69t-69 -166z" />
<glyph unicode="2" horiz-adv-x="1227" d="M150 178v120h427v40.5v49.5v156.5v122.5v64l60 -3h3q28 0 48 4q24 3 62 17q61 22 112 72q94 94 94 225h-1h1q0 132 -94 226q-95 93 -225 93q-131 0 -225 -93q-94 -94 -94 -226h-120q0 183 128 311q130 129 311 129q180 0 311 -129q128 -128 128 -311q0 -182 -128 -310 q-101 -101 -241 -123q6 2 -10 -2q0 -94 0.5 -149.5t0.5 -73.5v-47.5v-42.5h199h272v-120h-272h-201h-59h-487z" />
<glyph unicode="3" horiz-adv-x="861" d="M185 178v121v-1q212 0 363 151q127 127 148 304h-24h-22h-83h-70q-23 -105 -105 -174l-33 39l-45 53q62 53 69 132q6 81 -45 143l28 23l64 54h1q54 -66 69 -150h68.5h81.5h22.5h23.5q-21 175 -148 303q-151 151 -363 151v121v-1q262 0 449 -185q185 -185 185 -450h1h-1 q0 -265 -185 -448q-186 -186 -449 -186z" />
<glyph unicode="4" horiz-adv-x="1062" d="M171 778v1q16 221 172 375q31 31 55 49q158 124 362 124v-121q-161 0 -288 -99q-25 -20 -44 -39q-97 -97 -127 -229q-3 -24 -6 -42h220q16 67 67 118q72 74 178 74q105 0 178 -74q74 -74 74 -178q0 -105 -74 -179q-50 -50 -118 -66v-18v-59v-131.5v-105.5h-120v105.5 v131.5v59v18q-69 16 -118 66q-51 50 -67 118h-285h-44l-13 42q-7 19 -2 60zM629 737q0 -55 38 -93q39 -39 93 -39t93 39t39 93h-1h1q0 54 -39 92q-39 39 -93 39t-93 -39q-38 -37 -38 -92z" />
<glyph unicode="5" horiz-adv-x="1078" d="M166 608h121q0 -128 91 -219t219 -91t219 91t91 219h-1h1q0 128 -91 219q-65 64 -152 84q-39 7 -67 7h-60v60v11q0 51 -1 76v36v36v131.5v119.5h-193v-446h-121v507v60h60h254h61h408v-121h-348v-119.5v-131.5v-36v-36v-31q18 -2 34 -6h2l2 -1q6 -2 12.5 -3.5t12.5 -2.5 l4 -2h1h1l2 -1q99 -32 173 -105q126 -126 126 -305q0 -180 -126 -304q-126 -126 -304 -126v-1v1q-179 0 -305 126q-126 124 -126 304z" />
<glyph unicode="6" horiz-adv-x="1279" d="M150 847h1q0 279 196 474q90 90 212 143t261 53v-120q-226 0 -388 -161q-161 -163 -161 -389t161 -388q2 -3 4.5 -5t5.5 -4q-21 60 -21 127q0 165 117 282t282 117t282 -117q117 -116 117 -282q0 -167 -117 -282q-117 -117 -282 -117q-139 0 -261 52.5t-212 143.5 q-196 194 -196 473h-1zM542 577q0 -115 82 -197t196 -82v1v-1q113 0 197 82q82 83 82 197q0 113 -82 197q-83 81 -197 81q-115 0 -196 -81q-82 -82 -82 -197z" />
<glyph unicode="7" horiz-adv-x="1356" d="M162 1058v299v60h61h869h200l-166 -111h-1q-34 -22 -67 -48q-36 -26 -65 -54q-137 -124 -242 -306q94 -26 164 -95q107 -107 107 -259h1h-121q0 100 -72 174q-74 72 -174 72q-101 0 -173 -72q-73 -73 -73 -174h1h-1q0 -101 73 -174q72 -72 173 -72v1v-121 q-152 0 -259 107t-107 259t107 259q93 93 222 105q124 232 293 386l3 2h-632v-238h-121z" />
<glyph unicode="8" horiz-adv-x="1195" d="M153 1273q45 124 163 181q119 56 244 13q123 -44 181 -163q56 -122 13 -243q-34 -94 -111 -150l24 -52q115 33 228 -13l1 -1q133 -57 188 -189t1 -267h-1v-1q-15 -36 -38 -69q-23 -32 -51 -57q-73 -66 -172 -84.5t-195 21.5h-1q-38 16 -69 39q-32 22 -57 51 q-66 72 -84.5 171.5t21.5 195.5v1q18 41 38 69q20 29 52 57q10 10 30 24l-24 52l-6 -2t-6 -1q-36 -8 -69 -8q-89 0 -167.5 47.5t-118.5 134.5q-58 119 -14 243zM267 1232q-28 -76 8 -150q53 -113 178 -113q19 0 44 5q18 4 42 14q73 36 101 113q27 76 -8 151q-37 73 -113 101 q-76 27 -151 -8q-74 -35 -101 -113zM549 610q-54 -134 42 -241q13 -17 37 -33q23 -18 45 -25l1 -1q133 -55 240 42q19 16 34 37q14 20 25 46q35 87 0 176q-38 87 -124 123l-1 1q-133 53 -240 -42q-23 -21 -33 -37q-17 -23 -26 -45v-1z" />
<glyph unicode="9" horiz-adv-x="1509" d="M203 795h121q0 -58 12 -112q10 -47 36 -103q60 -126 180 -204t268 -78q133 0 251 68q40 24 76 55q36 32 64 68q106 132 106 306q0 203 -144 349q15 -48 15 -102q0 -153 -109 -260q-16 -17 -42 -36q-97 -71 -217 -71q-102 0 -185.5 50t-131.5 131q-50 85 -50 186h-1 q0 9 0 3t1 0v1q0 108 57.5 195t149.5 132q36 18 75 27q36 8 82 10h1q5 0 -0.5 0t2.5 0v3v-1q256 0 437 -181q180 -180 180 -436h1h-1q0 -216 -131 -380q-34 -44 -80 -85q-47 -40 -94 -68q-144 -84 -312 -84q-184 0 -333 97.5t-224 253.5q-30 61 -44 127q-16 65 -16 139z M573 1041v1q0 -66 34 -124q71 -123 213 -123q80 0 146 48q13 9 28 24q73 73 73 175q0 67 -34 125q-9 15 -27 38q-10 12 -34 32q-65 52 -151 52h-0.5h-0.5h-1h-1q-30 0 -55 -7q-27 -6 -51 -18q-138 -67 -139 -220v-1v-1v4.5t0 -4.5v-1zM573 1042zM816 1289h4q-6 0 -4 0z M820 1289h1h-1z" />
<glyph unicode=":" horiz-adv-x="689" d="M236 388q0 87 62 149q36 37 88 53v99q-52 16 -88 53q-62 62 -62 149t62 149q61 61 149 61v1v-1q88 0 149 -61t61 -149t-61 -149q-39 -37 -89 -53v-99q51 -15 89 -53q61 -61 61 -149t-61 -149t-149 -61t-149 61q-62 62 -62 149zM357 388q0 -37 26 -63q27 -27 64 -27v1v-1 q37 0 63 27q27 25 27 63h-1h1q0 37 -27 64q-26 26 -63 26t-64 -26q-26 -28 -26 -64zM357 891q0 -37 26 -63q27 -27 64 -27t63 27q27 25 27 63h-1h1q0 37 -27 63q-26 27 -63 27t-64 -27q-26 -26 -26 -63z" />
<glyph unicode=";" horiz-adv-x="710" d="M256 443q0 87 62 149q38 38 88 53v99q-49 14 -89 53q-61 62 -61 149t62 149q61 61 149 61v1v-1q88 0 148 -61q62 -61 62 -149q0 -89 -62 -149q-39 -39 -88 -53v-99q49 -15 88 -53q62 -61 62 -149v-265h-121v75q-42 -20 -89 -20q-88 0 -150 61q-61 62 -61 149zM377 443 q0 -37 26 -63q27 -27 64 -27q36 0 63 27q24 24 26 57v6q0 36 -26 64q-26 26 -63 26q-38 0 -64 -26q-26 -28 -26 -64zM377 946q0 -37 26 -64q26 -26 64 -26q37 0 63 26q26 27 26 64t-26 63q-26 27 -63 27q-39 0 -64 -27q-26 -26 -26 -63z" />
<glyph unicode="&#x3c;" horiz-adv-x="1181" d="M207 685l72 54l225 168l-2 2q33 32 69 49l466 350l72 -96l-322 -242q29 -12 51 -25q25 -17 48 -39v-1q57 -57 72 -134t-10 -148q-11 -28 -26 -53q-17 -26 -39 -48v-1q-34 -32 -75 -52l317 -187l-62 -104l-778 461zM424 697l156 -93l5 5q12 -12 27 -21q8 -6 29 -15 q90 -33 158 34v1q11 11 21 26q9 15 15 30q31 88 -35 157q-11 10 -27 22q-17 9 -29 14q-57 20 -111 -3z" />
<glyph unicode="=" horiz-adv-x="1349" d="M276 613v175h1009v-175h-1009zM276 1076v176h1009v-176h-1009z" />
<glyph unicode="&#x3e;" horiz-adv-x="1181" d="M207 282l317 187q-45 21 -75 52v1q-24 22 -39 48q-14 20 -26 53q-26 71 -10.5 148t72.5 134v1q22 22 48 39q21 13 51 25l-322 242l72 96l466 -350q35 -17 69 -49l-2 -2l225 -168l72 -54l-78 -46l-779 -461zM497 664q6 -15 15 -30q10 -15 21 -26l1 -1q66 -67 157 -34 q20 9 29 15q15 9 27 21l5 -5l156 93l-209 157q-55 23 -111 3q-13 -5 -29 -14q-17 -12 -27 -22q-67 -69 -35 -157z" />
<glyph unicode="?" horiz-adv-x="1300" d="M280 1075h1q0 200 140 339q138 140 339 140v1v-1q199 0 339 -140t140 -339q0 -198 -140 -339q-90 -90 -214 -123q-24 -9 -62 -13h-2h-1v-422h-121v478v58l59 2l2 1h6.5h9.5q1 0 17 2q10 0 26 2q113 19 194 100q106 107 106 254h-1h1q0 148 -106 254q-105 105 -253 105 q-149 0 -254 -105t-105 -254h-121zM497 1075q0 107 77 186q78 77 186 77t185 -77t77 -186t-77 -186q-76 -76 -185 -76v-1v1q-109 0 -186 76q-77 78 -77 186zM618 1075q0 -58 42 -100q40 -42 100 -42q58 0 100 42t42 100h-1h1q0 59 -42 100q-42 42 -100 42q-60 0 -100 -42 q-42 -41 -42 -100z" />
<glyph unicode="@" horiz-adv-x="1443" d="M145 785q0 165 84 310q32 55 68 95q36 41 84 79q166 131 379 131q201 0 363 -119q77 -56 133 -133q49 -66 77 -141q42 -108 42 -222h-121q0 95 -33 178q-24 59 -62 114q-46 61 -107 107q-132 96 -292 96q-171 0 -305 -106q-40 -31 -68 -64q-29 -33 -54 -76 q-68 -116 -68 -249h1h-1q0 -204 145 -349q80 -81 185 -117q57 -17 104 -25v215q-81 18 -139 77q-82 80 -82 199h-1h1q0 118 82 200q83 82 200 82t199 -82q83 -83 83 -200v-2.5v-2.5q3 -83 5 -127q1 -83 0 -159l-120 3v30v31q-49 -36 -107 -49v-279v-52l-52 -7q-14 -2 -23 -2 q-17 0 -24 1q-21 1 -44 6q-205 26 -352 174q-180 180 -180 435zM598 785q0 -68 48 -114q48 -48 114 -48v1v-1q66 0 114 48q44 44 47 105q-1 9 -1.5 18.5t-0.5 19.5q-9 48 -45 85q-48 48 -114 48v-1v1q-66 0 -114 -48q-48 -47 -48 -114z" />
<glyph unicode="A" horiz-adv-x="1585" d="M79 540q0 172 122 296q100 98 236 118v551v80l77 -22q481 -141 732 -495q249 -355 264 -910l-121 -3q-14 519 -242 843q-207 291 -589 424v-468q104 -15 192 -80q36 -27 60 -56q82 -94 101 -217h180v-121h-180q-20 -138 -118 -236q-122 -122 -296 -122v-1v1 q-173 0 -296 122q-122 123 -122 296zM199 540h1h-1q0 -122 88 -210t210 -88q123 0 211 88q85 85 87 206q-23 203 -165 269q-36 15 -62 21q-35 9 -75 12q-121 -2 -206 -87q-88 -88 -88 -211z" />
<glyph unicode="B" horiz-adv-x="1346" d="M150 1183q0 128 91 219q90 90 219 90v1v-1q129 0 219 -90q91 -91 91 -219q0 -81 -38 -150q-6 -11 -13 -21q-37 -55 -89 -89q-7 -5 -22 -13l-22 -11q-62 -27 -126 -27q-10 0 -4 0h-1q-36 1 -69 9q-31 8 -63 23q-78 38 -125.5 112t-47.5 167zM178 125v57v688h121v-631 q60 -3 116 -3q561 0 669 283q8 46 8 89q0 255 -297 373l45 112q374 -151 374 -477q0 -59 -12 -124l-1 -5l-2 -4q-133 -367 -789 -367q-84 0 -176 6zM271 1183q0 -120 105 -170q15 -9 39 -15q21 -5 42 -5h1q4 0 -3 0t5 0q40 0 77 16q7 4 14 7l12 8q33 21 55 54q1 1 8 13 q23 41 23 92q0 78 -55 133q-56 56 -134 56q-80 0 -134 -56q-55 -55 -55 -133z" />
<glyph unicode="C" horiz-adv-x="1494" d="M146 822v21q0 120 47 237v1q100 254 351 364q116 51 247 55h22q120 0 237 -46l-30 -75l-14 -37q-100 38 -198 38q-108 0 -216 -46q-205 -90 -287 -298q-39 -99 -39 -198q0 -108 47 -215q88 -205 298 -287q99 -40 198 -40q107 0 215 47q204 90 287 298l58 -23l54 -21 q-50 -128 -142.5 -221t-208.5 -143q-131 -58 -263 -58q-120 0 -242 48l-1 1v-1q-127 50 -220 142.5t-144 209.5q-52 116 -56 247zM355 944v1q12 52 34 97q24 48 53 84q78 100 200 148q81 32 166 32q44 0 89 -8l-23 -119q-33 6 -66 6q-64 1 -124 -23q-90 -36 -147 -110 q-22 -28 -39 -62q-16 -33 -25 -72v-1q-10 -41 -10 -81q0 -93 54 -179q74 -120 215 -153q42 -10 82 -10q109 0 204 72q27 21 43 40q21 23 37 47l101 -65q-23 -37 -49 -64q-26 -29 -59 -54q-127 -97 -273 -97q-55 0 -113 14q-190 43 -290 207q-73 113 -73 240q0 54 13 110z " />
<glyph unicode="D" horiz-adv-x="1352" d="M190 851q0 45 10 97q10 47 30 89q49 110 148 183t224 85q6 0 11 0.5t11 1.5h10h12q189 0 322 -133q134 -134 134 -323q0 -190 -134 -322q-133 -133 -322 -133v-1v1h-12h-10h-4v0q10 -2 -18 2q-44 4 -94 19q-49 16 -86 37q-104 59 -168 164t-64 233zM311 851 q0 -94 47 -171.5t123 -120.5q30 -17 63 -27q35 -12 69 -14q4 -1 14 -1q2 0 1.5 0t1.5 0q6 -1 16 -1q138 0 237 99q98 96 98 236q0 139 -98 237q-99 99 -237 99v-1v1q-3 0 -7.5 -0.5t-8.5 -0.5q-5 0 -9 -0.5t-7 -0.5q-195 -20 -274 -197q-14 -30 -21 -66q-8 -37 -8 -71z M607 177v121q230 0 396 164q164 165 164 396t-164 395t-396 164v121q141 0 264.5 -53.5t216.5 -145.5q92 -93 145.5 -216.5t53.5 -264.5h1h-1q0 -141 -53.5 -265t-145.5 -216q-93 -93 -216.5 -146t-264.5 -53v-1z" />
<glyph unicode="E" horiz-adv-x="1328" d="M191 807q0 120 45.5 236.5t138.5 209.5q184 184 445 184t445 -184l-85 -86q-148 149 -360 149q-210 0 -359 -149q-126 -124 -146 -299h235q18 79 74 135q81 81 196 81t196 -81t81 -196q0 -114 -81 -195t-196 -81v-1v1q-115 0 -196 81q-56 55 -74 135h-235 q20 -174 146 -299q148 -150 359 -150v1q212 0 360 149l85 -86q-92 -93 -208.5 -138.5t-236.5 -45.5q-261 0 -445 184t-184 445zM664 807q0 -64 46 -110t110 -46q63 0 111 46q45 45 45 110q0 64 -45 111q-48 46 -111 46v-1v1q-64 0 -110 -46q-46 -48 -46 -111z" />
<glyph unicode="F" horiz-adv-x="1518" d="M216 178v3v51.5v50.5v49.5v48.5v229v200v60h3q16 167 116 303q25 35 60 70q180 182 436 182q255 0 435 -180t180 -435h-121h1q0 204 -146 349q-144 145 -349 145t-351 -146q-24 -24 -48 -56q-76 -104 -92 -232h215q13 56 48 106q9 12 28 33q83 83 200 83t200 -83 q12 -13 23 -26q59 -77 59 -173q0 -118 -82 -200t-200 -82t-200 82q-59 59 -76 140h-219v-174.5v-194.5v-48.5v-49.5v-50.5v-51.5v-3h-120zM669 810h1h-1q0 -66 48 -114q46 -48 114 -48q67 0 114 48q48 48 48 114h-1h1q0 54 -35 99q-3 5 -13 15q-47 47 -114 47t-115 -48 q-8 -8 -15 -18q-32 -44 -32 -95z" />
<glyph unicode="G" horiz-adv-x="1510" d="M205 793q0 201 119 363q55 77 133 133q64 47 141 77q107 42 222 42v-121q-92 0 -178 -33q-60 -24 -114 -62q-62 -46 -107 -107q-95 -130 -95 -292q0 -172 105 -305q27 -36 64 -68q42 -36 76 -54q115 -68 249 -68q203 0 350 145q39 39 71 90q38 69 59 138v1v2q8 31 11 58 h-215q-18 -80 -76 -139q-82 -82 -200 -82v-1v1q-117 0 -199 82q-83 83 -83 200q0 116 83 199t199 83q117 0 200 -83q58 -58 76 -139h279h57l3 -57v-2v-1q1 -11 1 -21q0 -62 -20 -134q-1 -1 -1 -4q-45 -162 -160 -276q-180 -180 -435 -180v-1v1q-169 0 -310 84q-49 26 -94 68 q-46 38 -80 84q-131 166 -131 379zM659 793q0 -67 47 -114q48 -48 114 -48q67 0 114 48q48 46 48 114q0 66 -48 114q-47 47 -114 47q-66 0 -114 -47q-47 -49 -47 -114z" />
<glyph unicode="H" horiz-adv-x="1561" d="M120 178v1122h121v-502q21 0 46 -0.5t52 -0.5q31 0 61 0.5t58 0.5q18 110 98 189q103 103 248 103q143 0 248 -103q78 -79 98 -189q26 0 55 -0.5t60 -0.5q27 0 52.5 0.5t49.5 0.5v502h120v-1122h-120v499h-53h-49h-55.5t-60.5 1q-20 -111 -97 -188q-104 -102 -248 -102 q-146 0 -248 102q-79 78 -98 188q-34 -1 -63.5 -1h-55.5h-48.5h-49.5v-499h-121zM573 739h1h-1q0 -95 68 -163q67 -67 163 -67q95 0 162 67q68 68 68 163t-68 162q-68 68 -162 68q-95 0 -163 -68q-68 -67 -68 -162z" />
<glyph unicode="I" horiz-adv-x="952" d="M153 768q0 148 105 253q79 79 192 99v343h121v-343q112 -20 192 -99q104 -106 104 -253q0 -148 -104 -253q-80 -80 -192 -99v-238h-121v238q-3 0 -4.5 0.5t-3.5 0.5q-12 2 -32 8q4 -1 -17 5q-12 4 -13 5q-69 27 -122 80q-105 105 -105 253zM274 768q0 -98 69 -167 q49 -50 114 -64q24 -5 53 -6h2q98 1 165 70q70 70 70 167t-70 167q-68 69 -167 69q-98 0 -167 -69t-69 -167z" />
<glyph unicode="J" horiz-adv-x="1071" d="M159 608h121q0 -127 91 -219q91 -91 219 -91v1v-1q128 0 219 91q91 92 91 219h-1h1q0 128 -91 219q-65 64 -152 84q-31 7 -67 7l-60 1v60v10q0 51 -1 76v36v36v132v120h-359v120h359h61h408v-120h-348v-120v-132v-36v-36v-31q17 -2 34 -6h2l2 -1q2 -1 25 -6l1.5 -0.5 t2.5 -0.5q0 -1 1 -1h1l2 -1q99 -32 173 -105q126 -126 126 -305q0 -178 -126 -304t-304 -126q-179 0 -305 126t-126 304z" />
<glyph unicode="K" horiz-adv-x="1367" d="M227 178v14v97v94v217v195v3.5v6.5v1v4v2v2v9.5v8.5v1v258.5v195.5v131.5v68.5l120 1v-68.5t1 -132.5v-90.5v-105.5q22 22 57 44q33 21 75 37q68 23 132 23q114 0 217 -74l388 388l85 -85l-233 -233q25 -30 45 -63q33 -55 57 -118q32 -95 32 -195q0 -47 -7 -95 q-23 -150 -117 -272q42 -39 92.5 -85t107.5 -99l-82 -88q-74 67 -136.5 124.5t-113.5 105.5q-34 30 -63 55.5t-52 46.5q-16 -12 -24 -17q-34 -22 -75 -36q-62 -22 -127 -22q-37 0 -75 7q-104 20 -184 95v-75v-77v-94v-97v-14h-120zM347 808q0 -4 1 -7v-1q3 -72 40 -127 q10 -14 16 -22t19 -21q78 -79 174 -78q46 0 96 17q27 9 51 24t46 37q78 79 78 176q0 45 -17 94q-12 29 -25 51q-14 22 -36 45q-80 79 -176 79q-45 0 -94 -17q-30 -12 -51 -25q-21 -12 -46 -37q-51 -51 -68 -118q0 2 -5 -26q-2 -18 -2 -25v-1v-1h-1v-6v-5v-2v-1v-1v-2z M914 1036q10 -14 14 -21q23 -37 37 -76q23 -68 23 -132q0 -112 -71 -213q15 -14 33 -30.5t39 -34.5q97 131 97 277q0 80 -29 165q-18 50 -45 94q-15 21 -28 40z" />
<glyph unicode="L" horiz-adv-x="1502" d="M210 804q0 150 105 255q81 81 195 100v315h121v-315q112 -18 195 -100q105 -105 105 -255t-105 -255q-82 -82 -195 -101v-149h800v-121h-1169v121h248v149q-114 19 -195 101q-105 105 -105 255zM331 804q0 -100 70 -170q71 -70 170 -70t169 70q71 71 71 170h-1h1 q0 99 -71 169q-70 71 -169 71t-170 -71q-70 -69 -70 -169z" />
<glyph unicode="M" horiz-adv-x="1652" d="M106 849q44 206 198 360q57 57 129 103q74 45 144 69q117 41 239 41q78 0 159 -17q206 -43 360 -196q55 -56 102 -129q40 -66 70 -144q41 -118 41 -240q0 -79 -17 -159q-43 -206 -196 -359l-86 85q128 128 164 300q14 67 14 133q0 102 -34 200q-24 64 -58 120 q-37 58 -86 108q-153 152 -369 175v-17v-71v-99v-74q106 -19 187 -97q102 -104 102 -248q0 -145 -102 -247q-103 -103 -248 -103q-146 0 -247 103q-103 101 -103 247q0 145 103 248q79 79 188 97v74v98v34v37v18q-78 -8 -144 -32q-60 -21 -120 -57q-56 -36 -107 -86 q-129 -129 -165 -301q-14 -67 -13 -131q0 -103 34 -201q23 -65 58 -120q33 -56 86 -108l-85 -85q-59 57 -103 129q-43 67 -70 144q-41 117 -41 239q-1 79 16 159zM590 693q0 -95 67 -162q68 -67 162 -67q93 0 162 67q67 67 67 162q0 96 -67 162q-67 67 -162 67t-162 -67 q-67 -66 -67 -162z" />
<glyph unicode="N" horiz-adv-x="1138" d="M188 178v1246v66l66 -5q65 -7 112 -16q49 -10 102 -26q232 -80 308 -284q94 -14 169 -75q0 105 -0.5 205t-0.5 195h121q0 -108 0.5 -223.5t0.5 -237.5q0 -24 -1 -48t0 -48v-50v-49v-1h-60h-61q0 87 -62 151q-63 63 -151 63q-90 0 -151 -63q-63 -63 -63 -151t63 -151 q61 -63 151 -63v1v-1q64 -1 118 -1h51q73 0 123 1l61 1v-61v-312h-120v251h-104.5t-128.5 1h-12.5h-12.5v1q-124 8 -212 97q-98 98 -98 236q0 137 98 237q64 64 153 87q-62 124 -218 177q-42 14 -86 23q-22 4 -34 6v-1179h-121z" />
<glyph unicode="O" horiz-adv-x="1518" d="M195 803q0 169 85 316q30 51 69 96q37 42 86 81q169 133 385 133v-121q-174 0 -311 -107q-38 -30 -69 -66q-33 -37 -56 -77q-69 -118 -69 -255q0 -115 50 -219q20 -42 44 -73q21 -31 54 -65q149 -148 357 -148q175 0 312 108q36 27 69 65q32 38 55 77q69 117 69 255h121 q0 -171 -86 -316q-31 -53 -69 -95q-41 -47 -85 -81q-168 -133 -386 -133q-259 0 -442 183q-34 31 -68 80q-31 44 -54 91q-61 128 -61 271zM403 803q0 173 122 295q24 24 54 45q29 21 61 36q85 41 180 41q136 0 247 -80q32 -26 47 -41q123 -123 123 -296t-122 -295t-295 -122 v121q123 0 210 87q87 88 87 209h-1h1q0 123 -88 210q-10 11 -34 29q-79 58 -175 58v-1v1q-67 0 -128 -30q-22 -10 -43 -25q-26 -20 -38 -32q-87 -87 -87 -210h-121zM627 803q0 81 56 137q57 57 137 57t137 -57t57 -137t-57 -137q-56 -56 -137 -56v-1v1q-81 0 -137 56 t-56 137zM747 803h1h-1q0 -29 22 -51t51 -22v1v-1q28 0 52 22q21 21 21 51q0 29 -21 52q-23 21 -52 21q-30 0 -51 -21q-22 -24 -22 -52z" />
<glyph unicode="P" horiz-adv-x="1090" d="M156 1017v2h1q0 184 129 312q127 129 312 129q183 0 312 -129q127 -128 129 -312q0 -182 -129 -311t-312 -129v-1v1q-52 0 -96 10q-43 9 -88 29q-77 35 -137 99v-539h-120v834q-1 3 -1 5zM277 1009q1 -1 1 -10q5 -91 56.5 -163t129.5 -108q37 -17 64 -21q36 -8 70 -8 q132 0 226 94t94 226q0 133 -94 227t-226 94q-133 0 -227 -94t-94 -227h1v-7zM459 1026q0 57 40.5 97.5t97.5 40.5t97.5 -40.5t40.5 -97.5t-40.5 -97.5t-97.5 -40.5t-97.5 40.5t-40.5 97.5z" />
<glyph unicode="Q" horiz-adv-x="1615" d="M199 799q0 256 182 438q90 91 205 136.5t234 45.5q258 0 439 -182l-85 -85q-147 147 -354 147v-1q-207 0 -353 -146q-147 -147 -147 -353q0 -207 147 -354q145 -147 353 -147q171 0 309 107q-34 33 -64 63.5t-57 57.5q-85 -59 -188 -59q-136 0 -234 97q-97 98 -97 235 q0 136 97 233t234 97q138 0 234 -97q97 -96 97 -233q0 -105 -58 -188q36 -36 77 -77.5t89 -88.5q60 -61 130 -131.5t150 -150.5l-86 -85q-66 66 -125.5 126.5t-113.5 114.5q-171 -141 -394 -141q-258 0 -439 181q-182 182 -182 440zM610 799q0 -87 62 -149t148 -62 q87 0 149 62q61 61 61 149q0 87 -61 148t-149 61q-87 0 -148 -61q-62 -62 -62 -148z" />
<glyph unicode="R" horiz-adv-x="1404" d="M145 970q6 169 102.5 315t261.5 218l48 -111q-133 -57 -210 -174t-82 -252v-17q0 -43 8 -89q11 -59 32 -105q20 -45 44 -80v273q0 166 117 283t284 117v1v-1q167 0 283 -117q117 -116 117 -283h1h-1q0 -167 -117 -284q-57 -57 -135 -89q46 -32 68 -48q110 -78 203 -144 t169 -117l-69 -99q-66 45 -142.5 98.5t-163.5 116.5q-53 -21 -104 -29q-50 -11 -102 -11q-15 0 -30 1q-138 6 -257 68v-233h-121v317q-102 88 -154 212l-1 1h1q-28 62 -40 130q-11 50 -11 102q0 15 1 30zM470 552q116 -83 262 -89h18q46 0 87 8q-8 5 -15 10t-14 11 q-39 27 -55.5 38.5t-23.5 17.5q-30 1 -66 8q-44 10 -80 27q-64 30 -113 78v-109zM470 929q11 -166 163 -236q30 -14 56 -19q35 -7 61 -7v1v-1q115 0 198 83q82 82 82 198t-82 198q-84 82 -198 82q-115 0 -198 -82q-82 -82 -82 -198v-2v-9v-3v-5z" />
<glyph unicode="S" horiz-adv-x="1361" d="M129 306l87 83q91 -95 220 -96h11q123 0 213 87h1q94 92 96 221v8q0 124 -87 216q-34 33 -60 78q-25 40 -40 87q-22 66 -22 135q0 51 12 103q28 122 122 212h1h-1q34 32 79 60q39 23 86 40q65 21 133 21q50 0 104 -12q122 -28 213 -121l-87 -84q-66 68 -154 88 q-38 9 -75 8q-49 0 -96 -15q-29 -10 -63 -28q-35 -24 -56 -44q-68 -66 -88 -154q-9 -37 -9 -74q0 -50 16 -98q9 -29 28 -62q17 -29 44 -57q121 -126 121 -301v-9q-5 -181 -134 -305q-127 -121 -299 -121h-11q-181 3 -305 134zM216 612q1 93 69 159h1q66 63 158 63h3 q94 -2 159 -69h1v-1q18 -20 31 -41q12 -20 21 -45q13 -40 13 -77q0 -88 -72 -158q-20 -19 -41 -31q-20 -13 -45 -21q-41 -13 -78 -13q-88 0 -157 72q-63 65 -63 156v6zM336 609q0 -44 30 -75v-1q33 -33 73 -33q18 0 37 6q13 5 21 10q14 8 20 14q33 33 33 74q0 18 -6 37 q-3 5 -5 10t-4 11q-8 12 -15 19q-32 31 -75 33q-45 0 -76 -30q-32 -30 -33 -75zM757 1131q1 93 69 159q21 19 41 31q23 13 46 21q41 13 78 13q87 0 156 -72h1q16 -16 31 -41q12 -21 20 -45q14 -41 14 -79q0 -87 -72 -156q-17 -16 -41 -31q-24 -14 -46 -21q-41 -13 -79 -13 q-87 0 -155 71v1q-63 64 -63 156v6zM877 1128v-5q0 -40 29 -70l1 -1q31 -33 72 -33q18 0 38 6q7 2 21 10q11 6 19 14q34 32 34 74q0 17 -6 37q-6 14 -10 20q-7 11 -15 20q-33 33 -73 33q-18 0 -37 -6q-11 -3 -21 -9t-19 -15q-32 -29 -33 -75z" />
<glyph unicode="T" horiz-adv-x="1414" d="M177 1354v120h1170v-120h-525v-150q113 -20 195 -101q105 -105 105 -255h1h-1q0 -150 -105 -255q-82 -82 -195 -100v-315h-120v315q-115 18 -195 100q-106 106 -106 255t106 255q79 81 194 101v150h-524zM522 848q0 -99 70 -169q71 -71 170 -71t169 71q71 69 71 169h-1h1 q0 99 -71 170q-70 70 -169 70t-170 -70q-70 -72 -70 -170z" />
<glyph unicode="U" horiz-adv-x="1549" d="M164 834q0 125 48 246t145 217l85 -85q-157 -159 -157 -378q0 -221 157 -379q132 -133 318 -153v80q-153 20 -262 130q-34 33 -64 80q-26 41 -43 90q-26 74 -26 151q0 48 10 98q27 129 123 225l86 -86q-72 -72 -92 -166q-7 -36 -6 -70q0 -57 19 -112q12 -37 31 -66 q20 -32 48 -59q73 -74 176 -93v262v-2v-96v-96v-1v263q0 124 0 117.5v-16.5t0 39.5v285.5h120v-142v1v29.5t0 -21t1 -293.5v-192v-138q22 4 51 14q30 10 66 31q31 20 59 48q69 71 89 165q8 37 8 73q0 56 -18 110q-12 32 -32 66q-18 30 -47 59l85 86q36 -37 64 -81 q28 -46 44 -90q26 -73 25 -149q0 -49 -10 -100q-27 -129 -123 -224q-34 -35 -81 -65q-39 -25 -90 -43q-48 -17 -90 -22q-1 -48 -1 -40v40v-80q185 20 318 153q157 157 157 379q0 221 -157 378l86 85q96 -96 144 -217t48 -246q0 -272 -192 -464t-464 -192q-271 0 -463 192 q-97 96 -145 217t-48 247z" />
<glyph unicode="V" horiz-adv-x="1504" d="M97 1321l101 66l626 -955l452 966l109 -51l-119 -254q20 -28 32 -49q25 -44 42 -90q38 -104 38 -205q0 -146 -80 -283q-33 -58 -77 -105q-42 -45 -96 -83q-135 -90 -301 -100q-16 -1 -32 -1q-149 0 -283 78q-56 32 -105 77q-51 48 -82 97q-90 129 -101 290q-1 20 -1 39 q0 140 69 269zM368 908q-30 -82 -29 -161q0 -131 82 -250q26 -40 65 -76q38 -36 84 -62q89 -52 197 -60zM900 309q86 20 157 69q39 26 75 65q35 38 62 83q63 110 63 226q0 79 -30 161q-10 26 -22 49z" />
<glyph unicode="W" horiz-adv-x="1556" d="M80 1036q42 200 191 351l86 -86q-125 -125 -159 -291q-13 -65 -14 -128q0 -99 33 -193q24 -66 56 -116q35 -56 84 -104q144 -145 344 -168q3 0 5.5 -0.5t5.5 -0.5v186q-138 20 -234 123l88 83q59 -64 146 -83v276h121v-276q6 1 12.5 2.5t12.5 3.5q33 11 57 26 q25 14 51 38l83 -88q-37 -34 -74 -55q-39 -23 -80 -36q-36 -11 -62 -14v-186q48 4 89 16q153 39 267 153q172 172 172 416t-172 416l85 86q104 -105 156 -235.5t52 -266.5t-52 -267t-156 -234q-137 -137 -322 -185q-66 -17 -132 -21q-26 -2 -51 -2q-41 0 -82 5 q-244 30 -416 203q-56 55 -100 126q-41 63 -67 140q-41 114 -41 234q1 75 17 152z" />
<glyph unicode="X" horiz-adv-x="1513" d="M159 1366l93 91l219 -222q142 111 324 111q42 0 87 -8q44 -8 87 -22q72 -26 137 -72l216 227l94 -90l-215 -227q23 -29 40 -56q32 -51 50 -104q30 -86 30 -175q1 -38 -5 -78q-18 -130 -99 -237l224 -219l-91 -93l-224 218q-144 -118 -331 -118q-179 0 -320 108l-220 -222 l-93 92l220 222q-114 142 -114 327q0 181 111 324zM399 819q0 -166 116 -280q114 -116 280 -116q162 0 280 116q83 83 106 195q9 44 9 86q0 67 -22 131q-14 40 -37 78q-24 37 -56 70q-65 64 -149 94q-35 11 -65 17q-37 5 -66 5q-164 0 -280 -116q-116 -115 -116 -280z M510 825h1q0 121 84 205q86 85 206 85q118 0 205 -85q85 -85 85 -205h-131q0 64 -47 113q-47 47 -112 47v-1v1q-66 0 -113 -47q-47 -49 -47 -113q0 -66 47 -113t113 -47v-130q-121 0 -206 85q-84 84 -84 205h-1z" />
<glyph unicode="Y" horiz-adv-x="1473" d="M138 1038v25q0 241 168 421l88 -83q-136 -145 -136 -340v-19q6 -208 159 -350v-1q118 -112 283 -132v69q-136 18 -237 113v1q-33 29 -63 74q-29 42 -44 85q-30 75 -30 156q0 39 7 79q22 124 111 219l88 -83q-65 -69 -80 -158q-6 -29 -6 -57q0 -58 22 -113q10 -29 32 -61 q20 -30 46 -54q68 -64 157 -80q29 -5 57 -5q59 0 114 22q32 12 61 31q30 21 53 46h1q63 68 79 157q5 30 5 59q0 57 -21 112q-12 30 -31 61q-19 27 -47 54l83 88q38 -38 64 -75q26 -43 44 -84q28 -75 28 -155q0 -41 -7 -82q-22 -124 -110 -217q-34 -37 -75 -64 q-34 -23 -84 -44q-44 -17 -97 -25v-69q180 22 306 155q102 109 128 252q8 47 8 93q0 93 -34 181q-21 51 -51 97q-29 43 -73 87h-1l83 88q53 -51 92 -108q36 -56 63 -121q41 -107 41 -221q0 -58 -10 -118q-32 -177 -158 -312v-1q-162 -171 -394 -193v-260h-120v260 q-212 20 -366 166q-188 177 -196 434z" />
<glyph unicode="Z" horiz-adv-x="1460" d="M222 568l49 28l229 134q-18 51 -18 105q0 42 11 86q35 129 151 197h1q77 44 158 44q43 0 87 -12q96 -25 162 -101l175 102q-20 24 -48 57q-104 108 -254 149q-75 20 -147 20q-140 0 -270 -75l-28 47l-33 57h1q158 92 329 92q88 0 180 -25q182 -49 312 -185q34 -37 62 -75 l8 -12t8 -11q16 -24 10 -16q7 -13 9 -17l25 -50l-49 -29l-229 -134q18 -52 18 -106q0 -42 -11 -85q-36 -130 -151 -197h-1q-76 -43 -160 -43h-17q-93 5 -168 56q-32 23 -54 47q-6 6 -8 9l-175 -101q16 -22 48 -58q103 -109 253 -149q75 -20 147 -20q140 0 271 75l60 -105 q-159 -91 -329 -91q-89 0 -180 25q-183 48 -312 185l-3 3q-30 30 -55 67q-4 5 -20 29q-3 4 -11 16q-2 3 -4 7t-4 9zM610 890q-8 -29 -8 -56q0 -51 28 -99q14 -24 28 -37q16 -18 33 -29q56 -39 114 -38q51 0 103 29q74 43 95 124q8 28 8 55q0 51 -28 99v1q-42 72 -124 95 q-28 7 -54 7q-52 0 -100 -27q-75 -44 -95 -124z" />
<glyph unicode="[" horiz-adv-x="831" d="M96 117v61v531h121v-471h575v-121h-635h-61zM96 928v521v60h61h635v-121h-575v-460h-121z" />
<glyph unicode="\" horiz-adv-x="1125" d="M286 1378l105 58l159 -286q62 22 129 22q158 0 268 -111q112 -112 112 -269h-121q0 107 -76 183q-76 77 -183 77v-1v1q-32 0 -70 -10l463 -835l-105 -59l-463 835q-5 -4 -8 -8q-76 -76 -76 -183t76 -183t183 -76v-121v1q-158 0 -269 111t-111 268q0 156 111 269 q18 18 34 30z" />
<glyph unicode="]" horiz-adv-x="831" d="M96 117v121h576v471h120v-531v-61h-60h-636zM96 1388v121h636h60v-60v-521h-120v460h-576z" />
<glyph unicode="^" horiz-adv-x="1067" d="M255 391q0 112 79 191q80 79 191 79q110 0 191 -79q79 -81 79 -191q0 -111 -79 -191l-86 85q44 44 44 106q0 61 -44 105t-105 44t-105 -44t-44 -105q0 -62 44 -106l-86 -85q-79 79 -79 191z" />
<glyph unicode="_" horiz-adv-x="1558" d="M157 117v121h1327v-121h-1327z" />
<glyph unicode="`" horiz-adv-x="714" d="M371 316l74 94l235 -185l-75 -95z" />
<glyph unicode="a" horiz-adv-x="946" d="M92 648h1q0 166 118 283q119 117 286 117q166 0 285 -117q118 -117 118 -283h1v-470h-129v177q-118 -106 -275 -106q-169 0 -286 116q-118 118 -118 283h-1zM221 648q0 -112 81 -192t195 -80v1v-1q113 0 194 80q75 74 81 180v12q0 111 -81 193q-82 79 -194 79 q-114 0 -195 -79q-81 -82 -81 -193z" />
<glyph unicode="b" horiz-adv-x="963" d="M163 622v5v126.5v122.5v38.5v39.5v188.5v177.5h120v-177.5v-188.5v-28v-27q110 101 257 101q156 0 267 -111q111 -110 111 -267v-444h-121v167q-109 -100 -257 -100q-156 0 -267 110q-110 111 -110 267zM283 622h1h-1q0 -107 76 -181q76 -76 181 -76v1v-1q106 0 182 76 q70 70 75 170v11q0 107 -75 182q-77 75 -182 75t-181 -75q-76 -76 -76 -182z" />
<glyph unicode="c" horiz-adv-x="1116" d="M182 694q0 214 151 365t365 151t365 -151l-85 -86q-118 116 -280 116q-163 0 -279 -116q-116 -115 -116 -279t116 -280q115 -115 279 -115q163 0 280 115l85 -85q-151 -151 -365 -151t-365 151t-151 365zM500 496l86 86q47 -47 112 -47t112 47t47 112t-47 112t-112 47v-1 q-66 0 -112 -46l-86 85q82 82 198 82t198 -82t82 -197t-82 -198q-83 -81 -198 -81v-1q-115 0 -198 82z" />
<glyph unicode="d" horiz-adv-x="1097" d="M163 619q0 183 129 311q129 129 312 129v1v-1q183 0 312 -129q1 -2 3 -4t5 -4v570h121v-873h-1q0 -184 -128 -312q-129 -129 -312 -129v-1v1q-183 0 -312 129q-129 127 -129 312zM283 619h1h-1q0 -133 94 -227t227 -94q132 0 226 94t94 227v12q-5 124 -94 214 q-94 94 -226 94q-133 0 -227 -94t-94 -226z" />
<glyph unicode="e" horiz-adv-x="1185" d="M176 654h1q0 197 139 336q138 140 337 140q197 0 336 -140q99 -98 128 -233q6 -23 10 -50q2 -18 2 -30v-23q0 -4 -1 -6l-5 -55h-55h-155q-17 -74 -71 -128q-78 -79 -189 -79t-190 79q-78 78 -78 189t78 189q79 78 190 78t189 -78q55 -57 71 -129h90q-5 20 -2 11 q-10 37 -37 100q-25 44 -60 80q-104 104 -251 104q-148 0 -252 -104q-104 -106 -104 -251q0 -147 104 -252q105 -104 252 -104v-121v1q-198 0 -337 139t-139 337h-1zM506 654q0 -61 43 -104t104 -43t103 43q44 44 44 104h-1h1q0 60 -44 104q-43 43 -103 43t-104 -43 q-43 -43 -43 -104z" />
<glyph unicode="f" horiz-adv-x="1127" d="M225 178v76.5v112.5v147.5v183.5v61h5q29 222 165 358q133 133 366 174q28 8 65 8v1v-1q103 0 175 -72q73 -72 73 -175q0 -102 -73 -175q-72 -72 -175 -72v-1v1q-103 0 -175 72t-72 175q0 29 6 56q-58 -31 -105 -76q-102 -103 -128 -273h266v-121h-273v-148.5v-122.5 v-112.5v-76.5h-120zM699 1052q0 -52 38 -90q37 -37 89 -37q53 0 90 37t37 90t-37 90q-36 35 -86 37q-11 -2 -22 -3.5t-21 -2.5q-28 -9 -50 -31q-38 -38 -38 -90z" />
<glyph unicode="g" horiz-adv-x="1177" d="M155 743q0 138 98 236q16 16 38 33q51 36 113 53l-4 11h88q4 0 2.5 0h-2.5h1h3h2h2q0 -1 0.5 -1h0.5q186 -3 336.5 -103t225.5 -257q28 -60 46 -131q15 -68 15 -141h1h-1q0 -266 -185 -447q-184 -185 -447 -185v-1v121q209 0 362 149q150 150 150 363q0 60 -13 114 q-11 50 -37 106q-53 109 -146 182q5 -16 8 -28q8 -39 8 -74q0 -99 -51.5 -178.5t-133.5 -119.5q-30 -16 -69 -25q-33 -9 -74 -10h-2h-1h-1q-138 0 -236 98q-97 97 -97 235zM275 743q0 -87 63 -150q62 -62 149 -62h1h1h2q24 0 47 6q25 6 44 16q118 58 118 190q0 24 -6 47 q-4 19 -14 43q-55 115 -183 122h-8h-1h-1h1h-1q-69 0 -125 -41q-8 -6 -24 -20q-62 -64 -62 -151h-1zM487 1076h1h-1zM488 955z" />
<glyph unicode="h" horiz-adv-x="1205" d="M209 178v1166h121v-421q48 54 112 91q22 14 49 25q88 39 188 39q195 0 331 -137q28 -27 51 -60q20 -29 41 -69q46 -97 46 -203h-121q0 81 -34 151q-14 27 -30 51q-17 22 -38 44q-102 103 -246 103q-71 0 -140 -29q-23 -11 -36 -19q-79 -46 -126 -125q-45 -76 -47 -163 v-444h-121zM434 609h1q0 102 71 173t173 71q101 0 172 -71q70 -71 72 -173q-2 -103 -72 -173q-71 -71 -172 -71q-102 0 -173 71t-71 173h-1zM555 609q0 -51 36 -87q37 -36 88 -36q49 0 87 36q36 36 36 87t-36 87q-37 37 -87 37q-51 0 -88 -37q-36 -36 -36 -87zM1027 178v431 h121v-431h-121z" />
<glyph unicode="i" horiz-adv-x="765" d="M194 1058q0 111 79 189q78 78 189 78t189 -78t78 -189t-78 -189q-54 -54 -129 -72v-619h-121v619q-75 18 -129 72q-78 78 -78 189zM315 1058q0 -61 43 -104t104 -43t103 43q44 44 44 104h-1h1q0 60 -44 103q-43 44 -103 44v-1v1q-60 0 -104 -44q-43 -42 -43 -103z" />
<glyph unicode="j" horiz-adv-x="1063" d="M122 -81l85 85q156 -155 373 -203q34 -8 83 -13q14 -2 22 -2v986q-75 17 -129 71q-78 79 -78 190t78 189t189 78t189 -78t78 -189h1h-1q0 -111 -78 -190q-55 -54 -128 -71v-1105h-58v-4h-1q-59 0 -97 5q-40 4 -96 16q-250 56 -432 235zM598 1033q0 -60 43 -104 q43 -43 104 -43t104 43q43 44 43 104t-43 103t-104 43t-104 -43t-43 -103z" />
<glyph unicode="k" horiz-adv-x="1062" d="M248 178v429v4v5v658h120v-361l5.5 5.5l5.5 5.5q36 36 79 63q40 25 89 43q72 25 146 25q49 -1 99 -11q126 -26 220 -120l-85 -86q-69 68 -161 88q-36 8 -72 8q-55 0 -107 -18q-38 -13 -65 -31q-32 -21 -58 -47q-96 -95 -96 -231v-8q1 -54 19 -101q13 -38 31 -64 q18 -30 46 -58q70 -68 162 -88q36 -8 70 -8q55 0 109 19q31 10 64 31q30 18 58 46l85 -86q-35 -35 -79 -62q-48 -30 -89 -43q-73 -26 -149 -26q-47 0 -95 10q-126 26 -221 121l-11 11v-123h-120z" />
<glyph unicode="l" horiz-adv-x="690" d="M181 218v25v1138h121v-1068q83 21 144 82q14 14 26 29q66 85 66 193h120q0 -149 -91 -267q-20 -25 -36 -40q-59 -59 -132 -91q-87 -40 -133 -41q-5 -1 -10 -1l-20 3l-9 3h-2h-1v-1v2q-12 4 -24 16h-1z" />
<glyph unicode="m" horiz-adv-x="1916" d="M130 157q0 309 162 559q38 59 82 108q115 131 270.5 207.5t333.5 76.5q278 0 503 -186q45 -38 96 -93q114 -129 181 -302.5t67 -369.5h-120q0 173 -59 325.5t-159 266.5q-40 43 -83 80q-192 158 -426 158q-151 0 -283 -65.5t-231 -176.5q-43 -52 -71 -95 q-142 -221 -142 -493h-121zM690 567h1q0 129 82 223l26 26q77 70 180 70v-1q80 0 149 -45q17 -12 39 -31q101 -95 101 -242q0 -130 -82 -223q-14 -15 -27 -27q-79 -69 -180 -69q-79 0 -149 45q-18 12 -39 32q-100 95 -100 242h-1zM811 567q0 -94 63 -155q15 -14 23 -18 q37 -25 82 -25q56 0 100 39q7 5 16 16q52 58 52 143q0 95 -63 155q-7 6 -23 18q-38 25 -82 25q-55 0 -100 -39l-16 -16q-52 -61 -52 -143z" />
<glyph unicode="n" horiz-adv-x="1505" d="M178 622q0 52 9 105q10 59 26 102q48 136 149 237q120 120 285 163q53 14 117 19q21 1 43 1q37 0 74 -4q215 -26 369 -179q184 -186 184 -444q0 -53 -9 -105t-27 -103q-48 -137 -148 -236l-86 85q82 82 121 191q13 39 21 83q7 37 7 85q0 209 -149 358q-123 124 -297 145 q-33 4 -64 4q-16 0 -31 -1q-52 -5 -95 -16q-133 -35 -230 -132q-83 -83 -120 -190q-16 -48 -21 -83q-7 -40 -7 -85q0 -211 148 -359l-85 -85q-184 182 -184 444z" />
<glyph unicode="o" horiz-adv-x="1376" d="M168 749q0 237 167 404q168 168 405 168q236 0 404 -168q167 -167 167 -404t-167 -404q-166 -166 -400 -167h-3h-1v-1v1h-3h-2q-235 1 -400 167q-167 167 -167 404zM289 749q0 -187 132 -319q4 -5 9 -9.5t10 -8.5q-9 36 -9 74q0 126 90 218q90 90 219 90q128 0 217 -90 q91 -91 91 -218q0 -31 -9 -74q4 4 9 8.5t10 9.5q132 132 132 319t-132 319t-318 132q-187 0 -319 -132t-132 -319zM552 486q0 -78 55 -133t133 -55q77 0 132 55t55 133q0 77 -55 132q-56 56 -132 56v-1v1q-77 0 -133 -56q-55 -55 -55 -132z" />
<glyph unicode="p" horiz-adv-x="1117" d="M110 748q10 170 115 311q37 51 90 98q47 40 106 72q128 69 277 69q18 0 36 -2q170 -9 311 -112l-71 -98q-112 82 -246 90h-30q-118 0 -220 -54q-49 -27 -84 -57q-43 -37 -72 -77q-83 -113 -90 -248q-1 -14 -1 -28q0 -118 55 -220q18 -36 45 -70v289q0 152 107 259 t259 107t259 -107t107 -259h1h-1q0 -152 -107 -259t-259 -107q-140 0 -245 94v-541h-121v354q-50 40 -79 77q-41 46 -73 106q-70 128 -70 277q0 18 1 36zM452 700q4 -94 72 -163q72 -72 173 -72v1v-1q100 0 174 72q72 73 72 174t-72 173q-73 73 -174 73v-1v1 q-102 0 -173 -73q-72 -71 -72 -173v-11z" />
<glyph unicode="q" horiz-adv-x="1168" d="M175 618q-11 56 -11 111q0 105 38 209q59 158 200 263l72 -97q-112 -83 -158 -210q-31 -82 -31 -164q0 -45 9 -89q8 -50 30 -98q23 -53 53 -91q82 -112 208 -158q82 -31 165 -31q45 0 90 9q49 8 98 30q30 13 54 28v114q-105 -95 -246 -95q-151 0 -259 107 q-107 108 -107 260q0 151 107 258q108 108 259 108q152 0 259 -108q107 -106 107 -258h1v-814h-121v292q-2 -1 -3.5 -2t-2.5 -1q-55 -25 -123 -38q-56 -11 -112 -11q-105 0 -209 38q-158 59 -262 200q-40 54 -67 115q-27 63 -38 123zM501 716q0 -102 72 -174q70 -72 173 -72 q102 0 174 72q67 67 72 163v11q0 99 -72 173q-74 72 -174 72q-101 0 -173 -72t-72 -173z" />
<glyph unicode="r" horiz-adv-x="1308" d="M179 178v487v508h121v-170q14 18 35 39q156 156 378 156q221 0 377 -156t156 -377h-121h1q0 170 -122 292q-120 121 -291 121v-1v1q-171 0 -292 -121q-115 -115 -121 -278v-14v-487h-121zM402 665l1 1v2q0 33 8 69q9 37 23 64q38 77 112.5 125.5t166.5 48.5q2 0 1.5 0 t6.5 0q38 -2 69 -10t63 -24q75 -39 122 -112t48 -163v-1q0 -128 -91 -219t-219 -91q-129 0 -220 91q-90 90 -90 219h-1zM523 665q0 -78 56 -134t134 -56v1v-1q77 0 133 56q56 54 56 134q0 117 -104 169q-21 10 -38 14q-21 6 -42 6q-3 0 -1.5 0t-3.5 0q-120 0 -170 -106 q-8 -13 -15 -39q-5 -22 -5 -42v-1v-1z" />
<glyph unicode="s" horiz-adv-x="1139" d="M134 933l20 40q1 4 3 7t3 7l9 13q7 11 17 23q21 30 45 55l2 2q101 108 253 151q74 20 146 20q139 0 269 -75l-50 -85q-107 61 -220 61q-59 0 -119 -16q-119 -33 -206 -121q-22 -24 -39 -47l142 -83q3 4 7 8q19 20 44 39q72 49 147 49q66 0 133 -38l1 -2q95 -56 122 -159 q9 -34 10 -69q0 -43 -15 -87l187 -109l40 -23l-21 -40q-3 -4 -4.5 -7l-3.5 -7q-5 -9 -8 -13q-3 -5 -6.5 -9.5t-6.5 -9.5q-25 -35 -50 -61h-1q-103 -110 -253 -150q-75 -21 -148 -21q-138 0 -265 75h-1l27 46l22 39q105 -61 218 -61q60 0 122 17q117 29 206 121q26 31 38 46 l-142 83q-53 -63 -131 -83q-37 -10 -72 -10q-66 0 -127 35v1q-95 53 -124 160q-9 35 -9 69q0 44 15 86l-186 110zM449 671q18 -67 77 -101q38 -23 79 -23q23 0 47 7q66 17 101 77q22 39 22 83q0 20 -5 42q-21 68 -79 101v1q-42 23 -83 23q-47 0 -93 -31q-13 -9 -27 -23 q-15 -17 -22 -31q-24 -39 -23 -80q-1 -22 6 -45z" />
<glyph unicode="t" horiz-adv-x="1334" d="M203 447q-47 108 -47 215q0 124 63 245q20 41 49 79q28 37 64 70q156 146 371 146h17q224 -9 378 -172q146 -157 146 -361q0 -38 -5 -77q-5 -42 -19 -90q-13 -43 -35 -88v-1l-59 31l-49 25q16 29 28 67q10 36 15 71q4 30 4 58q0 160 -114 282l-1 1q-101 108 -247 129 v-899h-121v899q-132 -20 -227 -109q-31 -30 -49 -55q-24 -32 -39 -61q-48 -94 -48 -190q0 -83 36 -167z" />
<glyph unicode="u" horiz-adv-x="1293" d="M138 817q26 154 137 273l89 -82q-88 -93 -108 -213q-7 -39 -6 -76q0 -79 29 -153q15 -41 43 -82q28 -42 62 -72q92 -88 212 -108q39 -7 76 -6q79 0 154 29q43 17 81 43q44 30 73 62q85 92 106 212q7 40 7 78q0 78 -28 151q-15 38 -43 82q-29 40 -62 73h-1l57 60l26 28 q47 -45 80 -93q34 -51 55 -105q37 -95 37 -196q0 -50 -9 -100q-27 -154 -137 -272q-41 -46 -93 -80q-51 -34 -105 -55q-96 -38 -198 -38q-48 1 -98 9q-154 26 -272 137v1q-41 37 -80 93q-36 52 -55 105q-38 96 -38 197q0 49 9 98zM353 683v11q0 130 89 226q94 100 232 105 h11q129 0 226 -88v-1q100 -93 105 -231v-11q0 -129 -89 -226q-95 -101 -231 -105h-14q-129 0 -223 89q-102 93 -106 231zM474 687q3 -88 67 -147q59 -57 140 -57h11q86 3 146 67h1q56 62 56 144v8q-2 84 -66 146h-1q-61 57 -143 57h-8q-87 -4 -146 -67q-57 -61 -57 -140v-11 z" />
<glyph unicode="v" horiz-adv-x="1397" d="M179 1063h121v-7q0 -224 118 -406q120 -186 311 -279q77 -38 158 -56q63 -15 116 -19v501q-75 18 -129 72q-78 78 -78 189t78 189q79 78 190 78q109 0 189 -78q78 -78 78 -189t-78 -189q-54 -54 -129 -72v-619h-66v-5q-105 1 -199 24q-94 22 -183 65q-222 108 -360 322 q-137 211 -137 471v8zM917 1058q0 -61 43 -104t104 -43t103 43q43 43 43 104t-43 103q-43 44 -103 44v-1v1q-60 0 -104 -44q-43 -42 -43 -103z" />
<glyph unicode="w" horiz-adv-x="1509" d="M202 796q0 254 181 437l86 -86q-146 -146 -146 -351q0 -206 146 -352q121 -122 291 -142l2 605q3 1 -7 -4q-14 -10 -22 -18q-38 -38 -38 -85q0 -22 8 -46q4 -13 12 -25q7 -13 18 -22l-86 -86q-21 21 -34 44q-16 24 -24 49q-16 47 -16 90q0 92 74 166q20 20 44 35 q22 14 49 24q46 16 89 16q93 0 168 -75q19 -19 34 -43q14 -23 24 -49q16 -47 16 -89q0 -92 -74 -168l-86 86q38 37 38 84q0 22 -8 47q-5 12 -12 25q-10 14 -18 22q-12 11 -29 22l-1 -605q169 20 291 142q145 145 145 352q0 206 -145 351l85 86q181 -181 181 -437 q0 -119 -45.5 -233t-135.5 -204q-90 -91 -204.5 -136t-232.5 -45q-256 0 -437 181t-181 437z" />
<glyph unicode="x" horiz-adv-x="1173" d="M157 1064l87 84l106 -108q125 100 285 100q135 0 247 -72l100 119l92 -78l-100 -119q118 -131 118 -306h-121h1q0 119 -77 213l-179 -211l402 -426l-88 -82l-392 415l-170 -201q80 -45 167 -45v1v-121q-135 0 -246 72l-100 -119l-92 78l100 119q-118 130 -118 307 q0 148 87 269zM299 684h1h-1q0 -121 77 -214l427 505q-77 44 -168 44q-139 0 -237 -98q-99 -99 -99 -237z" />
<glyph unicode="y" horiz-adv-x="1194" d="M169 1099q7 67 34 129q36 87 104 156l86 -85q-51 -51 -79 -117q-21 -50 -25 -98q-4 -22 -4 -46q0 -26 5 -54q19 -119 103 -202q50 -51 117 -79q47 -21 97 -26q21 -3 42 -3q29 0 59 5q116 17 202 103q58 58 87 137q9 28 15 60q5 33 5 61q0 150 -107 259l85 85 q143 -143 143 -344q0 -44 -7 -81q-9 -47 -21 -80q-36 -104 -115 -183q-113 -113 -269 -136q-10 -2 -14 -2v-380h-121v380q-67 7 -128 34q-89 36 -156 104q-113 112 -136 270q-6 37 -6 74q0 30 4 59z" />
<glyph unicode="z" horiz-adv-x="1139" d="M134 495l40 22l186 109q-15 44 -15 88q0 34 9 68q29 105 124 159v2q62 34 129 34q35 0 70 -9q78 -21 131 -83l142 84q-12 15 -38 46q-89 88 -206 121q-61 16 -120 16q-114 0 -220 -61l-22 39l-27 46h1q128 75 267 75q72 0 146 -20q149 -41 253 -151h1q22 -24 50 -60 q3 -6 6.5 -11t6.5 -9q3 -5 8 -13q3 -5 8 -14l21 -40l-40 -23l-187 -110q14 -44 15 -86q0 -35 -10 -69q-27 -104 -122 -160l-1 -1q-67 -39 -133 -39q-75 0 -147 51q-24 15 -44 38q-2 1 -4 3t-3 5l-142 -83q11 -15 39 -46q85 -89 206 -121q62 -17 121 -17q113 0 218 61l50 -85 q-130 -75 -268 -75q-72 0 -147 21q-150 40 -253 150l-2 3q-17 17 -45 54q-10 13 -17 23l-9 13l-6 14zM449 756q-7 -23 -6 -45q0 -42 23 -80q7 -16 22 -30q12 -15 27 -24q46 -32 93 -32q41 0 83 25q59 34 79 101q5 21 5 41q0 43 -22 84q-36 61 -101 77q-23 6 -46 6 q-41 0 -80 -21v-1q-59 -33 -77 -101z" />
<glyph unicode="{" horiz-adv-x="869" d="M61 703v121l154 1q21 216 175 370q178 178 430 178v-121v1q-201 0 -344 -143t-143 -345t143 -345t344 -143v1v-122v1q-252 0 -430 178q-154 152 -175 369zM234 183l85 86q144 -144 346 -188q49 -10 76 -12q36 -4 78 -4h1l1 -120h-1q-42 0 -92 5q-42 5 -89 14 q-234 50 -405 219zM243 1349q30 30 69 60q39 32 73 53q202 129 443 129v-121q-207 0 -378 -110q-33 -20 -64 -45q-36 -30 -58 -52z" />
<glyph unicode="|" horiz-adv-x="418" d="M278 157v1271h121v-1271h-121z" />
<glyph unicode="}" horiz-adv-x="869" d="M61 1470v121q240 0 442 -129q35 -21 75 -53t68 -60l-85 -86q-26 25 -59 52q-29 24 -63 45q-172 110 -378 110zM68 -55l1 120q43 0 79 4q26 2 76 12q201 44 346 188l85 -86q-172 -169 -405 -219q-49 -9 -90 -14q-49 -5 -91 -5h-1zM69 156v122v-1q201 0 344 143t143 345 t-143 345t-344 143v-1v121q252 0 430 -178q154 -154 175 -370l154 -1v-121l-154 1q-22 -216 -175 -369q-178 -178 -430 -178v-1z" />
<glyph unicode="~" horiz-adv-x="1313" d="M208 716q0 121 85 206q86 85 206 85q119 0 206 -85q85 -87 85 -206q0 -70 50 -120t120 -50t120 50t50 120q0 71 -50 120q-51 51 -120 51v-1v121q119 0 206 -85q85 -87 85 -206q0 -120 -85 -205t-206 -85v-1v1q-121 0 -206 85t-85 205q0 71 -50 120q-51 51 -120 51v-1v1 q-69 0 -120 -51q-50 -49 -50 -120q0 -70 50 -120t120 -50v-121v1q-121 0 -206 85t-85 205z" />
<glyph unicode="&#xa4;" horiz-adv-x="1211" d="M184 1006l84 85l154 -151q79 52 170 52q91 -1 164 -48l151 155l87 -84l-152 -156q54 -76 53 -170q0 -18 -2 -37q-9 -72 -48 -131l153 -152l-86 -86l-152 153q-74 -50 -168 -50q-89 0 -166 50l-152 -154l-86 85l152 153q-49 75 -51 169q2 90 49 166zM410 689 q0 -76 53 -129v1v-1q53 -53 129 -53t129 53q46 46 52 106q1 15 1 23q1 75 -53 129q-53 53 -129 53q-75 1 -129 -53q-53 -53 -53 -129z" />
<glyph unicode="&#xad;" d="M223 634v121h671v-121h-671z" />
<glyph unicode="&#xc0;" horiz-adv-x="1599" d="M79 540q0 172 122 296q100 98 236 118v551v80l77 -22q481 -141 732 -495q249 -355 264 -910l-121 -3q-14 519 -242 843q-207 291 -589 424v-468q104 -15 192 -80q36 -27 60 -56q82 -94 101 -217h180v-121h-180q-20 -138 -118 -236q-122 -122 -296 -122v-1v1 q-173 0 -296 122q-122 123 -122 296zM199 540h1h-1q0 -122 88 -210t210 -88q123 0 211 88q85 85 87 206q-23 203 -165 269q-36 15 -62 21q-35 9 -75 12q-121 -2 -206 -87q-88 -88 -88 -211zM702 1613v126l489 -188v-126z" />
<glyph unicode="&#xc1;" horiz-adv-x="1471" d="M89 519q0 157 112 271q91 89 217 108v505v74l70 -20q440 -129 671 -454q228 -327 242 -834l-111 -3q-14 478 -222 773q-189 266 -539 388v-429q96 -14 175 -73q33 -24 55 -51q74 -86 93 -199h165v-111h-165q-18 -126 -108 -216q-112 -112 -272 -112v-1v1q-159 0 -271 112 q-112 113 -112 271zM199 519h1h-1q0 -111 81 -192t192 -81q113 0 194 81q76 76 80 188q-21 186 -151 247q-34 13 -57 19q-28 7 -69 11q-111 -2 -189 -80q-81 -80 -81 -193zM598 1566l363 181l54 -107l-363 -182z" />
<glyph unicode="&#xc2;" horiz-adv-x="1599" d="M79 540q0 172 122 296q100 98 236 118v551v80l77 -22q481 -141 732 -495q249 -355 264 -910l-121 -3q-14 519 -242 843q-207 291 -589 424v-468q104 -15 192 -80q36 -27 60 -56q82 -94 101 -217h180v-121h-180q-20 -138 -118 -236q-122 -122 -296 -122v-1v1 q-173 0 -296 122q-122 123 -122 296zM199 540h1h-1q0 -122 88 -210t210 -88q123 0 211 88q85 85 87 206q-23 203 -165 269q-36 15 -62 21q-35 9 -75 12q-121 -2 -206 -87q-88 -88 -88 -211zM212 1515v107l235 106l447 -153v-116l-452 153z" />
<glyph unicode="&#xc3;" horiz-adv-x="1599" d="M79 540q0 172 122 296q100 98 236 118v551v80l77 -22q481 -141 732 -495q249 -355 264 -910l-121 -3q-14 519 -242 843q-207 291 -589 424v-468q104 -15 192 -80q36 -27 60 -56q82 -94 101 -217h180v-121h-180q-20 -138 -118 -236q-122 -122 -296 -122v-1v1 q-173 0 -296 122q-122 123 -122 296zM199 540h1h-1q0 -122 88 -210t210 -88q123 0 211 88q85 85 87 206q-23 203 -165 269q-36 15 -62 21q-35 9 -75 12q-121 -2 -206 -87q-88 -88 -88 -211zM655 1532q0 80 57 137q57 56 136 56t137 -56q56 -58 56 -137q0 -46 33 -80 q34 -33 80 -33t80 33q33 34 33 80q0 47 -33 80q-34 33 -80 33v80q79 0 137 -56q56 -58 56 -137q0 -80 -56 -136q-57 -56 -137 -56v-1v1q-80 0 -137 56q-56 56 -56 136q0 47 -33 80q-34 33 -80 33t-79 -33t-33 -80q0 -46 33 -80q33 -33 79 -33v-80v1q-80 0 -136 56 q-57 56 -57 136z" />
<glyph unicode="&#xc4;" horiz-adv-x="1596" d="M79 540q0 172 122 296q100 98 236 118v551v80l77 -22q481 -141 732 -495q249 -355 264 -910l-121 -3q-14 519 -242 843q-207 291 -589 424v-468q104 -15 192 -80q36 -27 60 -56q82 -94 101 -217h180v-121h-180q-20 -138 -118 -236q-122 -122 -296 -122v-1v1 q-173 0 -296 122q-122 123 -122 296zM199 540h1h-1q0 -122 88 -210t210 -88q123 0 211 88q85 85 87 206q-23 203 -165 269q-36 15 -62 21q-35 9 -75 12q-121 -2 -206 -87q-88 -88 -88 -211zM577 1643q0 35 25 60.5t61 25.5t61.5 -25.5t25.5 -60.5q0 -36 -25.5 -61.5 t-61.5 -25.5t-61 25.5t-25 61.5zM1152 1642q0 36 25.5 61.5t61.5 25.5t61 -25.5t25 -61.5t-25 -61t-61 -25t-61.5 25t-25.5 61z" />
<glyph unicode="&#xc5;" horiz-adv-x="1603" d="M79 450q0 172 122 296q100 98 236 118v551v80l77 -22q481 -141 732 -495q249 -355 264 -910l-121 -3q-14 519 -242 843q-207 291 -589 424v-468q104 -15 192 -80q36 -27 60 -56q82 -94 101 -217h180v-121h-180q-20 -138 -118 -236q-122 -122 -296 -122v-1v1 q-173 0 -296 122q-122 123 -122 296zM199 450h1h-1q0 -122 88 -210t210 -88q123 0 211 88q85 85 87 206q-23 203 -165 269q-36 15 -62 21q-35 9 -75 12q-121 -2 -206 -87q-88 -88 -88 -211zM913 1454q0 110 77 186q77 77 185 77q109 0 186 -77t77 -186q0 -108 -77 -185 q-54 -54 -125 -70v-229h-121v229q-73 16 -125 70q-77 75 -77 185zM1033 1451h1h-1q0 -58 42 -100t100 -42v1v-1q59 0 100 42q42 42 42 100q0 59 -42 101q-41 41 -100 41q-58 0 -100 -41q-42 -42 -42 -101z" />
<glyph unicode="&#xc6;" horiz-adv-x="1906" d="M79 540q0 172 106 296q87 98 205 118v551v80l67 -22q419 -141 637 -495q217 -355 230 -910l-105 -3q-12 519 -211 843q-180 291 -512 424v-468q90 -15 167 -80q31 -27 52 -56q71 -94 88 -217h156v-121h-156q-18 -138 -103 -236q-106 -122 -257 -122v-1v1q-151 0 -258 122 q-106 123 -106 296zM183 540h1h-1q0 -122 77 -210t183 -88q107 0 183 88q74 85 76 206q-20 203 -144 269q-31 15 -54 21q-30 9 -65 12q-105 -2 -179 -87q-77 -88 -77 -211zM845 539q0 120 42 236.5t129 209.5q171 184 413 184t413 -184l-79 -86q-137 149 -334 149 q-195 0 -333 -149q-117 -124 -136 -299h218q17 79 69 135q75 81 182 81t182 -81t75 -196q0 -114 -75 -195t-182 -81v-1v1q-107 0 -182 81q-52 55 -69 135h-218q19 -174 136 -299q137 -150 333 -150v1q197 0 334 149l79 -86q-85 -93 -193.5 -138.5t-219.5 -45.5 q-242 0 -413 184t-171 445zM1284 539q0 -64 43 -110q42 -46 102 -46q58 0 103 46q42 45 42 110q0 64 -42 111q-45 46 -103 46v-1v1q-60 0 -102 -46q-43 -48 -43 -111z" />
<glyph unicode="&#xc7;" horiz-adv-x="1492" d="M146.5 822q-4.5 131 46.5 258v1q100 254 351 364q116 50 247 54.5t259 -45.5l-30 -75l-14 -37q-209 80 -414 -8q-205 -90 -287 -298q-81 -208 8 -413q88 -205 298 -287q207 -83 413 7q204 90 287 298l58 -23l54 -21q-50 -128 -142.5 -221t-208.5 -143q-250 -110 -505 -10 l-1 1v-1q-127 50 -220 142.5t-144 209.5q-51 116 -55.5 247zM355 944v1q12 52 34 97q24 48 53 84q78 100 200 148.5t255 23.5l-23 -119q-99 18 -189.5 -17.5t-147.5 -109.5q-22 -28 -39 -62q-16 -33 -25 -72v-1q-33 -138 44 -260q74 -120 215 -153q157 -36 286 62 q27 21 43 40q21 23 37 47l101 -65q-23 -37 -49 -64q-26 -29 -59 -54q-175 -133 -386 -83q-190 43 -290 207q-104 161 -60 350zM512 -126l87 55q13 -20 31 -40q14 -16 37 -34q110 -84 244 -53q121 28 184 131q66 103 37 221v1q-7 33 -21 62t-33 53q-49 63 -126 93t-162 15 l-20 102q114 21 218 -20.5t171 -126.5q25 -31 45 -72q19 -38 29 -83v-1q38 -161 -51 -298q-85 -140 -248 -177q-180 -43 -329 71q-29 21 -51 46q-22 23 -42 55z" />
<glyph unicode="&#xc8;" horiz-adv-x="1328" d="M191 807q0 120 45.5 236.5t138.5 209.5q184 184 445 184t445 -184l-85 -86q-148 149 -360 149q-210 0 -359 -149q-126 -124 -146 -299h235q18 79 74 135q81 81 196 81t196 -81t81 -196q0 -114 -81 -195t-196 -81v-1v1q-115 0 -196 81q-56 55 -74 135h-235 q20 -174 146 -299q148 -150 359 -150v1q212 0 360 149l85 -86q-92 -93 -208.5 -138.5t-236.5 -45.5q-261 0 -445 184t-184 445zM664 807q0 -64 46 -110t110 -46q63 0 111 46q45 45 45 110q0 64 -45 111q-48 46 -111 46v-1v1q-64 0 -110 -46q-46 -48 -46 -111zM780 1562v126 l489 -188v-126z" />
<glyph unicode="&#xc9;" horiz-adv-x="1260" d="M216 748q0 112 41 216q42 107 127 192q169 169 408 169t408 -169l-78 -79q-137 137 -330 137q-192 0 -329 -137q-116 -113 -134 -274h215q16 72 68 124q74 74 180 74t180 -74t74 -179t-74 -179t-180 -74v-1v1q-106 0 -180 74q-52 49 -68 123h-215q17 -159 134 -273 q136 -138 329 -138v1q194 0 330 137l78 -79q-86 -86 -191 -127q-107 -42 -217 -42q-239 0 -408 169q-168 168 -168 408zM622 1494l363 181l54 -107l-363 -182zM649 748q0 -59 42 -101t101 -42q57 0 102 42q41 41 41 101q0 56 -41 101q-45 42 -102 42v-1v1q-59 0 -101 -42 q-42 -44 -42 -101z" />
<glyph unicode="&#xca;" horiz-adv-x="1332" d="M191 807q0 120 45.5 236.5t138.5 209.5q184 184 445 184t445 -184l-85 -86q-148 149 -360 149q-210 0 -359 -149q-126 -124 -146 -299h235q18 79 74 135q81 81 196 81t196 -81t81 -196q0 -114 -81 -195t-196 -81v-1v1q-115 0 -196 81q-56 55 -74 135h-235 q20 -174 146 -299q148 -150 359 -150v1q212 0 360 149l85 -86q-92 -93 -208.5 -138.5t-236.5 -45.5q-261 0 -445 184t-184 445zM497 1483v141l338 164l344 -168v-153l-349 168zM664 807q0 -64 46 -110t110 -46q63 0 111 46q45 45 45 110q0 64 -45 111q-48 46 -111 46v-1v1 q-64 0 -110 -46q-46 -48 -46 -111z" />
<glyph unicode="&#xcb;" horiz-adv-x="1339" d="M191 807q0 120 45.5 236.5t138.5 209.5q184 184 445 184t445 -184l-85 -86q-148 149 -360 149q-210 0 -359 -149q-126 -124 -146 -299h235q18 79 74 135q81 81 196 81t196 -81t81 -196q0 -114 -81 -195t-196 -81v-1v1q-115 0 -196 81q-56 55 -74 135h-235 q20 -174 146 -299q148 -150 359 -150v1q212 0 360 149l85 -86q-92 -93 -208.5 -138.5t-236.5 -45.5q-261 0 -445 184t-184 445zM427 1560q0 35 25 60.5t61 25.5t61.5 -25.5t25.5 -60.5q0 -36 -25.5 -61.5t-61.5 -25.5t-61 25.5t-25 61.5zM664 807q0 -64 46 -110t110 -46 q63 0 111 46q45 45 45 110q0 64 -45 111q-48 46 -111 46v-1v1q-64 0 -110 -46q-46 -48 -46 -111zM1002 1559q0 36 25.5 61.5t61.5 25.5t61 -25.5t25 -61.5t-25 -61t-61 -25t-61.5 25t-25.5 61z" />
<glyph unicode="&#xcc;" horiz-adv-x="1106" d="M153 768q0 148 105 253q79 79 192 99v343h121v-343q112 -20 192 -99q104 -106 104 -253q0 -148 -104 -253q-80 -80 -192 -99v-238h-121v238q-3 0 -4.5 0.5t-3.5 0.5q-12 2 -32 8q4 -1 -17 5q-12 4 -13 5q-69 27 -122 80q-105 105 -105 253zM274 768q0 -98 69 -167 q49 -50 114 -64q24 -5 53 -6h2q98 1 165 70q70 70 70 167t-70 167q-68 69 -167 69q-98 0 -167 -69t-69 -167zM275 1681v126l489 -188v-126z" />
<glyph unicode="&#xcd;" horiz-adv-x="976" d="M275 719q0 134 97 231q71 72 176 91v315h111v-315q103 -19 176 -91q95 -97 95 -231q0 -136 -95 -232q-73 -73 -176 -91v-218h-111v218h-3h-1q-1 1 -4 1q-14 2 -29 7q1 0 -15 5q-6 1 -9 2.5l-3 1.5q-67 26 -112 74q-97 97 -97 232zM359 1487l363 181l54 -107l-364 -182z M386 719q0 -89 64 -153q44 -46 104 -59q25 -5 49 -5h2q89 0 151 64q64 62 64 153q0 89 -64 152q-63 64 -153 64q-91 0 -153 -64q-64 -64 -64 -152z" />
<glyph unicode="&#xce;" horiz-adv-x="1110" d="M153 768q0 148 105 253q79 79 192 99v343h121v-343q112 -20 192 -99q104 -106 104 -253q0 -148 -104 -253q-80 -80 -192 -99v-238h-121v238q-3 0 -4.5 0.5t-3.5 0.5q-12 2 -32 8q4 -1 -17 5q-12 4 -13 5q-69 27 -122 80q-105 105 -105 253zM171 1466v141l338 164 l344 -168v-153l-349 168zM274 768q0 -98 69 -167q49 -50 114 -64q24 -5 53 -6h2q98 1 165 70q70 70 70 167t-70 167q-68 69 -167 69q-98 0 -167 -69t-69 -167z" />
<glyph unicode="&#xcf;" horiz-adv-x="1102" d="M124 1361q0 35 25.5 60.5t61.5 25.5q35 0 60.5 -25.5t25.5 -60.5q0 -36 -25.5 -61.5t-60.5 -25.5q-36 0 -61.5 25.5t-25.5 61.5zM153 768q0 148 105 253q79 79 192 99v343h121v-343q112 -20 192 -99q104 -106 104 -253q0 -148 -104 -253q-80 -80 -192 -99v-238h-121v238 q-3 0 -4.5 0.5t-3.5 0.5q-12 2 -32 8q4 -1 -17 5q-12 4 -13 5q-69 27 -122 80q-105 105 -105 253zM274 768q0 -98 69 -167q49 -50 114 -64q24 -5 53 -6h2q98 1 165 70q70 70 70 167t-70 167q-68 69 -167 69q-98 0 -167 -69t-69 -167zM700 1360q0 36 25 61.5t61 25.5 t61.5 -25.5t25.5 -61.5t-25.5 -61t-61.5 -25t-61 25t-25 61z" />
<glyph unicode="&#xd1;" horiz-adv-x="1225" d="M188 178v1312l66 -5q65 -7 112 -16q49 -10 102 -26q232 -80 308 -284q94 -14 169 -75q0 105 -0.5 205t-0.5 195h121q0 -108 0.5 -223.5t0.5 -237.5q0 -24 -0.5 -48t-0.5 -48v-100h-121q0 87 -62 151q-63 63 -151 63q-90 0 -151 -63q-63 -63 -63 -151t63 -151 q61 -63 151 -63q96 -1 169 -0.5t123 0.5l61 1v-373h-120v251h-104.5t-128.5 1h-25v1q-124 8 -212 97q-98 98 -98 236q0 137 98 237q64 64 153 87q-62 124 -218 177q-42 14 -86 23q-22 4 -34 6v-1179h-121zM299 1533q0 80 57 137q57 56 136 56t137 -56q56 -58 56 -137 q0 -46 33 -80q34 -33 80 -33t80 33q33 34 33 80q0 47 -33 80q-34 33 -80 33v80q79 0 137 -56q56 -58 56 -137q0 -80 -56 -136q-57 -56 -137 -56v-1v1q-80 0 -137 56q-56 56 -56 136q0 47 -33 80q-34 33 -80 33t-79 -33t-33 -80q0 -46 33 -80q33 -33 79 -33v-80v1 q-80 0 -136 56q-57 56 -57 136z" />
<glyph unicode="&#xd2;" horiz-adv-x="1508" d="M195 803q0 169 85 316q30 51 69 96q37 42 86 81q169 133 385 133v-121q-174 0 -311 -107q-38 -30 -69 -66q-33 -37 -56 -77q-69 -118 -69 -255q0 -115 50 -219q20 -42 44 -73q21 -31 54 -65q149 -148 357 -148q175 0 312 108q36 27 69 65q32 38 55 77q69 117 69 255h121 q0 -171 -86 -316q-31 -53 -69 -95q-41 -47 -85 -81q-168 -133 -386 -133q-259 0 -442 183q-34 31 -68 80q-31 44 -54 91q-61 128 -61 271zM403 803q0 173 122 295q24 24 54 45q29 21 61 36q85 41 180 41q136 0 247 -80q32 -26 47 -41q123 -123 123 -296t-122 -295t-295 -122 v121q123 0 210 87q87 88 87 209h-1h1q0 123 -88 210q-10 11 -34 29q-79 58 -175 58v-1v1q-67 0 -128 -30q-22 -10 -43 -25q-26 -20 -38 -32q-87 -87 -87 -210h-121zM585 1592v126l489 -188v-126zM627 803q0 81 56 137q57 57 137 57t137 -57t57 -137t-57 -137 q-56 -56 -137 -56v-1v1q-81 0 -137 56t-56 137zM747 803h1h-1q0 -29 22 -51t51 -22v1v-1q28 0 52 22q21 21 21 51q0 29 -21 52q-23 21 -52 21q-30 0 -51 -21q-22 -24 -22 -52z" />
<glyph unicode="&#xd3;" horiz-adv-x="1463" d="M247 751q0 154 78 289q31 51 64 88q29 34 78 75q155 121 353 121v-111q-160 0 -285 -97q-37 -30 -63 -61q-32 -37 -51 -71q-63 -106 -63 -233q0 -105 45 -201q20 -42 41 -67q17 -28 49 -59q136 -136 327 -136q161 0 286 99q30 21 64 59q32 41 50 71q63 108 63 234h111 q0 -158 -79 -290q-29 -48 -63 -87q-35 -41 -78 -74q-152 -122 -354 -122q-237 0 -405 168q-30 26 -62 73q-26 36 -49 83q-57 118 -57 249zM438 751q0 158 112 270q25 25 49 41q27 19 57 33q77 38 164 38q124 0 227 -74q28 -23 43 -37q113 -113 113 -271t-112 -271 q-113 -111 -271 -111v110q113 0 193 80q79 80 79 192q0 113 -80 192q-7 8 -31 27q-75 53 -161 53v-1v1q-63 0 -117 -28q-26 -12 -39 -22q-27 -22 -35 -30q-80 -80 -80 -192h-111zM644 751q0 74 51 125q52 52 125 52q74 0 126 -52q52 -51 52 -125t-52 -126q-51 -51 -126 -51 v-1v1q-74 0 -125 51t-51 126zM753 751h1h-1q0 -28 21 -47q20 -20 46 -20v1v-1q24 0 48 20q19 19 19 47q0 26 -19 48q-21 18 -48 18t-46 -18q-21 -23 -21 -48zM871 1319l363 182l54 -108l-363 -181z" />
<glyph unicode="&#xd4;" horiz-adv-x="1508" d="M195 803q0 169 85 316q30 51 69 96q37 42 86 81q169 133 385 133v-121q-174 0 -311 -107q-38 -30 -69 -66q-33 -37 -56 -77q-69 -118 -69 -255q0 -115 50 -219q20 -42 44 -73q21 -31 54 -65q149 -148 357 -148q175 0 312 108q36 27 69 65q32 38 55 77q69 117 69 255h121 q0 -171 -86 -316q-31 -53 -69 -95q-41 -47 -85 -81q-168 -133 -386 -133q-259 0 -442 183q-34 31 -68 80q-31 44 -54 91q-61 128 -61 271zM314 1350v153l493 164l260 -160v-141l-254 148zM403 803q0 173 122 295q24 24 54 45q29 21 61 36q85 41 180 41q136 0 247 -80 q32 -26 47 -41q123 -123 123 -296t-122 -295t-295 -122v121q123 0 210 87q87 88 87 209h-1h1q0 123 -88 210q-10 11 -34 29q-79 58 -175 58v-1v1q-67 0 -128 -30q-22 -10 -43 -25q-26 -20 -38 -32q-87 -87 -87 -210h-121zM627 803q0 81 56 137q57 57 137 57t137 -57t57 -137 t-57 -137q-56 -56 -137 -56v-1v1q-81 0 -137 56t-56 137zM747 803h1h-1q0 -29 22 -51t51 -22v1v-1q28 0 52 22q21 21 21 51q0 29 -21 52q-23 21 -52 21q-30 0 -51 -21q-22 -24 -22 -52z" />
<glyph unicode="&#xd5;" horiz-adv-x="1511" d="M195 803q0 169 85 316q30 51 69 96q37 42 86 81q169 133 385 133v-121q-174 0 -311 -107q-38 -30 -69 -66q-33 -37 -56 -77q-69 -118 -69 -255q0 -115 50 -219q20 -42 44 -73q21 -31 54 -65q149 -148 357 -148q175 0 312 108q36 27 69 65q32 38 55 77q69 117 69 255h121 q0 -171 -86 -316q-31 -53 -69 -95q-41 -47 -85 -81q-168 -133 -386 -133q-259 0 -442 183q-34 31 -68 80q-31 44 -54 91q-61 128 -61 271zM403 803q0 173 122 295q24 24 54 45q29 21 61 36q85 41 180 41q136 0 247 -80q32 -26 47 -41q123 -123 123 -296t-122 -295t-295 -122 v121q123 0 210 87q87 88 87 209h-1h1q0 123 -88 210q-10 11 -34 29q-79 58 -175 58v-1v1q-67 0 -128 -30q-22 -10 -43 -25q-26 -20 -38 -32q-87 -87 -87 -210h-121zM460 1541q0 80 57 137q57 56 136 56t137 -56q56 -58 56 -137q0 -46 33 -80q34 -33 80 -33t80 33 q33 34 33 80q0 47 -33 80q-34 33 -80 33v80q79 0 137 -56q56 -58 56 -137q0 -80 -56 -136q-57 -56 -137 -56v-1v1q-80 0 -137 56q-56 56 -56 136q0 47 -33 80q-34 33 -80 33t-79 -33t-33 -80q0 -46 33 -80q33 -33 79 -33v-80v1q-80 0 -136 56q-57 56 -57 136zM627 803 q0 81 56 137q57 57 137 57t137 -57t57 -137t-57 -137q-56 -56 -137 -56v-1v1q-81 0 -137 56t-56 137zM747 803h1h-1q0 -29 22 -51t51 -22v1v-1q28 0 52 22q21 21 21 51q0 29 -21 52q-23 21 -52 21q-30 0 -51 -21q-22 -24 -22 -52z" />
<glyph unicode="&#xd6;" horiz-adv-x="1527" d="M195 803q0 169 85 316q30 51 69 96q37 42 86 81q169 133 385 133v-121q-174 0 -311 -107q-38 -30 -69 -66q-33 -37 -56 -77q-69 -118 -69 -255q0 -115 50 -219q20 -42 44 -73q21 -31 54 -65q149 -148 357 -148q175 0 312 108q36 27 69 65q32 38 55 77q69 117 69 255h121 q0 -171 -86 -316q-31 -53 -69 -95q-41 -47 -85 -81q-168 -133 -386 -133q-259 0 -442 183q-34 31 -68 80q-31 44 -54 91q-61 128 -61 271zM403 803q0 173 122 295q24 24 54 45q29 21 61 36q85 41 180 41q136 0 247 -80q32 -26 47 -41q123 -123 123 -296t-122 -295t-295 -122 v121q123 0 210 87q87 88 87 209h-1h1q0 123 -88 210q-10 11 -34 29q-79 58 -175 58v-1v1q-67 0 -128 -30q-22 -10 -43 -25q-26 -20 -38 -32q-87 -87 -87 -210h-121zM427 1560q0 35 25 60.5t61 25.5t61.5 -25.5t25.5 -60.5q0 -36 -25.5 -61.5t-61.5 -25.5t-61 25.5t-25 61.5z M627 803q0 81 56 137q57 57 137 57t137 -57t57 -137t-57 -137q-56 -56 -137 -56v-1v1q-81 0 -137 56t-56 137zM747 803h1h-1q0 -29 22 -51t51 -22v1v-1q28 0 52 22q21 21 21 51q0 29 -21 52q-23 21 -52 21q-30 0 -51 -21q-22 -24 -22 -52zM1002 1559q0 36 25.5 61.5 t61.5 25.5t61 -25.5t25 -61.5t-25 -61t-61 -25t-61.5 25t-25.5 61z" />
<glyph unicode="&#xd9;" horiz-adv-x="1557" d="M164 834q0 125 48 246t145 217l85 -85q-157 -159 -157 -378q0 -221 157 -379q132 -133 318 -153v80q-153 20 -262 130q-34 33 -64 80q-26 41 -43 90q-43 120 -16 249t123 225l86 -86q-72 -71 -91.5 -165.5t12.5 -182.5q12 -37 31 -66q20 -32 48 -59q73 -74 176 -93 q0 279 0 260.5v-96.5v-96t0 262q0 124 0 117.5v-16.5t0 39.5v285.5h120q0 -150 0 -141v29.5t0.5 -21t0.5 -293.5v-192v-138q22 4 51 14q30 10 66 31q31 20 59 48q70 70 89.5 164.5t-10.5 183.5q-12 32 -32 66q-18 30 -47 59l85 86q36 -37 64 -81q28 -46 44 -90 q42 -120 15 -249t-123 -224q-34 -35 -81 -65q-39 -25 -90 -43q-48 -17 -90 -22q-1 -48 -1 -40v40v-80q185 20 318 153q157 157 157 379q0 221 -157 378l86 85q96 -96 144 -217t48 -246q0 -272 -192 -464t-464 -192q-271 0 -463 192q-97 96 -145 217t-48 247zM570 1539v126 l489 -188v-126z" />
<glyph unicode="&#xda;" horiz-adv-x="1493" d="M219 779q0 117 44 226q44 111 133 199l78 -78q-144 -146 -144 -347q0 -202 144 -347q120 -122 292 -140v73q-140 17 -241 119q-30 29 -59 73q-23 36 -39 83q-40 110 -14 228q24 119 112 206l79 -78q-66 -66 -84 -152q-18 -87 12 -168q10 -35 28 -60q15 -25 44 -54 q69 -70 162 -85v187t0 52v-31v-58v-58v-30q0 -9 0 51v189v84t0 24v-7v-8q0 -5 0 4v32v87.5v174.5h109v-101.5t0 -28.5v11v17q0 9 0.5 4t0.5 -24v-86.5v-182.5v-95v-81v-68.5v-57.5q14 2 47 13q32 10 60 28q29 18 55 44q64 65 82 151q17 85 -10 168q-10 28 -29 60 q-15 24 -43 55l78 78q33 -36 58 -74q28 -47 40 -82q39 -112 14 -229q-24 -117 -112 -205q-33 -33 -75 -59q-35 -24 -82 -40q-48 -16 -83 -20q0 -23 -0.5 -32t-0.5 -5v12.5v24.5v-73q171 18 292 140q144 144 144 347t-144 347l79 78q86 -88 132 -199q44 -113 44 -226 q0 -249 -176 -425q-178 -176 -426 -176t-424 176q-89 85 -133 199q-44 108 -44 226zM627 1324l363 181l54 -107l-363 -182z" />
<glyph unicode="&#xdb;" horiz-adv-x="1550" d="M164 834q0 125 48 246t145 217l85 -85q-157 -159 -157 -378q0 -221 157 -379q132 -133 318 -153v80q-153 20 -262 130q-34 33 -64 80q-26 41 -43 90q-43 120 -16 249t123 225l86 -86q-72 -71 -91.5 -165.5t12.5 -182.5q12 -37 31 -66q20 -32 48 -59q73 -74 176 -93 q0 279 0 260.5v-96.5v-96t0 262q0 124 0 117.5v-16.5t0 39.5v285.5h120q0 -150 0 -141v29.5t0.5 -21t0.5 -293.5v-192v-138q22 4 51 14q30 10 66 31q31 20 59 48q70 70 89.5 164.5t-10.5 183.5q-12 32 -32 66q-18 30 -47 59l85 86q36 -37 64 -81q28 -46 44 -90 q42 -120 15 -249t-123 -224q-34 -35 -81 -65q-39 -25 -90 -43q-48 -17 -90 -22q-1 -48 -1 -40v40v-80q185 20 318 153q157 157 157 379q0 221 -157 378l86 85q96 -96 144 -217t48 -246q0 -272 -192 -464t-464 -192q-271 0 -463 192q-97 96 -145 217t-48 247zM478 1388v141 l331 160l351 -164v-153l-356 164z" />
<glyph unicode="&#xdc;" horiz-adv-x="1550" d="M164 834q0 125 48 246t145 217l85 -85q-157 -159 -157 -378q0 -221 157 -379q132 -133 318 -153v80q-153 20 -262 130q-34 33 -64 80q-26 41 -43 90q-43 120 -16 249t123 225l86 -86q-72 -71 -91.5 -165.5t12.5 -182.5q12 -37 31 -66q20 -32 48 -59q73 -74 176 -93 q0 279 0 260.5v-96.5v-96t0 262q0 124 0 117.5v-16.5t0 39.5v285.5h120q0 -150 0 -141v29.5t0.5 -21t0.5 -293.5v-192v-138q22 4 51 14q30 10 66 31q31 20 59 48q70 70 89.5 164.5t-10.5 183.5q-12 32 -32 66q-18 30 -47 59l85 86q36 -37 64 -81q28 -46 44 -90 q42 -120 15 -249t-123 -224q-34 -35 -81 -65q-39 -25 -90 -43q-48 -17 -90 -22q-1 -48 -1 -40v40v-80q185 20 318 153q157 157 157 379q0 221 -157 378l86 85q96 -96 144 -217t48 -246q0 -272 -192 -464t-464 -192q-271 0 -463 192q-97 96 -145 217t-48 247zM446 1449 q0 35 25 60.5t61 25.5t61.5 -25.5t25.5 -60.5q0 -36 -25.5 -61.5t-61.5 -25.5t-61 25.5t-25 61.5zM1021 1448q0 36 25.5 61.5t61.5 25.5t61 -25.5t25 -61.5t-25 -61t-61 -25t-61.5 25t-25.5 61z" />
<glyph unicode="&#xdd;" horiz-adv-x="1450" d="M138 1038q-9 257 168 446l88 -83q-143 -152 -136 -359q6 -208 159 -350v-1q118 -112 283 -132v69q-136 18 -237 113v1q-33 29 -63 74q-29 42 -44 85q-45 112 -23 235.5t111 218.5l88 -83q-65 -69 -80.5 -158t16.5 -170q10 -29 32 -61q20 -30 46 -54q68 -64 157 -80 t171 17q32 12 61 31q30 21 53 46h1q63 68 78.5 157t-15.5 171q-12 30 -31 61q-19 27 -47 54l83 88q38 -38 64 -75q26 -43 44 -84q43 -114 21 -237.5t-110 -216.5q-34 -37 -75 -64q-34 -23 -84 -44q-44 -17 -97 -25v-69q180 22 306 155q102 109 127.5 251.5t-25.5 274.5 q-21 51 -51 97q-29 43 -73 87h-1l83 88q53 -51 92 -108q36 -56 63 -121q62 -162 30.5 -339t-157.5 -312v-1q-162 -171 -394 -193v-260h-120v260q-212 20 -366 166q-188 177 -196 434zM603 1538l363 181l54 -107l-363 -182z" />
<glyph unicode="&#xe0;" horiz-adv-x="949" d="M145 622h1q0 157 110 267q111 111 267 111t267 -111q110 -110 110 -267h1v-444h-121v167q-110 -100 -257 -100q-157 0 -267 110q-110 111 -110 267h-1zM266 622q0 -106 75 -181q76 -76 182 -76v1v-1q106 0 182 76q70 70 75 170v11q0 105 -75 182q-77 75 -182 75 q-106 0 -182 -75q-75 -77 -75 -182zM409 1210v126l489 -188v-126z" />
<glyph unicode="&#xe1;" horiz-adv-x="993" d="M253 585h1q0 144 101 245q102 101 245 101t244 -101t101 -245h1v-407h-111v153q-102 -92 -235 -92q-144 0 -245 101q-101 102 -101 245h-1zM364 585q0 -97 69 -166q70 -70 167 -70v1v-1q96 0 166 70q64 64 69 156v10q0 96 -69 167q-70 68 -166 68q-99 0 -167 -68 q-69 -71 -69 -167zM464 1081l363 182l54 -108l-363 -181z" />
<glyph unicode="&#xe2;" horiz-adv-x="960" d="M145 622h1q0 157 110 267q111 111 267 111t267 -111q110 -110 110 -267h1v-444h-121v167q-110 -100 -257 -100q-157 0 -267 110q-110 111 -110 267h-1zM266 622q0 -106 75 -181q76 -76 182 -76v1v-1q106 0 182 76q70 70 75 170v11q0 105 -75 182q-77 75 -182 75 q-106 0 -182 -75q-75 -77 -75 -182zM296 1189q0 100 70 170q71 70 169 70t170 -70q70 -72 70 -170t-70 -169l-76 75q39 39 39 94t-39 94t-94 39q-54 0 -93 -39t-39 -94t39 -94l-76 -75q-70 70 -70 169z" />
<glyph unicode="&#xe3;" horiz-adv-x="957" d="M145 622h1q0 157 110 267q111 111 267 111t267 -111q110 -110 110 -267h1v-444h-121v167q-110 -100 -257 -100q-157 0 -267 110q-110 111 -110 267h-1zM176 1258q0 80 57 137q57 56 136 56t137 -56q56 -58 56 -137q0 -46 33 -80q34 -33 80 -33t80 33q33 34 33 80 q0 47 -33 80q-34 33 -80 33v80q79 0 137 -56q56 -58 56 -137q0 -80 -56 -136q-57 -56 -137 -56v-1v1q-80 0 -137 56q-56 56 -56 136q0 47 -33 80q-34 33 -80 33t-79 -33t-33 -80q0 -46 33 -80q33 -33 79 -33v-80v1q-80 0 -136 56q-57 56 -57 136zM266 622q0 -106 75 -181 q76 -76 182 -76v1v-1q106 0 182 76q70 70 75 170v11q0 105 -75 182q-77 75 -182 75q-106 0 -182 -75q-75 -77 -75 -182z" />
<glyph unicode="&#xe4;" horiz-adv-x="957" d="M145 622h1q0 157 110 267q111 111 267 111t267 -111q110 -110 110 -267h1v-444h-121v167q-110 -100 -257 -100q-157 0 -267 110q-110 111 -110 267h-1zM159 1147q0 35 25 60.5t61 25.5t61.5 -25.5t25.5 -60.5q0 -36 -25.5 -61.5t-61.5 -25.5t-61 25.5t-25 61.5zM266 622 q0 -106 75 -181q76 -76 182 -76v1v-1q106 0 182 76q70 70 75 170v11q0 105 -75 182q-77 75 -182 75q-106 0 -182 -75q-75 -77 -75 -182zM734 1146q0 36 25.5 61.5t61.5 25.5t61 -25.5t25 -61.5t-25 -61t-61 -25t-61.5 25t-25.5 61z" />
<glyph unicode="&#xe5;" horiz-adv-x="960" d="M145 622h1q0 157 110 267q111 111 267 111t267 -111q110 -110 110 -267h1v-444h-121v167q-110 -100 -257 -100q-157 0 -267 110q-110 111 -110 267h-1zM266 622q0 -106 75 -181q76 -76 182 -76v1v-1q106 0 182 76q70 70 75 170v11q0 105 -75 182q-77 75 -182 75 q-106 0 -182 -75q-75 -77 -75 -182zM284 1339q0 104 72 175q73 73 175 73t175 -73q72 -72 72 -175q0 -101 -72 -174q-51 -50 -118 -66v-215h-114v215q-69 16 -118 66q-72 71 -72 174zM397 1339h1h-1q0 -54 39 -94q40 -39 95 -39v1v-1q55 0 94 39q39 40 39 94q0 56 -39 95 t-94 39t-95 -39q-39 -39 -39 -95z" />
<glyph unicode="&#xe6;" horiz-adv-x="1795" d="M145 622h1q0 157 110 267q111 111 267 111t267 -111q110 -110 110 -267h1v-444h-121v167q-110 -100 -257 -100q-157 0 -267 110q-110 111 -110 267h-1zM266 622q0 -106 75 -181q76 -76 182 -76v1v-1q106 0 182 76q70 70 75 170v11q0 105 -75 182q-77 75 -182 75 q-106 0 -182 -75q-75 -77 -75 -182zM781 640h1q0 193 136 328q134 137 328 137q193 0 328 -137q97 -95 125 -227q6 -22 10 -49q2 -17 2 -29v-23q0 -3 -1 -5l-5 -54h-54h-151q-16 -72 -69 -125q-76 -77 -185 -77q-108 0 -185 77q-76 76 -76 184q0 109 76 185q77 76 185 76 q109 0 185 -76q54 -56 69 -126h88q-5 20 -2 11q-10 36 -36 97q-24 43 -59 78q-101 102 -245 102t-245 -102q-102 -103 -102 -245q0 -143 102 -245t245 -102v-118v1q-193 0 -328 136q-136 135 -136 328h-1zM1103 640q0 -59 42 -101t101 -42q60 0 101 42q43 43 43 101h-1h1 q0 59 -43 102q-42 42 -101 42q-58 0 -101 -42q-42 -42 -42 -102z" />
<glyph unicode="&#xe7;" horiz-adv-x="1201" d="M182 694q0 214 151 365t365 151t365 -151l-85 -86q-118 116 -280 116q-163 0 -279 -116q-116 -115 -116 -279t116 -280q115 -115 279 -115q163 0 280 115l85 -85q-151 -151 -365 -151t-365 151t-151 365zM500 496l86 86q47 -47 112 -47t112 47t47 112t-47 112t-112 47v-1 q-66 0 -112 -46l-86 85q82 82 198 82t198 -82t82 -197t-82 -198q-83 -81 -198 -81v-1q-115 0 -198 82zM525 -116l80 75q44 -41 105 -41q60 0 104 41t44 97q0 57 -44 98q-44 40 -104 40q-62 0 -109 -9l-38 23l-38 20q77 71 185 71t184 -71q77 -72 77 -172t-77 -172 q-77 -71 -184 -71v-1q-108 0 -185 72z" />
<glyph unicode="&#xe8;" horiz-adv-x="1201" d="M176 654h1q0 197 139 336q138 140 337 140q197 0 336 -140q99 -98 128 -233q6 -23 10 -50q2 -18 2 -30v-23q0 -4 -1 -6l-5 -55h-55h-155q-17 -74 -71 -128q-78 -79 -189 -79t-190 79q-78 78 -78 189t78 189q79 78 190 78t189 -78q55 -57 71 -129h90q-5 20 -2 11 q-10 37 -37 100q-25 44 -60 80q-104 104 -251 104q-148 0 -252 -104q-104 -106 -104 -251q0 -147 104 -252q105 -104 252 -104v-121v1q-198 0 -337 139t-139 337h-1zM506 654q0 -61 43 -104t104 -43t103 43q44 44 44 104h-1h1q0 60 -44 104q-43 43 -103 43t-104 -43 q-43 -43 -43 -104zM604 1356v126l489 -188v-126z" />
<glyph unicode="&#xe9;" horiz-adv-x="1319" d="M383 615h1q0 181 127 308q128 128 309 128q180 0 308 -128q91 -91 117 -214q4 -18 10 -46q2 -22 2 -27v-5.5v-15.5q0 -3 -0.5 -4t-0.5 -2l-5 -50h-50h-142q-17 -68 -66 -117q-71 -73 -173 -73q-103 0 -174 73q-71 69 -71 173q0 102 71 173t174 71t173 -71q51 -53 66 -118 h82q-4 16 -2 10q-11 37 -34 92q-23 40 -55 73q-95 95 -230 95t-231 -95q-95 -99 -95 -230q0 -135 95 -231q96 -95 231 -95v-111q-181 0 -309 128q-127 127 -127 309h-1zM586 1194l363 181l54 -107l-363 -182zM685 615q0 -55 40 -96q39 -39 95 -39t95 39q40 40 40 96h-1h1 q0 55 -40 95t-95 40t-95 -40t-40 -95z" />
<glyph unicode="&#xea;" horiz-adv-x="1205" d="M176 654h1q0 197 139 336q138 140 337 140q197 0 336 -140q99 -98 128 -233q6 -23 10 -50q2 -18 2 -30v-23q0 -4 -1 -6l-5 -55h-55h-155q-17 -74 -71 -128q-78 -79 -189 -79t-190 79q-78 78 -78 189t78 189q79 78 190 78t189 -78q55 -57 71 -129h90q-5 20 -2 11 q-10 37 -37 100q-25 44 -60 80q-104 104 -251 104q-148 0 -252 -104q-104 -106 -104 -251q0 -147 104 -252q105 -104 252 -104v-121v1q-198 0 -337 139t-139 337h-1zM441 1319q0 100 70 170q71 70 169 70t170 -70q70 -72 70 -170t-70 -169l-76 75q39 39 39 94t-39 94t-94 39 q-54 0 -93 -39t-39 -94t39 -94l-76 -75q-70 70 -70 169zM506 654q0 -61 43 -104t104 -43t103 43q44 44 44 104h-1h1q0 60 -44 104q-43 43 -103 43t-104 -43q-43 -43 -43 -104z" />
<glyph unicode="&#xeb;" horiz-adv-x="1198" d="M176 654h1q0 197 139 336q138 140 337 140q197 0 336 -140q99 -98 128 -233q6 -23 10 -50q2 -18 2 -30v-23q0 -4 -1 -6l-5 -55h-55h-155q-17 -74 -71 -128q-78 -79 -189 -79t-190 79q-78 78 -78 189t78 189q79 78 190 78t189 -78q55 -57 71 -129h90q-5 20 -2 11 q-10 37 -37 100q-25 44 -60 80q-104 104 -251 104q-148 0 -252 -104q-104 -106 -104 -251q0 -147 104 -252q105 -104 252 -104v-121v1q-198 0 -337 139t-139 337h-1zM263 1266q0 35 25 60.5t61 25.5t61.5 -25.5t25.5 -60.5q0 -36 -25.5 -61.5t-61.5 -25.5t-61 25.5t-25 61.5 zM506 654q0 -61 43 -104t104 -43t103 43q44 44 44 104h-1h1q0 60 -44 104q-43 43 -103 43t-104 -43q-43 -43 -43 -104zM838 1265q0 36 25.5 61.5t61.5 25.5t61 -25.5t25 -61.5t-25 -61t-61 -25t-61.5 25t-25.5 61z" />
<glyph unicode="&#xec;" horiz-adv-x="765" d="M194 1058q0 111 79 189q78 78 189 78t189 -78t78 -189t-78 -189q-54 -54 -129 -72v-619h-121v619q-75 18 -129 72q-78 78 -78 189zM214 1532v126l489 -188v-126zM315 1058q0 -61 43 -104t104 -43t103 43q44 44 44 104h-1h1q0 60 -44 103q-43 44 -103 44v-1v1 q-60 0 -104 -44q-43 -42 -43 -103z" />
<glyph unicode="&#xed;" horiz-adv-x="827" d="M297 985q0 101 72 173q72 71 174 71q100 0 173 -71q71 -73 71 -173q0 -102 -71 -174q-50 -50 -119 -66v-567h-111v567q-69 16 -118 66q-71 72 -71 174zM371 1389l364 181l53 -107l-363 -182zM408 985q0 -57 39 -96t96 -39q55 0 94 39q40 40 40 96h-1h1q0 54 -40 94 q-39 40 -94 40v-1v1q-56 0 -96 -40q-39 -39 -39 -94z" />
<glyph unicode="&#xee;" horiz-adv-x="758" d="M194 1058q0 111 79 189q78 78 189 78t189 -78t78 -189t-78 -189q-54 -54 -129 -72v-619h-121v619q-75 18 -129 72q-78 78 -78 189zM210 1505q0 100 70 170q71 70 169 70t170 -70q70 -72 70 -170t-70 -169l-76 75q39 39 39 94t-39 94t-94 39q-54 0 -93 -39t-39 -94t39 -94 l-76 -75q-70 70 -70 169zM315 1058q0 -61 43 -104t104 -43t103 43q44 44 44 104h-1h1q0 60 -44 103q-43 44 -103 44v-1v1q-60 0 -104 -44q-43 -42 -43 -103z" />
<glyph unicode="&#xef;" horiz-adv-x="869" d="M86 1434q0 35 25.5 60.5t61.5 25.5q35 0 60.5 -25.5t25.5 -60.5q0 -36 -25.5 -61.5t-60.5 -25.5q-36 0 -61.5 25.5t-25.5 61.5zM194 1058q0 111 79 189q78 78 189 78t189 -78t78 -189t-78 -189q-54 -54 -129 -72v-619h-121v619q-75 18 -129 72q-78 78 -78 189zM315 1058 q0 -61 43 -104t104 -43t103 43q44 44 44 104h-1h1q0 60 -44 103q-43 44 -103 44v-1v1q-60 0 -104 -44q-43 -42 -43 -103zM662 1433q0 36 25 61.5t61 25.5t61.5 -25.5t25.5 -61.5t-25.5 -61t-61.5 -25t-61 25t-25 61z" />
<glyph unicode="&#xf1;" horiz-adv-x="1500" d="M138 622q0 52 9 105q10 59 26 102q48 136 149 237q120 120 285 163q53 14 117 19q59 4 117 -3q215 -26 369 -179q184 -186 184 -444q0 -53 -9 -105t-27 -103q-48 -137 -148 -236l-86 85q82 82 121 191q13 39 21 83q7 37 7 85q0 209 -149 358q-123 124 -297 145 q-49 6 -95 3q-52 -5 -95 -16q-133 -35 -230 -132q-83 -83 -120 -190q-16 -48 -21 -83q-7 -40 -7 -85q0 -211 148 -359l-85 -85q-184 182 -184 444zM440 1498q0 80 57 137q57 56 136 56t137 -56q56 -58 56 -137q0 -46 33 -80q34 -33 80 -33t80 33q33 34 33 80q0 47 -33 80 q-34 33 -80 33v80q79 0 137 -56q56 -58 56 -137q0 -80 -56 -136q-57 -56 -137 -56v-1v1q-80 0 -137 56q-56 56 -56 136q0 47 -33 80q-34 33 -80 33t-79 -33t-33 -80q0 -46 33 -80q33 -33 79 -33v-80v1q-80 0 -136 56q-57 56 -57 136z" />
<glyph unicode="&#xf2;" horiz-adv-x="1374" d="M168 749q0 237 167 404q168 168 405 168q236 0 404 -168q167 -167 167 -404t-167 -404q-166 -166 -400 -167h-3h-1v-1v1h-3h-2q-235 1 -400 167q-167 167 -167 404zM289 749q0 -187 132 -319q4 -5 9 -9.5t10 -8.5q-9 36 -9 74q0 126 90 218q90 90 219 90q128 0 217 -90 q91 -91 91 -218q0 -31 -9 -74q4 4 9 8.5t10 9.5q132 132 132 319t-132 319t-318 132q-187 0 -319 -132t-132 -319zM310 1578v126l489 -188v-126zM552 486q0 -78 55 -133t133 -55q77 0 132 55t55 133q0 77 -55 132q-56 56 -132 56v-1v1q-77 0 -133 -56q-55 -55 -55 -132z" />
<glyph unicode="&#xf3;" horiz-adv-x="1415" d="M300 701q0 217 154 371q155 154 371 154q214 0 370 -154q153 -153 153 -371q0 -217 -153 -370t-366 -153h-2.5h-0.5h-1v-1v1h-2h-1h-1.5h-0.5q-213 0 -366 153q-154 154 -154 370zM412 701q0 -171 120 -292q2 -3 4 -5t5 -4q2 -3 4 -4.5t5 -3.5q-8 29 -8 68q0 116 82 200 q83 83 201 83q117 0 199 -83q83 -83 83 -200q0 -32 -8 -68l3.5 3.5l4.5 4.5q6 6 10 9q120 121 120 292t-120 293q-123 121 -292 121q-171 0 -293 -121q-120 -122 -120 -293zM653 460q0 -72 50 -122q51 -50 122 -50q69 0 121 50q50 50 50 122t-50 121q-52 52 -121 52v-1v1 q-70 0 -122 -52q-50 -49 -50 -121zM670 1333l363 182l54 -108l-363 -181z" />
<glyph unicode="&#xf4;" horiz-adv-x="1377" d="M168 749q0 237 167 404q168 168 405 168q236 0 404 -168q167 -167 167 -404t-167 -404q-166 -166 -400 -167h-3h-1v-1v1h-3h-2q-235 1 -400 167q-167 167 -167 404zM289 749q0 -187 132 -319q4 -5 9 -9.5t10 -8.5q-9 36 -9 74q0 126 90 218q90 90 219 90q128 0 217 -90 q91 -91 91 -218q0 -31 -9 -74q4 4 9 8.5t10 9.5q132 132 132 319t-132 319t-318 132q-187 0 -319 -132t-132 -319zM520 1505q0 100 70 170q71 70 169 70t170 -70q70 -72 70 -170t-70 -169l-76 75q39 39 39 94t-39 94t-94 39q-54 0 -93 -39t-39 -94t39 -94l-76 -75 q-70 70 -70 169zM552 486q0 -78 55 -133t133 -55q77 0 132 55t55 133q0 77 -55 132q-56 56 -132 56v-1v1q-77 0 -133 -56q-55 -55 -55 -132z" />
<glyph unicode="&#xf5;" horiz-adv-x="1374" d="M168 749q0 237 167 404q168 168 405 168q236 0 404 -168q167 -167 167 -404t-167 -404q-166 -166 -400 -167h-3h-1v-1v1h-3h-2q-235 1 -400 167q-167 167 -167 404zM289 749q0 -187 132 -319q4 -5 9 -9.5t10 -8.5q-9 36 -9 74q0 126 90 218q90 90 219 90q128 0 217 -90 q91 -91 91 -218q0 -31 -9 -74q4 4 9 8.5t10 9.5q132 132 132 319t-132 319t-318 132q-187 0 -319 -132t-132 -319zM368 1560q0 80 57 137q57 56 136 56t137 -56q56 -58 56 -137q0 -46 33 -80q34 -33 80 -33t80 33q33 34 33 80q0 47 -33 80q-34 33 -80 33v80q79 0 137 -56 q56 -58 56 -137q0 -80 -56 -136q-57 -56 -137 -56v-1v1q-80 0 -137 56q-56 56 -56 136q0 47 -33 80q-34 33 -80 33t-79 -33t-33 -80q0 -46 33 -80q33 -33 79 -33v-80v1q-80 0 -136 56q-57 56 -57 136zM552 486q0 -78 55 -133t133 -55q77 0 132 55t55 133q0 77 -55 132 q-56 56 -132 56v-1v1q-77 0 -133 -56q-55 -55 -55 -132z" />
<glyph unicode="&#xf6;" horiz-adv-x="1377" d="M168 749q0 237 167 404q168 168 405 168q236 0 404 -168q167 -167 167 -404t-167 -404q-166 -166 -400 -167h-3h-1v-1v1h-3h-2q-235 1 -400 167q-167 167 -167 404zM289 749q0 -187 132 -319q4 -5 9 -9.5t10 -8.5q-9 36 -9 74q0 126 90 218q90 90 219 90q128 0 217 -90 q91 -91 91 -218q0 -31 -9 -74q4 4 9 8.5t10 9.5q132 132 132 319t-132 319t-318 132q-187 0 -319 -132t-132 -319zM335 1473q0 35 25 60.5t61 25.5t61.5 -25.5t25.5 -60.5q0 -36 -25.5 -61.5t-61.5 -25.5t-61 25.5t-25 61.5zM552 486q0 -78 55 -133t133 -55q77 0 132 55 t55 133q0 77 -55 132q-56 56 -132 56v-1v1q-77 0 -133 -56q-55 -55 -55 -132zM910 1472q0 36 25.5 61.5t61.5 25.5t61 -25.5t25 -61.5t-25 -61t-61 -25t-61.5 25t-25.5 61z" />
<glyph unicode="&#xf9;" horiz-adv-x="1293" d="M137.5 817q26.5 154 137.5 273l89 -82q-87 -93 -107.5 -213t22.5 -229q15 -41 43 -82q28 -42 62 -72q92 -87 212 -107.5t230 22.5q43 17 81 43q44 30 73 62q85 92 106 211.5t-21 229.5q-15 38 -43 82q-29 40 -62 73h-1l57 60l26 28q47 -45 80 -93q34 -51 55 -105 q55 -142 28 -296.5t-137 -271.5q-41 -46 -93 -80q-51 -34 -105 -55q-141 -56 -295.5 -29.5t-272.5 137.5v1q-41 37 -80 93q-36 52 -55 105q-56 141 -29.5 295zM353 683q-4 137 89 237q94 100 232 105q136 4 237 -88v-1q100 -93 105 -231q4 -136 -89 -237q-95 -101 -231 -105 q-138 -5 -237 89q-102 93 -106 231zM409 1391v126l489 -188v-126zM474 687q3 -88 67 -147q63 -61 151 -57q86 3 146 67h1q59 65 56 152q-2 84 -66 146h-1q-64 60 -151 57q-87 -4 -146 -67q-61 -65 -57 -151z" />
<glyph unicode="&#xfa;" horiz-adv-x="1349" d="M282 762q25 140 126 250l82 -75q-80 -86 -99 -195q-18 -110 21 -210q13 -38 39 -75q27 -39 57 -66q85 -80 195 -99q109 -18 210 21q37 13 75 39q42 30 67 57q77 83 97 194q19 107 -19 210q-16 38 -40 75q-26 35 -57 67h-1l53 55l23 26q42 -41 74 -85q29 -44 50 -97 q50 -128 26 -271q-24 -141 -126 -249q-41 -45 -85 -73q-47 -32 -96 -51q-131 -51 -271 -27q-142 23 -250 126v1q-38 34 -73 85q-34 48 -51 97q-51 129 -27 270zM480 639q-5 124 82 217q83 90 212 97q125 3 217 -81v-1q92 -87 97 -212q3 -125 -82 -217q-89 -94 -212 -96 q-126 -5 -217 81q-95 86 -97 212zM591 643q3 -82 61 -135q59 -57 139 -52q79 3 133 61h1q54 61 52 140q-4 78 -61 133h-1q-58 54 -138 53q-82 -5 -134 -62q-57 -60 -52 -138zM603 1124l363 181l54 -107l-363 -182z" />
<glyph unicode="&#xfb;" horiz-adv-x="1297" d="M137.5 817q26.5 154 137.5 273l89 -82q-87 -93 -107.5 -213t22.5 -229q15 -41 43 -82q28 -42 62 -72q92 -87 212 -107.5t230 22.5q43 17 81 43q44 30 73 62q85 92 106 211.5t-21 229.5q-15 38 -43 82q-29 40 -62 73h-1l57 60l26 28q47 -45 80 -93q34 -51 55 -105 q55 -142 28 -296.5t-137 -271.5q-41 -46 -93 -80q-51 -34 -105 -55q-141 -56 -295.5 -29.5t-272.5 137.5v1q-41 37 -80 93q-36 52 -55 105q-56 141 -29.5 295zM353 683q-4 137 89 237q94 100 232 105q136 4 237 -88v-1q100 -93 105 -231q4 -136 -89 -237q-95 -101 -231 -105 q-138 -5 -237 89q-102 93 -106 231zM432 1279q0 100 70 170q71 70 169 70t170 -70q70 -72 70 -170t-70 -169l-76 75q39 39 39 94t-39 94t-94 39q-54 0 -93 -39t-39 -94t39 -94l-76 -75q-70 70 -70 169zM474 687q3 -88 67 -147q63 -61 151 -57q86 3 146 67h1q59 65 56 152 q-2 84 -66 146h-1q-64 60 -151 57q-87 -4 -146 -67q-61 -65 -57 -151z" />
<glyph unicode="&#xfc;" horiz-adv-x="1297" d="M137.5 817q26.5 154 137.5 273l89 -82q-87 -93 -107.5 -213t22.5 -229q15 -41 43 -82q28 -42 62 -72q92 -87 212 -107.5t230 22.5q43 17 81 43q44 30 73 62q85 92 106 211.5t-21 229.5q-15 38 -43 82q-29 40 -62 73h-1l57 60l26 28q47 -45 80 -93q34 -51 55 -105 q55 -142 28 -296.5t-137 -271.5q-41 -46 -93 -80q-51 -34 -105 -55q-141 -56 -295.5 -29.5t-272.5 137.5v1q-41 37 -80 93q-36 52 -55 105q-56 141 -29.5 295zM287 1347q0 35 25 60.5t61 25.5t61.5 -25.5t25.5 -60.5q0 -36 -25.5 -61.5t-61.5 -25.5t-61 25.5t-25 61.5z M353 683q-4 137 89 237q94 100 232 105q136 4 237 -88v-1q100 -93 105 -231q4 -136 -89 -237q-95 -101 -231 -105q-138 -5 -237 89q-102 93 -106 231zM474 687q3 -88 67 -147q63 -61 151 -57q86 3 146 67h1q59 65 56 152q-2 84 -66 146h-1q-64 60 -151 57q-87 -4 -146 -67 q-61 -65 -57 -151zM862 1346q0 36 25.5 61.5t61.5 25.5t61 -25.5t25 -61.5t-25 -61t-61 -25t-61.5 25t-25.5 61z" />
<glyph unicode="&#xfd;" horiz-adv-x="1190" d="M169 1099q7 67 34 129q36 87 104 156l86 -85q-51 -51 -79 -117q-21 -50 -25 -98q-8 -47 1 -100q19 -119 103 -202q50 -51 117 -79q47 -21 97 -26q48 -6 101 2q116 17 202 103q58 58 87 137q9 28 15 60q5 33 5 61q0 150 -107 259l85 85q143 -143 143 -344q0 -44 -7 -81 q-9 -47 -21 -80q-36 -104 -115 -183q-113 -113 -269 -136q-10 -2 -14 -2v-380h-121v380q-67 7 -128 34q-89 36 -156 104q-113 112 -136 270q-11 68 -2 133zM470 1529l363 181l54 -107l-364 -182z" />
<glyph unicode="&#xff;" horiz-adv-x="1194" d="M169 1099q7 67 34 129q36 87 104 156l86 -85q-51 -51 -79 -117q-21 -50 -25 -98q-8 -47 1 -100q19 -119 103 -202q50 -51 117 -79q47 -21 97 -26q48 -6 101 2q116 17 202 103q58 58 87 137q9 28 15 60q5 33 5 61q0 150 -107 259l85 85q143 -143 143 -344q0 -44 -7 -81 q-9 -47 -21 -80q-36 -104 -115 -183q-113 -113 -269 -136q-10 -2 -14 -2v-380h-121v380q-67 7 -128 34q-89 36 -156 104q-113 112 -136 270q-11 68 -2 133zM279 1568q0 35 25 60.5t61 25.5t61.5 -25.5t25.5 -60.5q0 -36 -25.5 -61.5t-61.5 -25.5t-61 25.5t-25 61.5z M854 1567q0 36 25.5 61.5t61.5 25.5t61 -25.5t25 -61.5t-25 -61t-61 -25t-61.5 25t-25.5 61z" />
<glyph unicode="&#x2000;" horiz-adv-x="903" />
<glyph unicode="&#x2001;" horiz-adv-x="1807" />
<glyph unicode="&#x2002;" horiz-adv-x="903" />
<glyph unicode="&#x2003;" horiz-adv-x="1807" />
<glyph unicode="&#x2004;" horiz-adv-x="602" />
<glyph unicode="&#x2005;" horiz-adv-x="451" />
<glyph unicode="&#x2006;" horiz-adv-x="301" />
<glyph unicode="&#x2007;" horiz-adv-x="301" />
<glyph unicode="&#x2008;" horiz-adv-x="225" />
<glyph unicode="&#x2009;" horiz-adv-x="361" />
<glyph unicode="&#x200a;" horiz-adv-x="100" />
<glyph unicode="&#x2010;" d="M223 634v121h671v-121h-671z" />
<glyph unicode="&#x2011;" d="M223 634v121h671v-121h-671z" />
<glyph unicode="&#x2012;" d="M223 634v121h671v-121h-671z" />
<glyph unicode="&#x2013;" horiz-adv-x="1291" d="M223 634v121h1024v-121h-1024z" />
<glyph unicode="&#x2014;" horiz-adv-x="2315" d="M223 634v121h2048v-121h-2048z" />
<glyph unicode="&#x202f;" horiz-adv-x="361" />
<glyph unicode="&#x205f;" horiz-adv-x="451" />
<glyph unicode="&#x25fc;" horiz-adv-x="1185" d="M0 0v1185h1185v-1185h-1185z" />
</font>
</defs>
</svg>
