<?xml version="1.0" standalone="no"?>
<!DOCTYPE svg PUBLIC "-//W3C//DTD SVG 1.1//EN" "http://www.w3.org/Graphics/SVG/1.1/DTD/svg11.dtd" >
<svg xmlns="http://www.w3.org/2000/svg" xmlns:xlink="http://www.w3.org/1999/xlink" version="1.1">
<metadata></metadata>
<defs>
<font id="hacker_argotregular" horiz-adv-x="1212" >
<font-face units-per-em="2048" ascent="1638" descent="-410" />
<missing-glyph horiz-adv-x="901" />
<glyph horiz-adv-x="0" />
<glyph unicode="&#xd;" horiz-adv-x="901" />
<glyph unicode=" "  horiz-adv-x="901" />
<glyph unicode="&#x09;" horiz-adv-x="901" />
<glyph unicode="&#xa0;" horiz-adv-x="901" />
<glyph unicode="!" horiz-adv-x="606" d="M139 143q0 66 48.5 113t115.5 47q68 0 116 -45t48 -111t-48 -112.5t-116 -46.5q-66 0 -115 44.5t-49 110.5zM180 455v995h246v-995h-246z" />
<glyph unicode="&#x22;" horiz-adv-x="1062" d="M246 909v541h209v-541h-209zM608 909v541h209v-541h-209z" />
<glyph unicode="#" d="M96 428v172h207l37 250h-184v172h206l62 428h180l-61 -428h211l61 428h178l-61 -428h184v-172h-209l-35 -250h185v-172h-205l-64 -428h-178l62 428h-213l-62 -428h-178l62 428h-185zM483 600h211l35 250h-211z" />
<glyph unicode="$" d="M63 426q0 -195 138 -315q127 -113 331 -134v-147h111v145q301 -4 477 183l-186 190q-94 -133 -291 -151v432l10 2q432 86 432 420q0 174 -135 295q-125 109 -307 127v137h-111v-135h-18q-242 0 -401 -142l170 -190q104 111 249 110v-409l-8 -2q-219 -55 -317 -125 q-143 -102 -144 -291zM322 408q0 80 69 127q37 26 141 61v-399q-211 43 -210 211zM643 874v375q78 -12 129 -59q55 -53 55 -127q0 -82 -55 -125q-20 -17 -129 -64z" />
<glyph unicode="%" horiz-adv-x="1857" d="M61 1094q0 158 112 269.5t269 111.5q158 0 269.5 -112t111.5 -269q0 -158 -111.5 -269.5t-269.5 -111.5t-269.5 111.5t-111.5 269.5zM258 1094q0 -76 54.5 -130.5t129.5 -54.5q78 0 131.5 54.5t53.5 130.5q0 78 -53.5 131t-131.5 53q-76 0 -130 -53.5t-54 -130.5zM420 12 l852 1504l170 -78l-852 -1504zM1034 356q0 158 111.5 269.5t269.5 111.5t269.5 -111.5t111.5 -269.5t-111.5 -269.5t-269.5 -111.5t-269.5 111.5t-111.5 269.5zM1231 356q0 -76 54 -130t130 -54q78 0 131 54t53 130q0 78 -53 131.5t-131 53.5q-76 0 -130 -53.5t-54 -131.5z " />
<glyph unicode="&#x26;" horiz-adv-x="1517" d="M98 389q0 139 92 252q84 102 222 156q-86 94 -117 151q-49 86 -49 182q0 170 125 269q115 88 291 88t286 -82q123 -94 123 -262q0 -225 -289 -375l234 -252l162 246h288l-290 -420l313 -342h-318l-153 166q-172 -203 -428 -203q-203 0 -342 109q-150 119 -150 317z M369 403q0 -94 67.5 -156.5t161.5 -62.5q119 1 266 144l-297 323q-96 -57 -135 -98q-63 -66 -63 -150zM492 1120q0 -82 137 -211q197 106 196 221q0 57 -45.5 96.5t-113.5 39.5q-72 0 -123 -41t-51 -105z" />
<glyph unicode="'" horiz-adv-x="606" d="M199 909v541h209v-541h-209z" />
<glyph unicode="(" horiz-adv-x="606" d="M98 590q0 495 299 909l174 -106l-2 -9q-262 -365 -262 -794q0 -432 262 -797l-172 -112q-299 414 -299 909z" />
<glyph unicode=")" horiz-adv-x="606" d="M35 -213l2 8q262 365 262 795t-262 794l172 115q299 -414 299 -909t-299 -909z" />
<glyph unicode="*" horiz-adv-x="948" d="M57 1092l54 163l278 -96v291h172v-291l277 90l53 -164l-279 -90l176 -239l-141 -103l-176 242l-172 -236l-137 105l176 231z" />
<glyph unicode="+" horiz-adv-x="1363" d="M127 516v209h451v451h208v-451h451v-209h-451v-450h-208v450h-451z" />
<glyph unicode="," horiz-adv-x="606" d="M78 -258l143 541h250l-174 -541h-219z" />
<glyph unicode="-" horiz-adv-x="645" d="M70 399v209h505v-209h-505z" />
<glyph unicode="." horiz-adv-x="606" d="M139 143q0 66 48.5 113t115.5 47q68 0 116 -45t48 -111t-48 -112.5t-116 -46.5q-66 0 -115 44.5t-49 110.5z" />
<glyph unicode="/" horiz-adv-x="796" d="M-18 -37l639 1589l170 -65l-639 -1585z" />
<glyph unicode="0" d="M82 725q0 446 201 633q129 117 323 117q195 0 324 -117q201 -186 200 -633q0 -446 -200 -633q-129 -117 -324 -117t-323 117q-201 187 -201 633zM328 725q0 -197 47 -326q70 -190 231 -190q162 0 232 190q47 129 47 326t-47 326q-70 190 -232 190t-231 -190 q-47 -129 -47 -326z" />
<glyph unicode="1" d="M133 1085l438 365h224v-1450h-246v1167l-273 -252z" />
<glyph unicode="2" d="M121 0v260l563 545q150 145 150 246q0 86 -61.5 138t-149.5 52q-90 0 -150.5 -53t-73.5 -144l-258 21q18 197 152 305q127 104 330 105q207 0 331 -101q137 -111 138 -311q0 -219 -224 -426l-448 -416h672v-221h-971z" />
<glyph unicode="3" d="M94 315l262 70q49 -188 236 -188q100 0 172 64.5t72 162.5q0 221 -322 221h-59v221h63q131 0 193 31q90 47 90 166q0 84 -58.5 137t-148.5 53q-162 0 -217 -159l-260 69q45 156 176 236q121 76 289 76q199 0 325 -99q139 -104 140 -289q0 -119 -67 -209t-181 -118v-4 q135 -18 208.5 -115.5t73.5 -237.5q0 -199 -147 -317q-137 -111 -342 -111q-408 0 -498 340z" />
<glyph unicode="4" d="M70 295v244l583 911h279v-934h211v-221h-211v-295h-246v295h-616zM319 516h367v586h-4z" />
<glyph unicode="5" d="M90 307l258 70q53 -168 238 -168q111 0 181.5 70.5t70.5 177.5q0 143 -103 217q-90 63 -237 63q-164 0 -303 -69l14 782h825v-221h-583l-7 -289q59 18 156 18q215 0 349 -132t134 -349q0 -229 -148.5 -365.5t-375.5 -136.5q-369 0 -469 332z" />
<glyph unicode="6" d="M90 469q0 184 135 397l371 584h299l-348 -537l4 -4q43 25 135 25q188 0 312 -135t124 -328q0 -223 -145.5 -359.5t-370.5 -136.5q-231 0 -370 131q-145 135 -146 363zM348 473q0 -109 78 -186.5t186 -77.5q109 0 187 78t78 186q0 109 -78 186.5t-187 77.5t-186.5 -77.5 t-77.5 -186.5z" />
<glyph unicode="7" d="M86 1217v233h985v-225l-579 -1225h-289l592 1217h-709z" />
<glyph unicode="8" d="M117 412q0 129 78.5 229t185.5 123v4q-106 31 -162.5 119t-56.5 207q0 176 131 282q123 99 313 99t316 -99q129 -106 129 -282q0 -119 -56.5 -207t-163.5 -119v-4q109 -23 187 -123t78 -229q0 -207 -144 -326q-133 -111 -346 -111t-346 111q-143 119 -143 326zM362 442 q0 -102 69 -167.5t175 -65.5t175 65.5t69 167.5q0 98 -71 163t-173 65t-173 -64.5t-71 -163.5zM408 1069q0 -88 54 -145.5t144 -57.5q82 0 140.5 58.5t58.5 144.5q0 82 -57.5 139.5t-141.5 57.5q-90 0 -144 -56.5t-54 -140.5z" />
<glyph unicode="9" d="M90 979q0 223 145.5 359.5t370.5 136.5q231 0 373.5 -133.5t142.5 -360.5q0 -184 -135 -397l-371 -584h-299l349 537l-4 4q-43 -25 -136 -25q-188 0 -312 135t-124 328zM336 977q0 -109 78 -186.5t186 -77.5q109 0 186.5 77.5t77.5 186.5t-77.5 186.5t-186.5 77.5 t-186.5 -78t-77.5 -186z" />
<glyph unicode=":" horiz-adv-x="606" d="M139 143q0 66 48.5 113t115.5 47q68 0 116 -45t48 -111t-48 -112.5t-116 -46.5q-66 0 -115 44.5t-49 110.5zM139 838q0 66 48.5 112.5t115.5 46.5q68 0 116 -45t48 -110q0 -66 -48 -113t-116 -47q-66 0 -115 45t-49 111z" />
<glyph unicode=";" horiz-adv-x="606" d="M78 -258l143 541h250l-174 -541h-219zM139 838q0 66 48.5 112.5t115.5 46.5q68 0 116 -45t48 -110q0 -66 -48 -113t-116 -47q-66 0 -115 45t-49 111z" />
<glyph unicode="&#x3c;" horiz-adv-x="1363" d="M164 547v147l1036 461v-225l-692 -309l692 -310v-225z" />
<glyph unicode="=" horiz-adv-x="1363" d="M127 332v209h1110v-209h-1110zM127 700v209h1110v-209h-1110z" />
<glyph unicode="&#x3e;" horiz-adv-x="1363" d="M164 86v225l692 310l-692 309v225l1036 -461v-147z" />
<glyph unicode="?" horiz-adv-x="1062" d="M98 1073q23 193 152 303.5t325 110.5q188 0 308 -103q125 -109 125 -297q0 -119 -68 -213q-33 -49 -156 -163q-68 -63 -82 -90q-27 -41 -26 -115v-78h-246v113q0 86 25 133q16 37 86 106l157 160q51 51 52 133q0 80 -52.5 130t-132.5 50q-84 0 -140 -57t-65 -143z M389 143q0 66 48 113t116 47t116 -45t48 -111t-48 -112.5t-116 -46.5q-66 0 -115 44.5t-49 110.5z" />
<glyph unicode="@" horiz-adv-x="1638" d="M66 723q0 326 228 545t554 219q291 0 498 -174q227 -190 227 -500q0 -283 -180 -414q-121 -86 -275 -86q-158 0 -162 111h-4q-106 -111 -262 -111q-131 0 -213 96.5t-82 247.5q0 188 111 320q115 141 299 141q164 0 221 -117h4l17 93h192l-76 -404q-18 -98 -18 -117 q0 -76 55 -75q72 0 121 73q55 82 55 232q0 240 -149 373q-143 127 -385 127q-254 0 -411 -163t-157 -417q0 -264 172 -422q166 -154 431 -154q229 0 387 125h225q-109 -150 -273.5 -229.5t-355.5 -79.5q-332 0 -563 216t-231 544zM604 686q0 -188 170 -188q106 0 158 82 q41 66 41 165q0 189 -152 189q-100 0 -158.5 -71.5t-58.5 -176.5z" />
<glyph unicode="A" horiz-adv-x="1386" d="M14 0h297l396 1096l407 -1096h279l-586 1450h-223z" />
<glyph unicode="B" horiz-adv-x="1277" d="M115 0v223h501q322 0 322 215q0 113 -75 160t-236 47h-512v225h499q262 0 263 185q0 188 -285 188h-477v223h573q186 0 307 -84q141 -98 142 -284q0 -244 -254 -322v-4q139 -16 228 -114.5t89 -239.5q0 -221 -174 -330q-145 -88 -383 -88h-528z" />
<glyph unicode="C" horiz-adv-x="1402" d="M84 719q0 346 214 557t552 211q309 -1 508 -230l-201 -147q-135 143 -305 143q-221 0 -359.5 -148.5t-138.5 -369.5q0 -236 138.5 -387t359.5 -151q188 0 326 176l213 -152q-188 -258 -541 -258q-338 0 -552 209t-214 547z" />
<glyph unicode="D" horiz-adv-x="1470" d="M94 0v238h459q266 0 422 114q176 131 176 385q0 256 -158 385q-141 115 -397 115h-502v238h582q313 0 520 -181q229 -203 229 -557q0 -350 -258 -557q-223 -180 -522 -180h-551z" />
<glyph unicode="E" horiz-adv-x="1175" d="M94 403q0 -199 148 -317q137 -111 342 -111q408 0 497 340l-262 70q-49 -188 -235 -188q-100 0 -172 64.5t-72 162.5q0 221 322 221h59v221h-64q-131 0 -192 31q-90 47 -90 166q0 84 58.5 137t148.5 53q162 0 217 -159l260 69q-45 156 -176 236q-121 76 -289 76 q-199 0 -326 -99q-139 -104 -139 -289q0 -119 66.5 -209t181.5 -118v-4q-135 -18 -209 -115.5t-74 -237.5z" />
<glyph unicode="F" horiz-adv-x="1175" d="M162 0v1450h936v-233h-678v-381h639v-234h-639v-602h-258z" />
<glyph unicode="G" horiz-adv-x="1593" d="M84 719q0 346 214 557t552 211q367 0 571 -182l-190 -193q-145 141 -379 141q-221 0 -359.5 -148.5t-138.5 -369.5q0 -236 138.5 -387t359.5 -151q207 0 340 75v342h-297v234h555v-742q-268 -143 -600 -143q-338 0 -552 209t-214 547z" />
<glyph unicode="H" horiz-adv-x="1517" d="M162 0v1450h258v-578h678v578h258v-1450h-258v639h-678v-639h-258z" />
<glyph unicode="I" horiz-adv-x="569" d="M156 0v1450h258v-1450h-258z" />
<glyph unicode="J" horiz-adv-x="1024" d="M10 297l242 57q12 -72 58 -114.5t114 -42.5q190 0 190 280v973h258v-1049q0 -184 -108 -305q-121 -133 -328 -133q-360 0 -426 334z" />
<glyph unicode="K" horiz-adv-x="1402" d="M162 0v1450h258v-614h12l600 614h348l-678 -670l723 -780h-362l-629 713h-14v-713h-258z" />
<glyph unicode="L" horiz-adv-x="983" d="M49 401q0 -184 109 -305q119 -133 327 -133q360 0 426 334l-241 57q-12 -72 -59.5 -114.5t-112.5 -42.5q-190 0 -191 280v973h-258v-1049z" />
<glyph unicode="M" horiz-adv-x="1896" d="M168 0v1450h393l387 -1016l391 1016h390v-1450h-246v1204h-4l-441 -1204h-180l-440 1204h-4v-1204h-246z" />
<glyph unicode="N" horiz-adv-x="1630" d="M162 0h327l717 1112h4v-1112h258v1450h-342l-706 -1081h4l-4 4v1077h-258v-1450z" />
<glyph unicode="O" horiz-adv-x="1705" d="M84 719q0 346 214 556t552 212h8q267 0 463 -133l178 192l100 -88l-176 -192q199 -209 199 -539q0 -338 -215 -549t-557 -215h-14q-270 0 -469 152l-174 -189l-103 88l178 193q-184 207 -184 512zM354 735q1 -189 95 -332l696 758q-127 92 -293 92q-221 0 -359.5 -148.5 t-138.5 -369.5zM541 303q133 -106 311 -106q223 0 361.5 151.5t138.5 386.5q0 199 -111 332z" />
<glyph unicode="P" horiz-adv-x="1148" d="M78 0v836h422q156 0 227 28q115 47 115 178q0 207 -314 207h-450v226h495q545 0 545 -426q0 -256 -178 -359q-137 -80 -412 -80h-188v-610h-262z" />
<glyph unicode="Q" horiz-adv-x="1705" d="M84 727q0 -338 215 -549t557 -215h14q270 0 469 152l174 -189l103 88l-178 193q184 207 184 512q0 346 -214 556t-552 212h-8q-267 0 -463 -133l-178 192l-101 -88l177 -192q-199 -209 -199 -539zM354 735q0 199 111 332l700 -764q-133 -106 -311 -106 q-223 0 -361.5 151.5t-138.5 386.5zM561 1161q127 92 293 92q221 0 359.5 -148.5t138.5 -369.5q-1 -189 -95 -332z" />
<glyph unicode="R" horiz-adv-x="1222" d="M88 -4v842h463q145 0 213 28q104 47 104 172q0 195 -295 195h-485v223h508q545 0 545 -420q0 -160 -89 -266t-251 -129l389 -645h-313l-338 618h-191v-618h-260z" />
<glyph unicode="S" d="M90 307l258 70q53 -168 238 -168q111 0 181.5 70.5t70.5 177.5q0 143 -103 217q-90 63 -237 63q-164 0 -303 -69l14 782h825v-221h-583l-7 -289q59 18 156 18q215 0 349 -132t134 -349q0 -229 -148.5 -365.5t-375.5 -136.5q-369 0 -469 332z" />
<glyph unicode="T" horiz-adv-x="1175" d="M14 1217v233h1147v-233h-444v-1217h-258v1217h-445z" />
<glyph unicode="U" horiz-adv-x="1478" d="M156 532v918h258v-909q0 -129 69 -219q88 -113 256 -113t256 113q70 90 70 219v909h258v-918q0 -258 -165 -413.5t-419 -155.5t-415 154q-168 158 -168 415z" />
<glyph unicode="V" horiz-adv-x="1366" d="M-6 1450h297l395 -1096l408 1096h278l-586 -1450h-223z" />
<glyph unicode="W" horiz-adv-x="1896" d="M168 0h393l387 1016l391 -1016h390v1450h-246v-1204h-4l-441 1204h-180l-440 -1204h-4v1204h-246v-1450z" />
<glyph unicode="X" horiz-adv-x="1402" d="M0 0l516 758l-483 692h325l342 -537l338 537h314l-475 -692l526 -758h-328l-383 612l-381 -612h-311z" />
<glyph unicode="Y" horiz-adv-x="1290" d="M-29 1450h324l356 -578l361 578h307l-545 -829v-621h-258v621z" />
<glyph unicode="Z" d="M121 412q0 219 223 426l449 415h-672v222h971v-261l-564 -544q-149 -144 -149 -245q0 -87 61.5 -139.5t149.5 -52.5q90 0 150.5 53.5t72.5 143.5l258 -20q-18 -197 -148 -303.5t-333 -106.5q-207 0 -332 102q-137 109 -137 310z" />
<glyph unicode="[" horiz-adv-x="569" d="M135 -319v1818h393v-160h-184v-1499h184v-159h-393z" />
<glyph unicode="\" horiz-adv-x="796" d="M6 1487l170 65l639 -1589l-170 -61z" />
<glyph unicode="]" horiz-adv-x="569" d="M41 -160h184v1499h-184v160h393v-1818h-393v159z" />
<glyph unicode="^" horiz-adv-x="1363" d="M141 702l457 748h168l457 -748h-242l-301 490l-297 -490h-242z" />
<glyph unicode="_" horiz-adv-x="1024" d="M0 -154h1024v-102h-1024v102z" />
<glyph unicode="`" horiz-adv-x="532" d="M-119 1450h279l202 -295h-192z" />
<glyph unicode="a" horiz-adv-x="1386" d="M14 0h297l396 1096l407 -1096h279l-586 1450h-223z" />
<glyph unicode="b" horiz-adv-x="1327" d="M162 0v1450h565q184 0 305 -84q139 -96 139 -281q0 -242 -251 -317v-4q137 -16 225 -113.5t88 -236.5q0 -219 -172 -326q-141 -88 -377 -88h-522zM420 221h237q317 0 318 213q0 111 -74 158t-233 47h-248v-418zM420 860h235q258 0 258 182q0 186 -280 187h-213v-369z" />
<glyph unicode="c" horiz-adv-x="1402" d="M84 719q0 346 214 557t552 211q309 -1 508 -230l-201 -147q-135 143 -305 143q-221 0 -359.5 -148.5t-138.5 -369.5q0 -236 138.5 -387t359.5 -151q188 0 326 176l213 -152q-188 -258 -541 -258q-338 0 -552 209t-214 547z" />
<glyph unicode="d" horiz-adv-x="1554" d="M162 0v1450h571q307 0 512 -178q225 -199 225 -547q0 -344 -253 -549q-219 -176 -515 -176h-540zM420 233h192q262 0 416 115q172 127 172 377q0 252 -153 379q-139 113 -392 113h-235v-984z" />
<glyph unicode="e" horiz-adv-x="1175" d="M94 403q0 -199 148 -317q137 -111 342 -111q408 0 497 340l-262 70q-49 -188 -235 -188q-100 0 -172 64.5t-72 162.5q0 221 322 221h59v221h-64q-131 0 -192 31q-90 47 -90 166q0 84 58.5 137t148.5 53q162 0 217 -159l260 69q-45 156 -176 236q-121 76 -289 76 q-199 0 -326 -99q-139 -104 -139 -289q0 -119 66.5 -209t181.5 -118v-4q-135 -18 -209 -115.5t-74 -237.5z" />
<glyph unicode="f" d="M135 0v197h209v448h-209v172h209v205q0 176 111 303q131 150 364 150q246 0 391 -132l-166 -178q-94 88 -217 88q-109 0 -173 -74.5t-64 -177.5v-184h332v-172h-332v-448h518v-197h-973z" />
<glyph unicode="g" horiz-adv-x="1699" d="M86 750q0 342 236 561q227 213 569 213q369 0 604 -271l-223 -168q-172 197 -420 197q-178 0 -299 -111q-127 -115 -150 -319h1178v-74q0 -383 -192 -596q-185 -207 -498 -207q-342 0 -569 213q-236 219 -236 562zM401 629q27 -205 139.5 -317.5t297.5 -112.5 q195 0 307 112.5t117 317.5h-861z" />
<glyph unicode="h" horiz-adv-x="1292" d="M109 0v1450h278v-487q86 38 147 38h3q150 0 232.5 -26.5t150.5 -95.5v98h264v-977h-279v514q0 113 -67 182q-74 82 -220 82q-145 0 -198 -102q-33 -61 -33 -182v-494h-278z" />
<glyph unicode="i" horiz-adv-x="606" d="M139 1294q0 -66 48.5 -112.5t115.5 -46.5q68 0 116 45t48 110q0 66 -48 113t-116 47q-66 0 -115 -45t-49 -111zM180 -12h246v995h-246v-995z" />
<glyph unicode="j" horiz-adv-x="1062" d="M98 401q23 -193 152 -303t325 -110q188 0 310.5 105.5t122.5 293.5q0 119 -68 213q-33 49 -156 164q-41 37 -79 72q-25 29 -25 98v57h-246v-92q0 -82 23 -117q4 -6 84 -88l157 -159q51 -51 52 -134q0 -80 -52.5 -130t-132.5 -50q-84 0 -140 57.5t-65 143.5zM393 1298 q0 -66 48 -112.5t116 -46.5t116 45t48 110q0 66 -48 113t-116 47q-66 0 -115 -45t-49 -111z" />
<glyph unicode="k" horiz-adv-x="1402" d="M162 0v1450h258v-614h12l600 614h348l-678 -670l723 -780h-362l-629 713h-14v-713h-258z" />
<glyph unicode="l" horiz-adv-x="1105" d="M162 0v1450h258v-1217h616v-233h-874z" />
<glyph unicode="m" horiz-adv-x="1896" d="M168 0v1450h393l387 -1016l391 1016h390v-1450h-246v1204h-4l-441 -1204h-180l-440 1204h-4v-1204h-246z" />
<glyph unicode="n" horiz-adv-x="1478" d="M160 0h258v868q0 129 69 219q88 113 256 113t256 -113q70 -90 70 -219v-868h258v877q0 258 -165 413.5t-419 155.5t-415 -154q-168 -158 -168 -415v-877z" />
<glyph unicode="o" horiz-adv-x="1705" d="M84 719q0 346 214 556t552 212h8q267 0 463 -133l178 192l100 -88l-176 -192q199 -209 199 -539q0 -338 -215 -549t-557 -215h-14q-270 0 -469 152l-174 -189l-103 88l178 193q-184 207 -184 512zM354 735q1 -189 95 -332l696 758q-127 92 -293 92q-221 0 -359.5 -148.5 t-138.5 -369.5zM541 303q133 -106 311 -106q223 0 361.5 151.5t138.5 386.5q0 199 -111 332z" />
<glyph unicode="p" horiz-adv-x="1251" d="M162 0v1450h487q535 0 535 -420q0 -250 -174 -352q-135 -78 -406 -78h-184v-600h-258zM420 821h155q154 0 226 29q112 45 112 174q0 205 -309 205h-184v-408z" />
<glyph unicode="q" d="M90 981q0 -184 135 -397l371 -584h299l-348 537l4 4q43 -25 135 -25q188 0 312 135t124 328q0 223 -145.5 359.5t-370.5 136.5q-231 0 -370 -132q-145 -135 -146 -362zM348 977q0 109 78 186.5t186 77.5q109 0 187 -78t78 -186q0 -109 -78 -186.5t-187 -77.5t-186.5 77.5 t-77.5 186.5z" />
<glyph unicode="r" horiz-adv-x="1290" d="M162 0v1450h504q540 0 540 -414q0 -162 -88 -267t-248 -128l385 -641h-311l-336 614h-188v-614h-258zM420 836h201q145 0 213 30q102 45 102 170q0 193 -293 193h-223v-393z" />
<glyph unicode="s" horiz-adv-x="1175" d="M63 160l195 188q99 -151 285 -151h2q98 0 172 49q82 55 82 149q0 127 -178 195q-326 125 -332 129q-178 109 -178 330q0 211 165 331q150 106 369 107q258 0 416 -150l-189 -198q-81 114 -251 114h-3q-98 0 -163 -43q-74 -49 -74 -143q0 -115 178 -180q303 -113 332 -129 q178 -111 178 -332q0 -223 -158 -348q-145 -115 -372 -115q-309 0 -476 197z" />
<glyph unicode="t" horiz-adv-x="1642" d="M92 612v262h598v578h262v-578h598v-262h-598v-618h-262v618h-598z" />
<glyph unicode="u" horiz-adv-x="1478" d="M156 532v918h258v-909q0 -129 69 -219q88 -113 256 -113t256 113q70 90 70 219v909h258v-918q0 -258 -165 -413.5t-419 -155.5t-415 154q-168 158 -168 415z" />
<glyph unicode="v" horiz-adv-x="1366" d="M-6 1450h297l395 -1096l408 1096h278l-586 -1450h-223z" />
<glyph unicode="w" horiz-adv-x="2066" d="M141 1446h248l2 -897q0 -336 242 -336q141 0 215 119q61 98 61 250v864h248l2 -936q0 -297 223 -297q150 0 228 113q68 96 67 249l-2 871h250v-1444h-233v207h-43q-100 -242 -346 -242q-262 0 -367 279q-76 -152 -169 -215.5t-222 -63.5q-401 0 -402 543z" />
<glyph unicode="x" horiz-adv-x="1402" d="M0 0l516 758l-483 692h325l342 -537l338 537h314l-475 -692l526 -758h-328l-383 612l-381 -612h-311z" />
<glyph unicode="y" horiz-adv-x="1175" d="M145 918v528h244v-406q0 -286 177 -286h1q113 0 172 75q51 66 52 172v445h243v-1446h-243v696h-5q-76 -161 -283 -161h-3q-182 0 -275 118q-80 100 -80 265z" />
<glyph unicode="z" horiz-adv-x="1251" d="M72 0v233l774 984h-762v233h1083v-233l-780 -984h793v-233h-1108z" />
<glyph unicode="{" horiz-adv-x="569" d="M0 500v180q63 0 119 29q74 39 74 114v406q0 125 98 205q80 66 164 65h186v-172h-113q-127 0 -127 -143v-385q0 -182 -200 -207v-4q201 -18 200 -219v-373q0 -143 127 -143h113v-172h-186q-84 0 -164 65q-98 80 -98 205v391q0 84 -74 127q-56 31 -119 31z" />
<glyph unicode="|" horiz-adv-x="454" d="M123 -37v1585h209v-1585h-209z" />
<glyph unicode="}" horiz-adv-x="569" d="M-72 -147h113q127 0 127 143v385q0 182 201 207v4q-201 18 -201 219v373q0 143 -127 143h-113v172h187q84 0 164 -65q98 -80 98 -205v-391q0 -84 76 -127q53 -31 116 -31v-180q-63 0 -116 -29q-76 -39 -76 -115v-405q0 -125 -98 -205q-80 -66 -164 -65h-187v172z" />
<glyph unicode="~" horiz-adv-x="1363" d="M207 612q92 176 250 176q88 0 237 -65q168 -74 207 -74q55 0 105 45q26 24 77 94l74 -172q-61 -86 -102 -120q-70 -55 -154 -56q-86 0 -209 68q-129 72 -235 72q-104 0 -176 -140z" />
<glyph unicode="&#xa5;" horiz-adv-x="2711" d="M29 1141l34 -185h56l16 97l15 -97h57l35 185h-49l-17 -119l-18 119h-45l-19 -119l-16 119h-49zM37 829l137 -819h213l64 578h2l59 -578h215l137 819h-182l-59 -575h-2l-76 575h-185l-79 -575l-60 575h-184zM45 1284h70v170q0 25 20 25t21 -21v-174h69v197q0 55 -57 55 q-31 0 -51 -27h-2v103h-70v-328zM264 956h51v185h-51v-185zM264 1159h51v43h-51v-43zM309 1354q0 -78 94 -78q96 2 91 94h-68q-4 -45 -25 -43q-23 2 -22 27v41h119v71q0 72 -95 70q-94 0 -94 -84v-98zM340 1102h20v-105q0 -43 43 -43q12 0 33 2v37h-12q-12 0 -12 13v96h24 v39h-24v51h-52v-51h-20v-39zM379 1442v16q0 33 24 33q25 0 25 -25v-24h-49zM459 956h53v127q0 20 14 21q14 0 15 -17v-131h53v148q0 41 -43 41q-23 0 -39 -19v76h-53v-246zM694 1102h21v-105q0 -43 43 -43q14 0 35 2v37h-15q-12 0 -12 13v96h27v39h-27v51h-51v-51h-21v-39z M721 1530l45 -246h76l20 127l21 -127h73l48 246h-66l-20 -158l-25 158h-59l-27 -158l-21 158h-65zM815 956h51v127q0 20 15 21q16 0 16 -17v-131h51v148q0 41 -41 41q-25 0 -41 -19v76h-51v-246zM975 1008q0 -57 69 -58q74 2 70 70h-53q-2 -33 -17 -31q-16 0 -16 19v32h88 v52q0 55 -72 53q-70 0 -69 -62v-75zM1028 1075v12q0 25 19 25q16 0 16 -20v-17h-35zM1036 10h193v819h-193v-819zM1077 1284h70v170q0 25 20 25q18 0 19 -21v-174h69v197q0 55 -55 55q-33 0 -53 -27v103h-70v-328zM1221 956h53v131q0 16 14 17q10 0 12 -17v-131h54v131 q0 14 14 17q12 0 12 -17v-131h54v152q0 37 -48 37q-25 0 -36 -23h-2q-10 25 -39 23q-27 0 -39 -27v23h-49v-185zM1343 1354q0 -78 91 -78q90 0 90 78v98q0 84 -90 84t-91 -84v-98zM1413 1348v110q0 29 21 29q23 0 22 -29v-110q-2 -20 -22 -21q-18 0 -21 21zM1436 10h182 l-16 457l2 2l149 -459h197v819h-183l19 -458h-4l-148 458h-198v-819zM1458 1008q0 -57 70 -58q68 0 67 58v75q0 61 -67 62q-70 0 -70 -62v-75zM1511 1006v81q0 20 17 21q16 0 16 -21v-81q-2 -16 -16 -17q-14 0 -17 17zM1614 1014q-4 -63 67 -64q70 0 70 60q0 29 -22 43 q-6 4 -48 24q-16 8 -16 19q0 16 16 16q14 0 19 -27h47q4 59 -66 60q-68 0 -67 -55q0 -20 12 -35q4 -4 68 -39q6 -4 6 -12q0 -18 -19 -19q-20 0 -18 29h-49zM1759 1102h21v-105q0 -43 43 -43q14 0 32 2v37h-12q-12 0 -12 13v96h24v39h-24v51h-51v-51h-21v-39zM1765 1368 q0 -90 62 -92q33 0 53 37h2v-29h64v328h-70v-105q-20 29 -51 29q-59 0 -60 -84v-84zM1835 1372v64q0 43 20 43q20 2 21 -45v-58q0 -43 -21 -43q-20 0 -20 39zM1952 1102h20v-146h53v146h23v39h-23v18q0 6 11 6h12v37h-25q-49 0 -51 -47v-14h-20v-39zM2042 1284h69v246h-69 v-246zM2042 1552h69v60h-69v-60zM2068 1008q0 -57 68 -58q70 0 70 58v75q0 61 -70 62q-68 0 -68 -62v-75zM2118 197q0 -88 59 -144q68 -63 193 -63q246 0 245 246q0 92 -32 149q-27 43 -90.5 83t-128 80t-56.5 99q6 59 66 55q41 -4 55 -43q6 -18 8 -75h178 q6 119 -58.5 192.5t-184.5 73.5q-242 0 -242 -234q0 -100 57 -165q37 -43 144 -105q57 -35 71 -49q35 -33 35 -78q0 -82 -63 -82q-78 0 -78 90v58h-178v-88zM2120 1006v81q0 20 16 21q16 0 16 -21v-81q-2 -16 -16 -17q-14 0 -16 17zM2202 1354q0 -78 94 -78q96 2 90 94h-68 q-4 -45 -24 -43q-23 2 -23 27v41h119v71q0 72 -94 70q-94 0 -94 -84v-98zM2234 956h54v131q0 14 14 17q12 0 12 -17v-131h53v152q0 37 -47 37q-27 0 -36 -27v23h-50v-185zM2271 1442v16q0 33 25 33t24 -25v-24h-49zM2386 1102h20v-105q0 -43 45 -43q12 0 33 2v37h-14 q-10 0 -10 13v96h24v39h-24v51h-54v-51h-20v-39zM2458 1360q-2 -84 92 -84q92 0 92 78q0 39 -31 59q-6 6 -63 33q-20 8 -21 24q0 20 23 21q20 0 22 -35h66q4 80 -88 80q-90 0 -90 -76q0 -25 16 -45q6 -6 90 -51q8 -6 8 -18q0 -23 -24 -23q-27 0 -25 37h-67zM2494 1014 q-2 -63 70 -64q70 0 70 60q0 29 -23 43q-6 4 -49 24q-14 8 -14 19q0 16 16 16q14 0 16 -27h50q4 59 -66 60q-68 0 -67 -55q0 -20 12 -35q4 -4 67 -39q6 -4 7 -12q0 -18 -19 -19q-20 0 -18 29h-52z" />
<glyph unicode="&#xa9;" horiz-adv-x="1638" d="M57 725q0 315 223.5 538.5t538.5 223.5t538.5 -223.5t223.5 -538.5t-223 -538.5t-539 -223.5q-315 0 -538.5 223.5t-223.5 538.5zM254 725q0 -248 164 -419t401 -171q238 0 401.5 171t163.5 419t-163.5 419t-401.5 171t-401.5 -171t-163.5 -419zM432 731 q0 195 105.5 312.5t298.5 117.5q143 0 241 -74q104 -80 127 -223h-192q-25 125 -160 125q-223 0 -223 -254q0 -119 57 -194.5t162 -75.5q156 0 164 143h192q-20 -150 -127 -233q-98 -82 -237 -82q-188 0 -301 127q-106 121 -107 311z" />
<glyph unicode="&#xad;" horiz-adv-x="645" d="M70 399v209h505v-209h-505z" />
<glyph unicode="&#xae;" horiz-adv-x="1638" d="M57 725q0 315 223.5 538.5t538.5 223.5t538.5 -223.5t223.5 -538.5t-223 -538.5t-539 -223.5q-315 0 -538.5 223.5t-223.5 538.5zM254 725q0 -248 164 -419t401 -171q238 0 401.5 171t163.5 419t-163.5 419t-401.5 171t-401.5 -171t-163.5 -419zM526 334v799h256 q360 0 361 -236q0 -100 -58 -172q-53 -63 -122 -74l204 -317h-215l-182 307h-47v-307h-197zM721 801h96q129 0 129 86t-129 86h-96v-172z" />
<glyph unicode="&#xb8;" horiz-adv-x="3102" d="M215 426v733q0 180 124 304t304 124h1788q182 0 306 -125t124 -303v-733q0 -182 -125 -306t-305 -124h-1788q-182 0 -305 125t-123 305zM664 244h557v141h-422v6l413 801v143h-534v-143h399v-4l-413 -801v-143zM1288 244h469v139h-362v356h344v129h-344v326h358v141h-465 v-1091zM1858 244h108v399h213q63 0 92 -38t29 -142v-219h108v256q0 197 -116 211v6q74 20 99.5 80.5t25.5 218.5q0 176 -48.5 247.5t-168.5 71.5h-342v-1091zM1966 786v404h227q49 0 74 -19q41 -29 41 -192q0 -119 -30.5 -156t-102.5 -37h-209z" />
<glyph unicode="&#xc5;" horiz-adv-x="1409" d="M14 0h297l396 1096l407 -1096h279l-586 1450h-223zM377 1872q0 135 96 231.5t232 96.5q135 0 231 -96.5t96 -231.5t-96 -231.5t-231 -96.5t-231.5 96.5t-96.5 231.5zM537 1872q0 -70 49 -119t119 -49t118.5 49t48.5 119t-49 119t-118 49q-70 0 -119 -49t-49 -119z" />
<glyph unicode="&#xdf;" horiz-adv-x="1269" d="M123 819q0 215 148.5 363.5t363.5 148.5t363.5 -148.5t148.5 -363.5t-148.5 -363.5t-363.5 -148.5t-363.5 148.5t-148.5 363.5zM164 823q0 -201 137 -338t338 -137v467h467q0 201 -137.5 338t-337.5 137v-467h-467z" />
<glyph unicode="&#xe5;" horiz-adv-x="1409" d="M14 0h297l396 1096l407 -1096h279l-586 1450h-223zM377 1872q0 135 96 231.5t232 96.5q135 0 231 -96.5t96 -231.5t-96 -231.5t-231 -96.5t-231.5 96.5t-96.5 231.5zM537 1872q0 -70 49 -119t119 -49t118.5 49t48.5 119t-49 119t-118 49q-70 0 -119 -49t-49 -119z" />
<glyph unicode="&#xe7;" horiz-adv-x="5638" d="M123 137q0 -66 49 -111.5t117 -45.5t117 48t49 113q0 66 -49.5 112t-116.5 46q-68 0 -117 -47t-49 -115zM680 719q0 -340 217 -552t557 -212q358 0 547 262l-215 152q-139 -176 -330 -176q-223 0 -362.5 153.5t-139.5 388.5q0 223 139.5 374t362.5 151q172 0 309 -144 l203 148q-201 233 -514 233q-342 0 -558 -214t-216 -564zM2099 719q0 -307 187 -516l-181 -197l103 -88l176 191q207 -158 489 -154q346 4 563.5 218t217.5 554q0 336 -201 545l178 196l-100 88l-180 -194q-201 137 -478 135q-342 -2 -558 -215t-216 -563zM2372 735 q0 223 140 374t363 151q168 0 297 -93l-704 -766q-96 143 -96 334zM2560 299l709 772q113 -133 112 -336q0 -236 -140 -389t-366 -153q-180 0 -315 106zM3910 -8h247v1218h5l444 -1218h182l447 1218h4v-1218h248v1466h-394l-395 -1026l-391 1026h-397v-1466z" />
<glyph unicode="&#x2000;" horiz-adv-x="1100" />
<glyph unicode="&#x2001;" horiz-adv-x="2200" />
<glyph unicode="&#x2002;" horiz-adv-x="1100" />
<glyph unicode="&#x2003;" horiz-adv-x="2200" />
<glyph unicode="&#x2004;" horiz-adv-x="733" />
<glyph unicode="&#x2005;" horiz-adv-x="550" />
<glyph unicode="&#x2006;" horiz-adv-x="366" />
<glyph unicode="&#x2007;" horiz-adv-x="366" />
<glyph unicode="&#x2008;" horiz-adv-x="275" />
<glyph unicode="&#x2009;" horiz-adv-x="440" />
<glyph unicode="&#x200a;" horiz-adv-x="122" />
<glyph unicode="&#x2010;" horiz-adv-x="645" d="M70 399v209h505v-209h-505z" />
<glyph unicode="&#x2011;" horiz-adv-x="645" d="M70 399v209h505v-209h-505z" />
<glyph unicode="&#x2012;" horiz-adv-x="645" d="M70 399v209h505v-209h-505z" />
<glyph unicode="&#x2013;" horiz-adv-x="1164" d="M70 399v209h1024v-209h-1024z" />
<glyph unicode="&#x2014;" horiz-adv-x="2188" d="M70 399v209h2048v-209h-2048z" />
<glyph unicode="&#x201e;" horiz-adv-x="6234" d="M133 0v1448h246v-1202h4l438 1202h180l441 -1202h4v1202h246v-1448h-389l-392 1014l-385 -1014h-393zM2025 0v1448h246v-1202h4l441 1202h180l438 -1202h4v1202h246v-1448h-389l-389 1014l-387 -1014h-394zM3920 0v1448h246v-1202h4l438 1202h180l441 -1202h4v1202h243 v-1448h-387l-391 1014l-387 -1014h-391zM5784 143q0 -66 49 -110.5t114 -44.5q68 0 116 47t48 112q0 66 -48 111t-116 45t-115.5 -47t-47.5 -113z" />
<glyph unicode="&#x202f;" horiz-adv-x="440" />
<glyph unicode="&#x205f;" horiz-adv-x="550" />
<glyph unicode="&#x2122;" horiz-adv-x="2048" d="M82 1266v184h709v-184h-250v-660h-209v660h-250zM983 606v844h291l201 -549l200 549h291v-844h-209v549h-4l-207 -549h-143l-207 549h-4v-549h-209z" />
<glyph unicode="&#x25fc;" horiz-adv-x="1454" d="M0 0v1454h1454v-1454h-1454z" />
</font>
</defs>
</svg>
