<?xml version="1.0" standalone="no"?>
<!DOCTYPE svg PUBLIC "-//W3C//DTD SVG 1.1//EN" "http://www.w3.org/Graphics/SVG/1.1/DTD/svg11.dtd" >
<svg xmlns="http://www.w3.org/2000/svg" xmlns:xlink="http://www.w3.org/1999/xlink" version="1.1">
<metadata></metadata>
<defs>
<font id="bitwiseregular" horiz-adv-x="1420" >
<font-face units-per-em="2048" ascent="1568" descent="-480" />
<missing-glyph horiz-adv-x="900" />
<glyph horiz-adv-x="0" />
<glyph horiz-adv-x="682" />
<glyph unicode=" "  horiz-adv-x="900" />
<glyph unicode="&#x09;" horiz-adv-x="900" />
<glyph unicode="&#xa0;" horiz-adv-x="900" />
<glyph unicode="!" horiz-adv-x="470" d="M92 296v1116q0 6 3 11t7 9t10 7t12 3h124q6 0 12 -3t10 -7t7 -9t3 -9v-528q0 -8 6 -23t14 -33t19 -38t22 -41l22 -42t20 -38t14 -29t5 -18v-328q0 -6 -4 -13t-10 -12t-14 -9t-16 -4h-204q-10 0 -21 3t-20 8t-15 12t-6 15zM126 92q0 26 10 48t26 38t38 26t48 10 q24 0 46 -10t39 -26t26 -38t9 -48q0 -24 -9 -46t-26 -37t-39 -25t-46 -10q-26 0 -48 10t-38 25t-26 37t-10 46z" />
<glyph unicode="&#x22;" horiz-adv-x="610" d="M50 1260v134q0 6 2 13t6 13t9 10t9 4h128q6 0 13 -3t13 -9t10 -13t4 -15v-480q0 -4 -2 -10t-5 -11t-6 -8t-7 -3h-78q-4 0 -8 3t-6 8l-4 10t-2 9v162q0 6 -4 15t-9 21t-12 26l-14 28t-14 29t-12 27t-8 23t-3 17zM324 1260v134q0 6 2 13t6 13t9 10t9 4h130q6 0 12 -3t12 -9 t10 -13t4 -15v-480q0 -4 -2 -10t-5 -11t-6 -8t-7 -3h-78q-4 0 -7 3t-6 8t-5 10t-2 9v162q0 6 -3 15t-9 21l-13 26l-14 28t-14 29t-12 27t-8 23t-3 17z" />
<glyph unicode="#" horiz-adv-x="1580" d="M84 448l52 146h310l96 268h-332l48 142h332l162 452h166l-164 -452h256l164 452h166l-160 -448h300l-50 -150h-306l-88 -264h318l-52 -142h-320l-158 -452h-166l164 452h-264l-156 -452h-170l164 448h-312zM608 592h262l94 270h-260z" />
<glyph unicode="$" d="M94 90v260q0 6 3 13t8 12t11 9t12 4h92q8 0 15 -5t12 -11t8 -14t3 -16v-150q0 -6 4 -10t10 -7t13 -5t13 -2h374v482h-472q-18 0 -37 9t-34 24t-25 33t-10 36v604q0 18 9 34t24 29t32 21t35 8h478v90q0 4 1 9t3 10t5 8t9 3h50q4 0 7 -3t5 -7t3 -8t1 -8v-92h488q14 0 27 -7 t24 -18t18 -24t7 -27v-252q0 -6 -1 -14t-5 -15t-9 -12t-11 -5h-116q-6 0 -14 4t-13 9t-9 12t-4 13v154q0 6 -4 10t-9 7t-11 5t-10 2h-340v-482h462q16 0 32 -7t29 -19t22 -28t9 -30v-650q0 -12 -7 -26t-17 -26t-24 -18t-28 -6h-480v-98q0 -6 -7 -14t-15 -8h-40q-10 0 -17 9 t-7 19v92h-472q-18 0 -37 7t-35 20t-27 29t-11 34zM264 848q0 -6 3 -12t7 -11t9 -8t9 -3h376v482h-366q-6 0 -12 -3t-12 -8t-10 -11t-4 -14v-412zM764 172h218q6 0 12 3t12 8t9 11t3 12v414q0 4 -2 10t-6 11t-9 9t-9 4h-228v-482z" />
<glyph unicode="%" horiz-adv-x="870" d="M68 54q0 18 10 40l608 1326q4 10 16 17t24 7h78q8 0 15 -5t13 -11t8 -14t0 -14l-270 -620q-8 -18 -10 -38t0 -40t6 -40t10 -39t12 -36t10 -32t5 -27t-3 -20l-220 -458q-6 -10 -13 -19t-16 -16t-20 -11t-21 -4h-194q-12 0 -24 6t-18 18t-6 30zM226 1208q0 24 9 46t25 38 t38 26t46 10q26 0 47 -10t37 -26t26 -38t10 -46t-10 -46t-26 -38t-37 -26t-47 -10q-24 0 -46 10t-38 26t-25 38t-9 46zM572 188q0 24 10 46t26 38t38 25t46 9t46 -9t38 -25t26 -38t10 -46q0 -26 -10 -47t-26 -38t-38 -26t-46 -9t-46 9t-38 26t-26 38t-10 47z" />
<glyph unicode="&#x26;" horiz-adv-x="1460" d="M78 82v558q0 20 8 38t20 34t29 31t33 29t33 29t29 31t20 33t8 37v460q0 14 7 29t18 27t25 20t28 8h720q14 0 29 -7t26 -18t19 -25t8 -28v-512q0 -28 -14 -55t-37 -50t-50 -37t-55 -14h-554q-8 0 -17 -3t-17 -8t-13 -12t-5 -15v-452q0 -6 4 -12t9 -11t12 -8t13 -3h584 q6 0 12 2t11 6t9 10t4 10v240h-96v142h396v-492q0 -16 -7 -32t-18 -30t-26 -22t-31 -8h-1084q-16 0 -31 7t-29 18t-22 26t-8 29zM428 908q0 -6 2 -14t6 -14t9 -11t13 -5h482q6 0 12 3t10 8t7 11t3 10v344q0 8 -5 14t-12 11t-16 7t-15 2h-452q-8 0 -16 -4t-14 -10t-10 -14 t-4 -14v-324z" />
<glyph unicode="'" horiz-adv-x="320" d="M40 1260v134q0 6 3 13t6 13t8 10t11 4h128q6 0 13 -3t13 -9t9 -13t3 -15v-480q0 -4 -1 -10t-4 -11t-7 -8t-8 -3h-78q-2 0 -6 3t-7 8t-5 10t-2 9v162q0 6 -3 15t-8 21t-12 26l-14 28t-14 29t-12 27t-9 23t-4 17z" />
<glyph unicode="(" horiz-adv-x="530" d="M82 394v648q0 22 7 43t19 39l208 320q2 4 8 8t13 6t13 1t12 -3l78 -48q4 -2 8 -7t6 -12t1 -13t-3 -10l-154 -210q-12 -16 -22 -35t-10 -39v-712q0 -14 5 -30t13 -28l162 -220q4 -6 6 -14t3 -15t-1 -14t-8 -11l-76 -46q-6 -4 -14 -5t-15 0t-14 4t-11 9l-208 324 q-10 16 -18 34t-8 36z" />
<glyph unicode=")" horiz-adv-x="530" d="M78 63q0 7 3 15t7 14l162 220q8 12 12 28t4 30v712q0 20 -10 39t-20 35l-154 210q-4 4 -4 10t2 13t5 12t9 7l78 48q4 2 11 3t14 -1t12 -6t9 -8l208 -320q12 -18 19 -39t7 -43v-648q0 -18 -8 -36t-18 -34l-208 -324q-4 -6 -11 -9t-15 -4t-16 0t-14 5l-74 46q-6 4 -8 11 t-2 14z" />
<glyph unicode="*" horiz-adv-x="1024" d="M162 1124l20 90q2 6 7 9t11 5t13 2t13 -2l214 -72v258q0 4 1 9t3 10t6 8t8 3h94q6 0 10 -3t7 -7t5 -9t2 -11v-252l218 70q4 0 11 1t14 0t12 -4t5 -9l20 -96q2 -8 -4 -18t-16 -12l-232 -60l152 -186q4 -6 6 -12t2 -13t-2 -13t-6 -10l-72 -52q-6 -2 -12 -3t-12 0t-12 4 t-8 9l-130 180l-122 -166q-4 -6 -12 -12t-16 -10t-16 -5t-14 3l-66 52q-4 4 -5 9t-1 11t3 12l5 10l150 186l-234 66q-8 2 -15 12t-5 18z" />
<glyph unicode="+" horiz-adv-x="1706" d="M252 542v136h526v542h142v-542h524v-138h-524v-540h-142v542h-526z" />
<glyph unicode="," horiz-adv-x="710" d="M246 90q0 26 9 47t25 35t35 21t39 7q18 0 38 -4t35 -17t25 -34t10 -53v-224h-134l88 132q-16 -4 -31 -9t-33 -5q-24 0 -44 8t-34 23t-21 35t-7 38z" />
<glyph unicode="-" horiz-adv-x="920" d="M94 442v112q0 10 8 18t18 8h664q12 0 19 -8t7 -18v-112q0 -10 -7 -18t-19 -8h-664q-10 0 -18 8t-8 18z" />
<glyph unicode="." horiz-adv-x="710" d="M242 92q0 22 9 42t24 35t35 24t42 9q24 0 44 -9t35 -24t23 -35t8 -42q0 -24 -8 -44t-23 -34t-35 -23t-44 -9q-22 0 -42 9t-35 23t-24 34t-9 44z" />
<glyph unicode="/" horiz-adv-x="810" d="M-51 -124q3 14 7 26l686 1512q6 16 22 27t32 11h78q6 0 13 -4t13 -10t8 -13t0 -13l-368 -816q-6 -18 -7 -35t2 -35t9 -37t13 -37t13 -37t9 -37t1 -35t-8 -35l-208 -434q-6 -12 -16 -22t-22 -17t-25 -11t-25 -4h-180q-20 0 -31 8t-15 21t-1 27z" />
<glyph unicode="0" d="M90 96v1258q0 18 7 36t20 30t30 20t37 8h1040q18 0 36 -8t30 -20t20 -30t8 -36v-1258q0 -20 -8 -38t-20 -30t-30 -20t-36 -8h-1040q-20 0 -37 8t-30 20t-20 30t-7 38zM270 210q0 -16 13 -28t31 -12h668q18 0 31 12t13 28v386q0 18 4 37t11 39t17 39l20 38t19 36t16 32 t12 27t5 20v388q0 16 -13 28t-31 12h-772q-18 0 -31 -12t-13 -28v-1042z" />
<glyph unicode="1" d="M496 58v182q0 10 5 20t13 19t17 14t19 5h48q8 0 14 9t6 19v908q0 6 -3 11l-6 10t-8 8t-11 3h-56q-8 0 -14 3t-11 8t-9 12t-4 13v108q0 8 5 15t12 12t15 8t16 3h204q8 0 15 -4t13 -10t10 -14t4 -16v-1072q0 -6 2 -13t5 -13t8 -10t11 -4h58q6 0 14 -4t13 -11t9 -15t4 -14 v-196q0 -10 -5 -19t-14 -16t-19 -12t-20 -5h-288q-12 0 -25 5t-23 13t-17 18t-7 22z" />
<glyph unicode="2" d="M92 74v718q0 12 6 23t15 20t21 15t22 6h954q4 0 9 3t9 8t6 11t2 12v358q0 6 -4 11t-9 9t-12 6t-13 2h-952q-8 0 -17 3t-16 9t-12 13t-5 15v94q0 8 4 15t11 12t14 8t15 3h1090q16 0 31 -9t27 -23t19 -31t7 -31v-570q0 -16 -7 -33t-20 -31t-28 -24t-33 -10h-924 q-6 0 -10 -3t-7 -7t-5 -9t-2 -11v-440q0 -6 4 -14t11 -13t16 -9t15 -4h940q8 0 18 -3t18 -9t13 -13t5 -15v-108q0 -8 -5 -13t-13 -8t-17 -5t-15 -2h-1102q-12 0 -26 7t-24 18t-17 24t-7 25z" />
<glyph unicode="3" d="M102 38v94q0 10 5 18t14 15t18 11t19 4h814q6 0 14 2t14 6t10 9t4 13v448q0 4 -3 9t-6 9t-8 6t-9 2h-818q-10 0 -22 3t-22 8t-17 13t-7 18v88q0 8 5 17t12 15t16 10t17 4h808q10 0 19 5t17 12t13 16t5 17v330q0 8 -5 14t-12 12t-15 9t-16 3h-814q-8 0 -16 2t-16 6t-13 10 t-5 14v92q0 8 4 16t10 15t14 11t16 4h938q14 0 31 -4t31 -12t24 -20t10 -26v-472q0 -12 6 -23t15 -21t21 -21l24 -22t24 -23t21 -24t15 -27t6 -31v-636q0 -16 -9 -31t-24 -27t-32 -20t-33 -8h-1062q-8 0 -17 3t-16 9t-12 13t-5 13z" />
<glyph unicode="4" d="M96 332v1066q0 10 5 19t12 17t17 13t18 5h190q8 0 17 -4t15 -11t11 -15t5 -16v-944q0 -10 5 -18t14 -15t19 -11t20 -4h576q6 0 13 3t13 6t10 9t4 12v68q0 6 4 14t9 15t13 11t16 4h182q6 0 13 -3t12 -8t8 -10t3 -11v-482q0 -6 -2 -13t-6 -12t-10 -9t-12 -4h-188 q-8 0 -15 2t-13 6t-10 9t-4 11v178q0 6 -5 12t-12 10t-15 7t-14 3h-818q-18 0 -35 8t-32 21t-24 29t-9 32z" />
<glyph unicode="5" d="M92 28v108q0 8 6 15t14 13t17 9t17 3h940q8 0 16 4t15 9t11 13t4 14v440q0 6 -1 11t-5 9t-8 7t-8 3h-926q-16 0 -32 10t-28 24t-20 31t-8 33v570q0 14 7 31t19 31t27 23t31 9h1090q8 0 16 -3t14 -8t10 -12t4 -15v-94q0 -8 -5 -15t-12 -13t-16 -9t-17 -3h-952q-6 0 -12 -2 t-12 -6t-10 -9t-4 -11v-358q0 -6 3 -12t6 -11t8 -8t11 -3h952q12 0 23 -6t20 -15t15 -20t6 -23v-718q0 -12 -7 -25t-17 -24t-23 -18t-27 -7h-1100q-8 0 -17 2t-16 5t-13 8t-6 13z" />
<glyph unicode="6" d="M90 72v1274q0 18 11 37t28 33t38 23t41 9h872q14 0 31 -5t30 -14t22 -22t9 -27v-274q0 -6 -3 -13t-9 -13t-13 -10t-13 -4h-92q-8 0 -15 4t-14 11t-11 14t-4 15v124q0 8 -4 16t-11 15t-15 11t-16 4h-686v-542h966q16 0 33 -8t30 -21t22 -30t9 -33v-564q0 -14 -8 -29 t-20 -26t-27 -19t-29 -8h-1058q-14 0 -31 6t-31 15t-23 22t-9 29zM262 224q0 -8 5 -16t13 -14t17 -10t19 -4h794q8 0 14 4t12 11t9 16t3 15v308q0 8 -3 16t-7 15t-10 12t-12 5h-854v-358z" />
<glyph unicode="7" d="M102 1098v270q0 16 8 30t21 25t29 18t30 7h1046q14 0 29 -6t27 -17t20 -26t6 -33q-2 -14 -2 -27t-2 -27t-5 -26t-9 -22l-818 -1186q-8 -12 -17 -26t-18 -25t-21 -19t-26 -8h-146q-26 0 -37 10t-16 23t-5 29v30q-2 26 0 53t18 49l352 512q12 18 29 32t36 25t41 20t43 18 t42 19t40 21t36 25t29 34l254 380h-812q-6 0 -12 -3t-11 -7t-9 -10t-4 -12v-156q0 -6 -2 -12t-7 -12t-11 -10t-12 -4h-94q-6 0 -14 4t-13 11t-9 15t-4 14z" />
<glyph unicode="8" d="M78 94v550q0 14 8 29t21 30t29 31l32 32t32 33t29 35t21 38t8 42v448q0 16 9 32t23 28t31 19t33 7h686q16 0 34 -8t32 -22t23 -30t9 -34v-440q0 -20 9 -39t23 -38t31 -38t36 -38t36 -40t31 -44t22 -49t8 -54v-470q0 -18 -9 -37t-24 -33t-33 -24t-36 -10h-1042 q-18 0 -38 8t-36 21t-27 30t-11 35zM376 218q0 -18 12 -30t30 -12h580q18 0 30 12t12 30v438q0 16 -12 28t-30 12h-580q-18 0 -30 -12t-12 -28v-438zM426 910q0 -10 4 -18t10 -14t15 -10t19 -4h454q10 0 19 4t15 10t10 14t4 18v318q0 10 -4 18t-10 15t-15 10t-19 3h-454 q-10 0 -19 -3t-15 -10t-10 -15t-4 -18v-318z" />
<glyph unicode="9" d="M90 782v584q0 14 8 29t20 27t27 19t31 7h1056q16 0 32 -5t30 -15t23 -23t9 -27v-1310q0 -20 -3 -32t-10 -20t-19 -12t-32 -4h-182q-8 0 -19 5t-19 12t-14 16t-6 17v594q0 6 -2 14t-6 15t-9 12t-13 5h-808q-16 0 -33 8t-30 21t-22 30t-9 33zM274 914q0 -8 3 -16t7 -15 t10 -12t12 -5h828v370q0 8 -5 16t-13 15t-17 10t-19 3h-768q-8 0 -14 -4t-12 -11t-9 -15t-3 -16v-320z" />
<glyph unicode=":" horiz-adv-x="410" d="M92 92q0 22 8 42t23 35t35 24t44 9q22 0 42 -9t35 -24t24 -35t9 -42q0 -24 -9 -44t-24 -34t-35 -23t-42 -9q-24 0 -44 9t-35 23t-23 34t-8 44zM92 378q0 24 8 44t23 35t35 24t44 9q22 0 42 -9t35 -24t24 -35t9 -44q0 -22 -9 -42t-24 -35t-35 -24t-42 -9q-24 0 -44 9 t-35 24t-23 35t-8 42z" />
<glyph unicode=";" horiz-adv-x="410" d="M92 86q0 28 10 48t25 34t35 22t38 8q20 0 39 -5t35 -17t26 -33t10 -55v-222h-134l88 132q-16 -6 -32 -11t-32 -5q-24 0 -44 9t-34 24t-22 34t-8 37zM92 378q0 22 8 42t23 35t35 24t44 9q22 0 42 -9t35 -24t24 -35t9 -42t-9 -43t-24 -36t-35 -23t-42 -8q-24 0 -44 8 t-35 23t-23 36t-8 43z" />
<glyph unicode="&#x3c;" horiz-adv-x="1706" d="M262 546v132l1172 480v-154l-966 -394l966 -392v-156z" />
<glyph unicode="=" horiz-adv-x="1706" d="M256 342v138h1188v-138h-1188zM256 740v138h1188v-138h-1188z" />
<glyph unicode="&#x3e;" horiz-adv-x="1706" d="M260 62v156l968 392l-966 396v152l1172 -480v-130z" />
<glyph unicode="?" horiz-adv-x="1180" d="M74 1114v280q0 8 4 18t12 18t17 12t17 4h914q10 0 21 -4t21 -11t16 -17t6 -20v-430q0 -12 -6 -23t-14 -20t-19 -16t-23 -11l-478 -148q-6 0 -12 -4t-12 -10t-9 -12t-3 -12v-68q0 -12 6 -22t14 -18l86 -84l12 -12t11 -13t8 -14t3 -15v-156q0 -6 -1 -15t-4 -17t-8 -13 t-11 -5h-218q-8 0 -17 3t-16 9t-12 14t-5 16v506q0 10 5 21t12 20t17 16t20 11l460 140q8 2 15 5t14 7t12 10t5 12v212q0 6 -3 10t-8 8t-10 6t-11 2h-530v-168q0 -6 -4 -15t-9 -16t-12 -12t-15 -5h-214q-8 0 -16 4t-14 11t-10 15t-4 16zM408 92q0 22 9 42t24 35t35 24t42 9 t43 -9t36 -24t23 -35t8 -42q0 -24 -8 -44t-23 -34t-36 -23t-43 -9t-42 9t-35 23t-24 34t-9 44z" />
<glyph unicode="@" horiz-adv-x="2048" d="M106 516q2 124 28 231t69 197t101 164t129 132t151 101t165 71t174 42t177 14q98 0 185 -15t164 -42t143 -65t120 -85t95 -102t69 -116t43 -126t15 -133q2 -74 -10 -141t-35 -128t-55 -114t-71 -97t-85 -78t-95 -58t-102 -37t-107 -13q-42 0 -82 11t-70 34t-45 56t-7 75 q-18 -34 -52 -69t-75 -61t-87 -40t-90 -10q-52 6 -92 17t-70 27t-52 36t-38 44t-25 50t-15 53t-8 56t-4 57q-2 54 5 106t24 100t42 93t57 84t70 71t81 54t90 34t97 12q36 0 72 -7t69 -25t61 -47t48 -71l52 116h138l-162 -642q-6 -18 5 -36t28 -32t39 -20t40 -4q46 10 87 28 t77 45t65 60t52 70t41 78t29 83t16 84t5 82q-2 80 -20 147t-49 123t-73 100t-92 79t-105 59t-113 40t-117 23t-115 7q-104 0 -198 -20t-175 -54t-149 -82t-123 -106t-97 -124t-69 -138t-40 -146t-11 -148q2 -100 23 -183t55 -152t81 -123t104 -94t120 -70t131 -48t137 -27 t137 -9q80 0 158 13t155 37t150 59t143 79l56 -76q-74 -60 -155 -102t-165 -69t-171 -41t-175 -16q-110 -2 -209 15t-186 49t-160 79t-132 103t-104 122t-75 138t-44 149t-12 153zM718 450q2 -18 4 -37t6 -38t11 -37t16 -34t23 -30t32 -24t41 -16t53 -8q40 0 75 10t64 31 t53 49t43 63t34 74t27 81t20 85t14 83q6 34 -7 69t-39 63t-65 46t-85 20q-34 0 -67 -10t-63 -30t-56 -48t-49 -61t-40 -70t-28 -76t-16 -78t-1 -77z" />
<glyph unicode="A" horiz-adv-x="1490" d="M70 44v564q0 18 5 33t14 30t20 29t23 28t23 28t20 28t14 30t5 32v560q0 8 4 16t12 14t16 9t16 3h1000q8 0 16 -4t14 -10t10 -13t4 -15v-562q0 -16 5 -31t13 -28t19 -26t23 -26t23 -27t19 -27t13 -28t5 -31v-570q0 -8 -3 -17t-8 -16t-12 -12t-15 -5h-208q-6 0 -14 3t-15 8 t-12 12t-5 13v554q0 8 -4 16t-11 14t-16 9t-17 3h-654q-6 0 -15 -2t-16 -7t-12 -12t-5 -15v-550q0 -8 -4 -16t-12 -15t-16 -11t-16 -4h-196q-8 0 -17 4t-17 10t-12 13t-4 17zM360 822q0 -6 6 -12t13 -9t16 -5t15 -2h672q6 0 13 3t12 9t8 12t3 14v412q0 8 -4 16t-11 15 t-15 11t-16 4h-668q-8 0 -16 -4t-14 -10t-10 -14t-4 -14v-426z" />
<glyph unicode="B" horiz-adv-x="1400" d="M90 80v1296q0 12 8 25t19 23t25 16t28 6h920q14 0 29 -7t27 -17t19 -23t7 -27v-522q0 -18 7 -32t17 -28t23 -27t27 -26t27 -26t23 -27t16 -29t6 -31v-530q0 -16 -9 -33t-23 -31t-32 -22t-36 -8h-1022q-16 0 -35 6t-34 17t-26 26t-11 31zM264 822q0 -8 6 -15t14 -7h698 q8 0 14 7t6 15v444q0 8 -6 14t-14 6h-698q-8 0 -14 -6t-6 -14v-444zM388 194q0 -8 6 -14t16 -6h714q8 0 15 6t7 14v418q0 10 -7 15t-15 5h-714q-10 0 -16 -5t-6 -15v-418z" />
<glyph unicode="C" horiz-adv-x="1400" d="M94 82v1284q0 14 7 28t19 26t27 19t29 7h1066q14 0 29 -6t28 -16t21 -22t8 -26v-258q0 -8 -4 -16t-11 -16t-15 -12t-16 -4h-206q-8 0 -17 4t-16 10t-12 15t-5 17v134q0 8 -3 16t-9 15t-14 11t-16 4h-668q-8 0 -15 -5t-12 -12t-8 -16t-3 -15v-402q0 -4 5 -13t13 -22 t18 -28t21 -32t21 -37t18 -41t13 -44t5 -45v-374q0 -14 4 -22t10 -13t13 -6t15 -1h680q8 0 16 5t13 12t8 16t3 17v280q0 8 4 18t11 17t15 12t16 5h76q8 0 17 -5t15 -13t10 -18t4 -18v-408q0 -14 -8 -30t-21 -29t-28 -21t-31 -8h-1050q-14 0 -31 7t-30 19t-21 27t-8 29z" />
<glyph unicode="D" horiz-adv-x="1430" d="M94 106v1232q0 52 24 80t82 28h998q12 0 34 -11t42 -28t34 -35t14 -34v-1232q0 -20 -12 -39t-30 -34t-41 -24t-45 -9h-994q-22 0 -41 8t-33 23t-23 34t-9 41zM276 862q0 -10 5 -24t13 -29t18 -32t21 -36l22 -38t19 -39t13 -39t5 -39v-376q0 -8 4 -18t10 -19t15 -15t19 -6 h648q12 0 22 8t18 18t13 23t5 25v1028q0 6 -5 14t-12 13t-16 8t-17 3h-774q-10 0 -18 -4t-14 -12t-10 -17t-4 -19v-378z" />
<glyph unicode="E" horiz-adv-x="1110" d="M94 62v1310q0 14 7 28t18 25t25 17t28 6h798q6 0 15 -2t17 -5t13 -9t5 -14v-88q0 -8 -4 -16t-11 -14t-16 -10t-17 -4h-678q-6 0 -11 -2t-9 -7t-7 -10t-3 -11v-424q0 -6 3 -12t8 -11t11 -8t12 -3h674q8 0 16 -3t14 -7t11 -10t5 -14v-76q0 -8 -4 -17t-11 -16t-15 -12 t-16 -5h-572q-6 0 -13 -3t-12 -8t-8 -12t-3 -13v-400q0 -6 3 -12t9 -10t12 -6t12 -2h582q8 0 17 -3t17 -7t14 -10t6 -14v-104q0 -6 -3 -12t-7 -11t-9 -8t-11 -3h-834q-12 0 -26 5t-26 13t-19 19t-7 25z" />
<glyph unicode="F" horiz-adv-x="1070" d="M94 62v1310q0 14 7 28t18 25t25 17t28 6h798q6 0 15 -2t17 -5t13 -9t5 -14v-88q0 -8 -4 -16t-11 -14t-16 -10t-17 -4h-678q-6 0 -11 -2t-9 -7t-7 -10t-3 -11v-424q0 -6 3 -12t8 -11t11 -8t12 -3h674q8 0 16 -3t14 -7t11 -10t5 -14v-76q0 -8 -4 -17t-11 -16t-15 -12 t-16 -5h-572q-6 0 -13 -3t-12 -8t-8 -12t-3 -13v-538q0 -10 -5 -21t-12 -21t-17 -16t-20 -6h-138q-12 0 -26 5t-26 13t-19 19t-7 25z" />
<glyph unicode="G" horiz-adv-x="1400" d="M94 82v1284q0 14 7 28t19 26t27 19t29 7h1066q14 0 29 -6t28 -16t21 -22t8 -26v-258q0 -8 -4 -16t-11 -16t-15 -12t-16 -4h-94q-8 0 -17 4t-16 10t-11 15t-4 17v134q0 8 -4 16t-10 15t-14 11t-16 4h-780q-8 0 -15 -5t-12 -12t-8 -16t-3 -15v-402q0 -4 5 -13t13 -22 t18 -28t21 -32t21 -37t18 -41t13 -44t5 -45v-374q0 -14 4 -22t10 -13t13 -6t15 -1h680q8 0 16 5t13 12t8 16t3 17v232q0 8 -5 16t-13 15t-18 11t-18 4h-234q-8 0 -16 3t-15 8t-11 11t-4 14v86q0 8 4 17t10 17t15 13t17 5h410q8 0 17 -5t15 -14t10 -18t4 -19v-526 q0 -14 -8 -30t-21 -29t-28 -21t-31 -8h-1050q-14 0 -31 7t-30 19t-21 27t-8 29z" />
<glyph unicode="H" horiz-adv-x="1490" d="M72 44v570q0 18 5 36t14 36t20 35t22 33l22 32t20 31t14 29t5 26v540q0 6 3 12t8 11t11 8t12 3h88q6 0 15 -3t16 -8t12 -12t5 -13v-584q0 -6 3 -12t8 -11t11 -8t12 -3h684q6 0 12 4t11 10t7 14t2 14v576q0 6 4 13t9 13t11 9t14 3h96q8 0 14 -4t11 -10t9 -13t4 -15v-522 q0 -18 5 -36t13 -34t19 -32l22 -32l22 -32t19 -32t13 -33t5 -35v-578q0 -8 -4 -15t-10 -12t-14 -9t-14 -4h-196q-8 0 -17 4t-17 10t-13 13t-5 17v556q0 6 -3 12t-9 11t-13 7t-13 2h-670q-8 0 -16 -3t-14 -8t-11 -13t-5 -14v-560q0 -6 -3 -12t-9 -11t-13 -8t-13 -3h-204 q-8 0 -16 4t-15 10t-11 14t-4 16z" />
<glyph unicode="I" horiz-adv-x="480" d="M114 34v1368q0 8 5 16t11 14t14 10t16 4h110q6 0 13 -3t12 -9t8 -12t3 -12v-530q0 -24 4 -44t12 -37t17 -33t19 -31t19 -29t16 -29t12 -31t5 -34v-568q0 -8 -4 -16t-10 -14t-14 -10t-14 -4h-208q-6 0 -14 3t-15 7t-12 10t-5 14z" />
<glyph unicode="J" horiz-adv-x="1256" d="M70 88v408q0 8 3 18t10 18t15 13t16 5h76q10 0 18 -5t14 -12t10 -17t4 -18v-280q0 -8 4 -17t9 -16t12 -12t15 -5h538q8 0 15 1t13 6t10 13t4 22v374q0 22 5 45t13 44t18 40t21 37t21 33t18 28t12 22t4 13v526q0 14 3 27t8 23t13 17t20 7h96q16 0 24 -7t13 -19t7 -26 t2 -28v-1284q0 -14 -8 -29t-22 -27t-30 -19t-30 -7h-906q-16 0 -32 8t-28 21t-20 29t-8 30z" />
<glyph unicode="K" horiz-adv-x="1380" d="M72 50v556q0 18 5 35t14 34t20 33t22 33t22 33t20 33t14 34t5 37v528q0 6 2 14t6 14t10 10t12 4h100q6 0 13 -3t12 -8t8 -12t3 -13v-584q0 -6 6 -12t14 -10t17 -6t15 -2h630q12 0 26 5t26 13t20 19t8 23v548q0 6 2 13t7 13t11 10t12 4h86q8 0 15 -5t12 -12t9 -16t4 -17 v-570q0 -18 -9 -35t-23 -30t-32 -22t-38 -9q24 0 42 -9t31 -23t19 -32t6 -36v-584q0 -6 -3 -15t-7 -15t-10 -11t-14 -5h-84q-8 0 -15 5t-11 11t-7 14t-3 16v528q0 12 -7 24t-17 22t-22 16t-24 6h-640q-8 0 -17 -5t-17 -12t-13 -16t-5 -19v-540q0 -8 -2 -17t-6 -16t-11 -12 t-13 -5h-208q-8 0 -17 5t-16 12t-11 15t-4 18z" />
<glyph unicode="L" horiz-adv-x="1180" d="M72 44v558q0 18 5 37t13 38t19 37l22 36t22 34t19 31t13 29t5 24v538q0 6 4 13t9 13t11 10t14 4h106q6 0 12 -3t12 -8t9 -11t3 -12v-1216q0 -6 3 -11t7 -10t10 -7t10 -2h688q8 0 16 -4t14 -10t11 -14t5 -16v-88q0 -6 -3 -12t-8 -11t-11 -8t-12 -3h-970q-10 0 -20 3t-18 9 t-14 14t-6 18z" />
<glyph unicode="M" horiz-adv-x="1610" d="M90 46v1324q0 14 9 28t22 24t29 17t32 7h556q16 0 33 -5t30 -16t22 -27t9 -38q0 22 9 38t22 27t29 16t32 5h508q12 0 26 -7t25 -17t18 -23t7 -27v-1326q0 -6 -2 -14t-6 -15t-9 -12t-11 -5h-80q-6 0 -12 3t-12 9t-9 12t-3 12v1204q0 8 -2 16t-7 15t-11 11t-14 4h-342 q-14 0 -27 -7t-24 -19t-17 -27t-6 -29v-1160q0 -8 -3 -15t-7 -14t-10 -11t-14 -4h-82q-8 0 -17 4t-17 11t-12 15t-4 16v1162q0 12 -7 26t-17 26t-23 19t-27 7h-364q-10 0 -18 -4t-15 -12t-12 -17t-5 -19v-344q0 -20 6 -37t14 -34t20 -34t23 -33t22 -33t20 -34t15 -34t6 -37 v-564q0 -10 -6 -19t-14 -16t-19 -11t-19 -4h-192q-8 0 -16 4t-15 11t-11 15t-4 16z" />
<glyph unicode="N" horiz-adv-x="1430" d="M94 44v1344q0 8 2 19t8 20t13 15t15 6h98q16 0 34 -7t28 -19l854 -1196v1164q0 10 3 19t8 17t12 14t15 6h92q10 0 18 -6t14 -15t10 -20t4 -21v-1302q0 -10 -2 -25t-7 -27t-12 -21t-19 -9h-116q-24 0 -48 13t-40 33l-826 1112v-266q0 -18 5 -37t14 -36t20 -34t23 -34 t23 -34t20 -35t14 -36t5 -38v-564q0 -10 -5 -17t-12 -13t-17 -10t-18 -4h-182q-8 0 -17 4t-16 10t-11 14t-4 16z" />
<glyph unicode="O" horiz-adv-x="1430" d="M90 104v1238q0 22 8 41t22 33t33 22t41 8h1024q22 0 41 -8t33 -22t22 -33t8 -41v-1238q0 -22 -8 -41t-22 -33t-33 -22t-41 -8h-1024q-22 0 -41 8t-33 22t-22 33t-8 41zM276 250q0 -30 3 -46t12 -24t22 -10t35 -2h636q16 0 25 2t13 8t6 16t2 26v380q0 16 4 35t12 37t17 37 t18 37t19 34t17 28t11 22t4 14v370q0 26 -1 42t-7 25t-21 12t-43 3h-712q-24 0 -38 -4t-22 -13t-10 -25t-2 -40v-964z" />
<glyph unicode="P" horiz-adv-x="1390" d="M94 70v1300q0 14 7 28t18 25t25 18t28 7h1062q14 0 28 -6t25 -16t18 -24t7 -26v-660q0 -14 -7 -29t-18 -26t-25 -18t-28 -7h-812q-6 0 -13 -3t-12 -9t-8 -12t-3 -12v-536q0 -10 -5 -21t-12 -21t-16 -16t-19 -6h-176q-12 0 -24 7t-21 17t-14 22t-5 24zM282 814 q0 -10 9 -16t19 -6h802q8 0 16 8t8 16v440q0 6 -2 10t-6 8t-9 7t-11 3h-796q-4 0 -10 -3t-10 -6t-7 -8t-3 -11v-442z" />
<glyph unicode="Q" horiz-adv-x="1430" d="M96 88v1282q0 14 8 27t19 24t25 18t28 7h1066q14 0 28 -7t24 -18t17 -25t7 -26v-1284q0 -14 -7 -29t-19 -27t-26 -19t-30 -7h-70q-6 0 -14 -3t-14 -9t-10 -14t-4 -16v-58q0 -8 -3 -16t-8 -14t-11 -11t-14 -5h-234q-8 0 -16 4t-15 9t-11 12t-4 15v64q0 8 -4 15t-10 13 t-14 8t-14 2h-584q-16 0 -31 8t-27 21t-20 29t-8 30zM278 208q0 -6 4 -13t9 -13t12 -9t15 -3h334q18 0 31 6t25 15t24 21t23 24t24 24t29 22t35 15t43 5h216q6 0 11 3t9 8t6 10t2 11v922q0 8 -4 15t-11 13t-15 9t-16 3h-762q-8 0 -16 -5t-14 -12t-10 -15t-4 -16v-1040z" />
<glyph unicode="R" horiz-adv-x="1410" d="M90 50v1320q0 12 6 26t16 25t23 18t25 7h900q14 0 30 -7t29 -18t21 -26t8 -29v-504q0 -14 8 -23t21 -15t29 -10t33 -9t33 -11t28 -17t20 -26t8 -39v-672q0 -6 -2 -13t-5 -13t-7 -10t-10 -4h-94q-8 0 -15 3t-14 8t-11 12t-4 13v564q0 8 -6 17t-15 15t-19 9t-20 3h-664 q-8 0 -18 -4t-19 -10t-14 -15t-5 -19v-552q0 -8 -5 -16t-12 -14t-16 -10t-17 -4h-194q-8 0 -18 4t-17 11t-12 16t-5 19zM270 852q0 -10 8 -18t20 -8h646q12 0 20 8t8 18v390q0 10 -8 18t-20 8h-646q-12 0 -20 -8t-8 -18v-390z" />
<glyph unicode="S" horiz-adv-x="1370" d="M70 94v246q0 8 4 16t10 16t14 12t16 4h92q8 0 16 -3t14 -9t11 -13t5 -15v-146q0 -6 3 -13t7 -12t10 -8t12 -3h682q6 0 12 2t11 7t8 10t3 11v412q0 6 -3 11t-7 10t-10 7t-10 2h-804q-16 0 -32 8t-30 19t-23 26t-9 31v620q0 18 9 36t22 33t31 25t36 10h1030q16 0 32 -7 t29 -19t22 -27t9 -29v-258q0 -6 -3 -12t-7 -12t-10 -9t-12 -3h-112q-6 0 -12 3t-12 9t-9 12t-3 12v144q0 8 -4 15t-10 12t-14 9t-14 4h-786q-6 0 -12 -4t-11 -11t-7 -14t-2 -13v-422q0 -8 8 -15t16 -7h924q16 0 32 -8t29 -21t22 -30t9 -33v-626q0 -14 -8 -30t-19 -28 t-26 -20t-29 -8h-1034q-18 0 -37 8t-35 22t-25 31t-9 33z" />
<glyph unicode="T" horiz-adv-x="1320" d="M36 1336v76q0 8 4 14t10 11t14 8t14 3h1126q12 0 25 -5t24 -14t19 -20t8 -25v-186q0 -10 -6 -20t-16 -18t-21 -12t-21 -4h-402q-10 0 -22 -4t-22 -10t-16 -14t-6 -18v-1046q0 -8 -3 -17t-8 -17t-12 -13t-15 -5h-102q-10 0 -18 5t-14 13t-10 17t-4 17v1192q0 10 -5 20 t-12 19t-16 14t-19 5h-432q-6 0 -14 3t-14 7t-10 10t-4 14z" />
<glyph unicode="U" horiz-adv-x="1430" d="M90 86v1316q0 8 4 16t9 15t12 11t15 4h118q6 0 12 -3t10 -9t7 -12t3 -12v-600q0 -6 4 -15t10 -19t15 -22t18 -25t17 -27t15 -29t11 -30t4 -31v-394q0 -8 4 -16t10 -15t14 -11t18 -4h684q6 0 12 3t11 9t9 12t4 12v1204q0 8 3 13t8 10t12 8t13 3h104q6 0 15 -2t16 -6t12 -9 t5 -13v-1314q0 -16 -6 -34t-17 -33t-26 -24t-31 -9h-1050q-18 0 -37 6t-34 17t-26 26t-11 33z" />
<glyph unicode="V" horiz-adv-x="1256" d="M12 1406q2 6 5 13t7 13t9 10t11 4h88q10 0 18 -4t16 -11t13 -15t9 -16l432 -1192l434 1186q2 8 7 17t11 17t13 13t15 5h94q6 0 12 -4t11 -11t8 -14t5 -15q2 -4 -2 -11t-6 -13l-472 -1308q-4 -10 -9 -22t-11 -23t-15 -18t-19 -7h-140q-10 0 -19 5t-17 12t-13 17l-9 18 l-478 1314q-2 10 -7 20t-1 20z" />
<glyph unicode="W" horiz-adv-x="1610" d="M90 74v1326q0 6 2 14t5 15t9 12t12 5h114q6 0 13 -4t12 -9t8 -11t3 -12v-598q0 -16 5 -32t14 -32t21 -32t23 -33l22 -34t20 -35t15 -36t6 -36v-336q0 -8 2 -16t7 -15t11 -11t14 -4h244q14 0 27 7t24 20t17 27t6 28v1160q0 8 3 15t7 14t10 11t14 4h82q8 0 17 -4t17 -11 t12 -15t4 -16v-1162q0 -12 7 -26t17 -26t23 -19t27 -7h302q8 0 16 5t14 13t9 18t3 18v1188q0 20 4 29t10 12t11 3h9h98q8 0 16 -4t14 -11t11 -15t5 -16v-1324q0 -14 -9 -28t-23 -24t-30 -17t-30 -7h-494q-16 0 -33 5t-30 16t-22 27t-9 38q0 -22 -9 -38t-22 -27t-29 -16 t-32 -5h-570q-12 0 -26 7t-25 17t-18 23t-7 27z" />
<glyph unicode="X" horiz-adv-x="1360" d="M48 48v148q0 18 8 37t22 31l472 450l-474 412q-10 8 -19 18t-9 22v234q0 8 3 17t9 16t14 11t16 4h102q6 0 12 -3t11 -8t8 -12t3 -13v-184q0 -14 8 -27t18 -23l420 -348l272 252q14 12 26 26t21 30t15 33t6 35v188q0 10 5 19t13 17t17 13t19 5h170q10 0 21 -3t20 -10 t16 -16t7 -19v-154q0 -20 -7 -40t-21 -34l-478 -450l466 -388q6 -4 13 -11t13 -15t10 -17t4 -17v-232q0 -6 -3 -14t-8 -14t-12 -10t-15 -4h-110q-8 0 -16 5t-15 12t-11 17t-4 18v166q0 12 -6 25t-14 21l-414 352l-290 -282q-14 -12 -23 -29t-9 -35v-228q0 -8 -4 -15t-11 -14 t-15 -10t-16 -3h-202q-8 0 -18 4t-18 11t-13 16t-5 17z" />
<glyph unicode="Y" horiz-adv-x="1310" d="M48 744v652q0 8 3 18t8 17t13 12t16 5h92q6 0 13 -5t11 -13t6 -17t2 -17v-534q0 -6 3 -13t7 -12t10 -9t12 -4h810q6 0 12 3t11 7t8 10t3 12v556q0 6 3 12t7 11t10 8t12 3h94q8 0 14 -4t11 -11t8 -15t3 -16v-652q0 -16 -7 -31t-20 -28t-28 -20t-31 -7h-342q-6 0 -11 -4 t-10 -9t-7 -10t-2 -11v-582q0 -8 -4 -17t-11 -15t-15 -10t-16 -4h-190q-10 0 -19 5t-15 13t-11 18t-5 18v564q0 8 -4 16t-10 14t-13 10t-15 4h-310q-16 0 -35 6t-35 18t-26 27t-10 31z" />
<glyph unicode="Z" horiz-adv-x="1330" d="M48 74v206v21t3 22t7 21t12 18l410 446q10 12 26 22t34 18t38 15t41 14t42 15t41 18t37 22t31 28l290 326h-816q-10 0 -19 -6t-9 -16v-136q0 -6 -2 -14t-5 -15t-9 -12t-12 -5h-106q-6 0 -13 4t-11 9t-7 12t-3 13v274q0 8 5 17t13 16t18 11t18 4h1082q14 0 31 -3t32 -11 t23 -19t6 -27q-2 -10 -2 -21v-23t-3 -22t-9 -18l-1000 -1136h818q8 0 16 8t8 18v162q0 6 2 11t6 10t9 7t11 2h104q6 0 11 -3t8 -9t5 -12t2 -12v-284q0 -10 -4 -20t-11 -19t-17 -15t-20 -6h-1076q-14 0 -30 6t-28 16t-20 24t-8 28z" />
<glyph unicode="[" horiz-adv-x="530" d="M96 50v1346q0 8 4 17t10 17t15 12t17 4h250q6 0 13 -1t14 -4t11 -8t4 -11v-98q0 -4 -3 -10t-7 -10t-10 -7t-12 -3h-104q-6 0 -14 -3t-15 -7t-11 -11t-4 -13v-1064q0 -6 3 -13t8 -13t11 -10t12 -4h104q6 0 12 -2t11 -4t9 -6t4 -10v-102q0 -6 -3 -12t-7 -11t-10 -7t-12 -2 h-246q-10 0 -20 4t-17 11t-12 16t-5 19z" />
<glyph unicode="\" horiz-adv-x="810" d="M56 1412q-2 6 1 13t8 13t12 10t13 4h80q16 0 31 -11t23 -27l686 -1512q6 -12 8 -26t-1 -27t-14 -21t-33 -8h-180q-14 0 -27 4t-25 11t-22 17t-14 22l-208 434q-8 18 -9 35t2 35t9 37t12 37t13 37t10 37t2 35t-9 35z" />
<glyph unicode="]" horiz-adv-x="530" d="M96 1324v98q0 6 4 11t10 8t13 4t13 1h250q8 0 17 -4t15 -12t11 -17t5 -17v-1346q0 -10 -5 -19t-13 -16t-18 -11t-18 -4h-248q-6 0 -11 2t-10 7t-8 11t-3 12v102q0 6 4 10t9 6t11 4t12 2h104q6 0 13 4t11 10t7 13t3 13v1064q0 6 -4 13t-11 11t-14 7t-15 3h-104q-6 0 -11 3 t-10 7t-7 10t-2 10z" />
<glyph unicode="^" horiz-adv-x="2048" d="M416 904l506 554h188l506 -554h-180l-420 418l-420 -418h-180z" />
<glyph unicode="_" horiz-adv-x="1024" d="M0 -338h1018v-142h-1018v142z" />
<glyph unicode="`" horiz-adv-x="1024" d="M282 1326q0 4 1 7t3 5t4 2h146q8 0 18 -4t14 -10l170 -238q2 -4 -2 -11t-8 -7h-58q-14 0 -26 5t-22 15l-238 230q-2 2 -2 6z" />
<glyph unicode="a" horiz-adv-x="1060" d="M76 80v516q0 16 8 30t21 25t28 17t29 6h604q8 0 14 6t6 14v118q0 8 -10 15t-18 7h-642q-6 0 -13 2t-13 7t-10 10t-4 11v94q0 6 4 13t10 12t14 9t14 4h760q12 0 25 -7t24 -18t17 -24t6 -25v-712q0 -8 3 -15t7 -13t9 -9t13 -3h50q6 0 13 -3t13 -8t10 -11t4 -12v-96 q0 -8 -5 -15t-13 -13t-17 -9t-17 -3h-856q-14 0 -30 7t-29 18t-21 26t-8 29zM368 206q0 -12 9 -21t21 -9h356q12 0 21 9t9 21v274q0 12 -9 21t-21 9h-356q-12 0 -21 -9t-9 -21v-274z" />
<glyph unicode="b" horiz-adv-x="1096" d="M86 84v1318q0 8 4 16t11 14t15 10t16 4h96q6 0 13 -3t13 -7t10 -10t4 -14v-456q24 16 55 27t61 11h544q12 0 26 -6t25 -17t18 -23t7 -26v-830q0 -16 -8 -33t-21 -30t-29 -21t-32 -8h-724q-18 0 -36 7t-33 18t-25 27t-10 32zM390 206q0 -18 12 -30t28 -12h342q18 0 30 12 t12 30v582q0 16 -12 28t-30 12h-342q-16 0 -28 -12t-12 -28v-582z" />
<glyph unicode="c" horiz-adv-x="1070" d="M86 114v782q0 16 6 33t17 31t25 24t30 10h750q12 0 26 -6t26 -15t19 -21t7 -24v-174q0 -10 -5 -18t-12 -15t-16 -12t-19 -5h-216q-8 0 -17 3t-17 7t-14 10t-6 14v68q0 6 -2 10t-6 8t-9 7t-11 3h-334q-6 0 -11 -3t-10 -7t-7 -9t-2 -11v-606q0 -6 3 -11t8 -10t11 -8t12 -3 h480q6 0 12 8t6 14v88q0 4 2 10t6 10t9 7t11 3h114q8 0 15 -3t12 -8t9 -12t4 -13v-200q0 -12 -5 -24t-14 -22t-19 -17t-22 -7h-758q-18 0 -34 11t-28 28t-19 37t-7 38z" />
<glyph unicode="d" horiz-adv-x="1096" d="M86 92v830q0 14 7 26t19 23t25 17t27 6h542q30 0 61 -11t55 -27v456q0 8 4 14t10 10t13 7t15 3h94q8 0 16 -4t15 -10t11 -14t4 -16v-1318q0 -16 -10 -32t-25 -27t-33 -18t-34 -7h-726q-16 0 -32 8t-29 21t-21 30t-8 33zM390 206q0 -18 12 -30t28 -12h342q18 0 30 12 t12 30v582q0 16 -12 28t-30 12h-342q-16 0 -28 -12t-12 -28v-582z" />
<glyph unicode="e" horiz-adv-x="1080" d="M86 68v864q0 12 7 24t19 21t25 14t27 5h766q12 0 26 -6t25 -15t19 -22t8 -27v-390q0 -10 -6 -19t-15 -17t-19 -13t-20 -5h-550q-10 0 -18 -8t-8 -18v-274q0 -6 5 -13t13 -7h414q6 0 13 7t7 13v100q0 8 8 16t16 8h130q6 0 11 -2t9 -6t7 -9t3 -11v-220q0 -10 -6 -20 t-14 -19t-18 -14t-20 -5h-786q-14 0 -28 6t-25 15t-18 22t-7 25zM372 656q0 -8 5 -13t13 -5h412q6 0 12 5t6 13v166q0 6 -6 12t-12 6h-412q-8 0 -13 -6t-5 -12v-166z" />
<glyph unicode="f" horiz-adv-x="670" d="M2 864v104q0 6 3 11t8 9t11 6t10 2h126v394q0 12 8 22t20 17t26 11t26 4h622q10 0 19 -4t17 -11t13 -15t5 -16v-190q0 -4 -2 -9t-7 -9t-10 -7t-11 -3h-124q-4 0 -10 3t-10 7t-7 9t-3 9v76h-286v-288h152q6 0 14 -2t14 -7t10 -11t4 -12v-94q0 -6 -4 -13t-9 -13t-12 -9 t-15 -3h-154v-30q0 -16 -4 -32t-12 -31t-17 -30t-19 -30l-20 -30t-17 -30t-12 -31t-5 -34v-514q0 -6 -2 -13t-7 -14t-11 -10t-12 -3h-100q-8 0 -16 3t-15 8t-12 12t-5 15v794h-122q-6 0 -13 3t-12 7t-8 10t-3 12z" />
<glyph unicode="g" horiz-adv-x="1080" d="M84 68q0 12 7 22t17 18t23 13t25 5h82v158h-90q-10 0 -21 3t-21 10t-16 15t-6 18v600q0 12 7 24t18 21t25 14t26 5h852q6 0 12 -3t10 -9t6 -12t2 -12v-88q0 -6 -2 -12t-5 -11t-8 -8t-9 -3h-120v-506q0 -8 -3 -16t-10 -15t-14 -11t-15 -4h-448v-158h476q10 0 21 -5t19 -14 t13 -20t5 -21v-448q0 -10 -4 -22t-12 -21t-19 -15t-21 -6h-736q-10 0 -22 4t-22 12t-16 18t-6 20v460zM272 472q0 -10 7 -18t19 -8h396q10 0 17 8t7 18v336q0 10 -7 18t-17 8h-396q-12 0 -19 -8t-7 -18v-336zM376 -36v-242q0 -8 7 -13t15 -5h344q10 0 17 5t7 13v242 q0 8 -7 13t-17 5h-344q-8 0 -15 -5t-7 -13z" />
<glyph unicode="h" horiz-adv-x="1080" d="M84 46v1356q0 8 3 16t8 14t12 10t15 4h98q8 0 14 -4t11 -11t8 -14t3 -15v-372q0 -6 3 -13t9 -12t13 -8t13 -3h598q16 0 32 -8t29 -21t21 -29t8 -32v-864q0 -8 -4 -15t-11 -13t-15 -9t-14 -3h-98q-8 0 -16 3t-15 9t-11 13t-4 15v758q0 6 -3 11t-8 9t-10 6t-11 2h-354 q-6 0 -13 -3t-12 -8t-8 -12t-3 -13v-744q0 -8 -4 -17t-11 -15t-15 -10t-16 -4h-196q-8 0 -16 4t-15 10t-11 15t-4 17z" />
<glyph unicode="i" horiz-adv-x="450" d="M64 1236q0 22 9 42t23 34t34 23t42 9q20 0 40 -9t34 -23t23 -34t9 -42q0 -20 -9 -40t-23 -34t-34 -23t-40 -9q-22 0 -42 9t-34 23t-23 34t-9 40zM84 46v912q0 6 2 12t7 12t10 9t11 3h118q6 0 12 -3t10 -8t7 -11t3 -12v-282q0 -10 5 -25t13 -32t18 -36t21 -37l22 -36 t19 -34t13 -29t5 -21v-382q0 -8 -4 -16t-10 -15t-13 -11t-15 -4h-196q-8 0 -19 3t-19 10t-14 15t-6 18z" />
<glyph unicode="j" horiz-adv-x="450" d="M-390 -212q0 4 3 10t7 10t10 7t10 3h124q6 0 11 -4t9 -8t6 -10t2 -12v-70h274v714q0 8 5 21t13 29t18 34t21 36t21 37t18 36t13 32t5 25v282q0 6 3 12t8 11t10 8t11 3h118q6 0 11 -3t10 -9t7 -12t2 -12v-1360q0 -10 -5 -18t-14 -15t-19 -10t-20 -3h-646q-8 0 -16 6 t-15 16t-11 20t-4 16v178zM168 1236q0 22 8 42t22 34t34 23t42 9t41 -9t33 -23t23 -34t9 -42q0 -20 -9 -40t-23 -34t-33 -23t-41 -9t-42 9t-34 23t-22 34t-8 40z" />
<glyph unicode="k" horiz-adv-x="1090" d="M84 44v1362q0 6 2 12t7 12t10 10t11 4h116q6 0 13 -4t12 -10t8 -13t3 -15v-382q0 -18 5 -34t13 -32t18 -31l20 -30l20 -30t18 -31t12 -32t4 -34v-74q0 -8 8 -14t16 -6h340q10 0 21 3t21 10t16 16t6 19v246q0 6 3 12t8 11t12 8t13 3h116q6 0 13 -3t12 -8t9 -11t4 -12v-298 q0 -12 -6 -24t-17 -22t-27 -15t-32 -5q18 0 33 -6t26 -16t17 -23t6 -25v-492q0 -6 -3 -14t-8 -14t-12 -9t-13 -3h-118q-6 0 -12 3t-11 8t-8 12t-3 13v416q0 10 -7 21t-17 18t-22 12t-24 5h-330q-6 0 -11 -2t-10 -6t-8 -8t-3 -10v-432q0 -8 -4 -17t-10 -17t-14 -12t-16 -4 h-202q-8 0 -16 3t-14 10t-10 15t-4 16z" />
<glyph unicode="l" horiz-adv-x="450" d="M84 46v1362q0 6 2 12t7 11t10 9t11 4h118q6 0 12 -3t10 -8t7 -11t3 -12v-732q0 -10 5 -25t13 -32t18 -36t21 -37l22 -36t19 -34t13 -29t5 -21v-382q0 -8 -4 -16t-10 -15t-13 -11t-15 -4h-196q-8 0 -19 3t-19 10t-14 15t-6 18z" />
<glyph unicode="m" horiz-adv-x="1410" d="M84 28v904q0 12 6 23t17 20t24 15t25 6h480q14 0 29 -3t27 -10t21 -20t11 -31q2 18 11 30t21 19t26 11t26 4h436q12 0 24 -6t22 -15t17 -21t7 -24v-898q0 -4 -3 -10t-7 -11t-10 -8t-12 -3h-126q-6 0 -10 3t-7 7t-6 9t-3 11v780q0 4 -2 9t-6 9t-8 7t-10 3h-270 q-6 0 -11 -4t-8 -9t-5 -11t-2 -12v-768q0 -4 -1 -10t-3 -12t-5 -9t-7 -3h-128q-6 0 -11 2t-10 7t-8 10t-3 11v772q0 6 -2 12t-5 11t-8 8t-11 3h-308q-4 0 -9 -2t-9 -7t-7 -10t-3 -9v-222q0 -12 4 -25t12 -25t17 -23t19 -22t19 -22t16 -23t12 -24t5 -26v-366q0 -6 -3 -11 t-8 -10t-10 -7t-11 -2h-232q-4 0 -9 2t-9 6t-6 9t-2 11z" />
<glyph unicode="n" horiz-adv-x="1096" d="M84 28v904q0 34 15 49t57 15h756q22 0 38 -3t27 -10t16 -20t7 -31l2 -898q0 -12 -3 -19t-5 -10t-5 -4t-5 -1h-128q-4 0 -10 2t-11 7t-8 10t-3 11v772q0 12 -1 19t-4 10t-8 4t-13 1h-500q-12 0 -17 -1t-8 -4t-3 -9v-14v-222q0 -12 4 -25t12 -25t17 -23t19 -22t19 -22 t16 -23t12 -24t5 -26v-366q0 -6 -3 -11t-8 -10t-10 -7t-11 -2h-232q-4 0 -9 2t-9 6t-6 9t-2 11z" />
<glyph unicode="o" horiz-adv-x="1070" d="M86 54v888q0 12 4 21t11 17t17 12t20 4h786q12 0 21 -4t17 -12t12 -17t4 -21v-888q0 -12 -4 -21t-12 -16t-17 -12t-21 -5h-786q-10 0 -20 5t-17 12t-11 16t-4 21zM258 184q0 -8 6 -14t16 -6h386q8 0 15 6t7 14l-2 216q0 24 5 47t13 44t19 42t22 39t22 34t19 30t13 26 t5 22v130q0 8 -6 14t-14 6h-504q-10 0 -16 -6t-6 -14v-630z" />
<glyph unicode="p" horiz-adv-x="1050" d="M82 -404v1316q0 18 10 33t25 27t33 19t34 7h686q16 0 32 -9t29 -22t21 -30t8 -31v-830q0 -14 -7 -27t-18 -23t-25 -17t-26 -7h-466q-10 0 -20 -1t-19 -7t-15 -13t-6 -17v-378q0 -6 -4 -12t-11 -11t-14 -8t-13 -3h-188q-8 0 -16 4t-15 10t-11 14t-4 16zM260 206 q0 -18 12 -30t28 -12h444q18 0 30 12t12 30v586q0 16 -12 28t-30 12h-444q-16 0 -28 -12t-12 -28v-586z" />
<glyph unicode="q" horiz-adv-x="1050" d="M82 76v830q0 14 8 31t21 30t29 22t32 9h686q16 0 35 -7t34 -19t24 -27t9 -33v-1316q0 -8 -4 -16t-10 -14t-15 -10t-17 -4h-188q-6 0 -13 3t-13 8t-10 11t-4 12v378q0 10 -6 17t-15 13t-20 7t-19 1h-468q-12 0 -26 7t-25 17t-18 23t-7 27zM256 206q0 -18 12 -30t30 -12 h444q16 0 29 12t13 30v586q0 16 -13 28t-29 12h-444q-18 0 -30 -12t-12 -28v-586z" />
<glyph unicode="r" horiz-adv-x="860" d="M88 58v860q0 14 7 27t19 24t26 18t28 7h598q12 0 24 -6t23 -15t17 -21t6 -24v-190q0 -8 -2 -16t-6 -15t-10 -11t-14 -4h-118q-6 0 -13 3t-13 7t-9 10t-3 12v94q0 8 -9 15t-19 7h-324q-6 0 -10 -3t-7 -7t-5 -10t-2 -10v-138q0 -18 4 -35t12 -34t18 -34l20 -34t20 -33 t17 -33t12 -35t5 -36v-348q0 -8 -5 -17t-12 -16t-16 -12t-19 -5h-190q-10 0 -19 6t-16 14t-11 18t-4 20z" />
<glyph unicode="s" horiz-adv-x="1070" d="M86 56v214q0 6 2 12t7 11t10 8t11 3h132q6 0 9 -3t6 -8t5 -11t2 -10v-80q0 -6 2 -11t6 -9t8 -7t10 -3h366q6 0 10 2t8 6t7 9t3 9v216q0 8 -9 14t-17 6h-516q-10 0 -21 4t-20 12t-15 18t-6 22v448q0 14 7 26t19 21t26 15t26 6h764q10 0 19 -5t17 -12t13 -15t5 -18v-202 q0 -6 -2 -14t-6 -15t-10 -12t-12 -5h-128q-6 0 -13 2t-13 6t-10 9t-4 11v90q0 6 -3 9t-8 6t-11 5t-10 2h-452q-6 0 -11 -3t-9 -8t-6 -10t-2 -11v-190q0 -4 2 -8t7 -8t10 -5t11 -1h622q10 0 20 -6t18 -14t13 -18t5 -20v-474q0 -10 -4 -21t-10 -20t-14 -15t-18 -6h-778 q-12 0 -24 5t-22 12t-17 18t-7 21z" />
<glyph unicode="t" horiz-adv-x="690" d="M56 860v106q0 4 2 9t5 9t8 7t9 3h90v256q0 16 12 28t28 12h100q18 0 30 -12t12 -28v-256h218q8 0 16 -5t14 -12t10 -15t4 -16v-210q0 -6 -3 -13t-8 -12t-11 -9t-12 -4h-228v-510q0 -4 2 -10t7 -11t10 -8t11 -3h108q6 0 12 -3t11 -8t8 -12t3 -13v-78q0 -18 -10 -30 t-26 -12h-278q-16 0 -28 12t-12 28v790h-82q-6 0 -11 2t-10 7t-8 10t-3 11z" />
<glyph unicode="u" horiz-adv-x="1096" d="M88 42v920q0 4 1 10t5 11t8 8t8 3h148q8 0 16 -9t8 -17v-346q0 -12 4 -24t12 -25t17 -26t19 -28t20 -32t17 -37t12 -43t5 -51v-182q0 -6 7 -12t13 -6h396q8 0 16 8t8 16v784q0 4 2 10t7 11t10 8t11 3h124q4 0 8 -3t8 -7t6 -9t2 -9v-928q0 -8 -5 -15t-12 -13t-16 -9 t-17 -3h-810q-10 0 -20 3t-19 9t-14 13t-5 17z" />
<glyph unicode="v" horiz-adv-x="1010" d="M16 960q0 4 1 10t5 11t9 9t9 4h116q12 0 24 -10t16 -22l310 -760l306 762q4 12 14 22t20 10h116q6 0 11 -4t9 -9t6 -11t0 -12l-370 -904q-4 -8 -8 -18t-10 -18t-13 -14t-17 -6h-136q-10 0 -20 8t-16 18z" />
<glyph unicode="w" horiz-adv-x="1380" d="M92 72v888q0 6 3 12t8 11t12 9t13 4h108q6 0 12 -3t11 -7t9 -10t4 -12v-330q0 -6 5 -17t13 -26t18 -33t21 -38t21 -39t19 -37t14 -33t5 -27v-186q0 -10 8 -18t18 -8h160q8 0 17 4t9 12v780q0 4 1 8t4 9t7 7t8 2h134q2 0 5 -3t5 -7t4 -9t2 -7v-770q0 -6 2 -10t6 -8t9 -6 t11 -2h296q6 0 11 5t5 11v782q0 4 3 9t8 9t10 7t11 3h110q8 0 17 -7t9 -15v-904q0 -12 -5 -24t-12 -23t-17 -18t-22 -7h-430q-12 0 -26 3t-26 8t-21 15t-11 26q-10 -28 -30 -40t-42 -12h-466q-12 0 -26 7t-26 17t-19 22t-7 26z" />
<glyph unicode="x" horiz-adv-x="1010" d="M52 838v132q0 6 3 11t9 8l12 6t12 3h112q4 0 9 -3l10 -6t7 -8t2 -9v-82q0 -10 5 -19t11 -15l254 -238l168 162q6 6 9 16t3 18v158q0 8 9 15t17 7h214q4 0 10 -1t11 -3t9 -5t4 -9v-124q0 -12 -3 -24t-11 -20l-310 -310l308 -298q8 -8 13 -19t5 -21v-126q0 -6 -2 -12 t-6 -11t-9 -8t-11 -3h-116q-6 0 -12 3t-10 9t-7 13t-3 13v62q0 14 -7 26t-17 22l-248 232l-148 -144q-6 -6 -11 -15t-5 -19v-172q0 -6 -2 -11t-7 -10t-10 -7t-9 -2h-216q-8 0 -16 3t-14 9t-10 13t-4 13v112q0 12 4 22t11 20t15 19t16 17l276 274l-290 282l-12 12t-11 13 t-8 14t-3 15z" />
<glyph unicode="y" horiz-adv-x="1080" d="M86 78v880q0 6 2 11t6 10t8 9t10 4h116q6 0 11 -4t9 -8t7 -10t3 -12v-758q0 -6 4 -13t11 -12t15 -8t16 -3h474q4 0 11 3t12 7t9 9t4 11v764q0 6 3 13t8 12t12 8t13 3h104q8 0 14 -3t11 -8t9 -12t4 -13v-1356q0 -8 -4 -16t-10 -15t-14 -12t-16 -5h-188q-8 0 -16 4t-16 10 t-12 14t-4 16v364q0 8 -4 15t-11 12t-14 8t-15 3h-480q-16 0 -34 6t-33 17t-25 25t-10 30z" />
<glyph unicode="z" horiz-adv-x="1010" d="M46 726v216q0 8 4 18t11 19t16 14t19 5h816q8 0 18 -4t17 -11t12 -15t5 -16v-112q0 -14 -7 -25t-15 -19l-606 -628h418q6 0 13 1t13 3t10 6t4 10v66q0 6 2 13t6 13t10 10t12 4h104q6 0 13 -4t12 -9t8 -11t3 -12v-236q0 -6 -5 -11t-13 -7t-17 -3t-17 -1h-812q-10 0 -18 4 t-16 10t-12 15t-4 17v168q0 24 10 47t26 39l226 224q22 22 51 32t59 18t59 18t49 32l214 224h-524v-122q0 -6 -2 -12t-7 -12t-11 -9t-12 -3h-98q-8 0 -15 3t-14 8t-11 12t-4 13z" />
<glyph unicode="{" horiz-adv-x="1024" d="M166 456v144q84 -2 138 17t86 50t44 72t12 87v354q0 32 2 62t8 57t18 52t32 45t50 36t72 27t98 16t128 3v-148q-72 4 -119 -9t-73 -38t-36 -58t-10 -69v-356q0 -42 -9 -85t-32 -81t-61 -66t-92 -36q54 -14 91 -42t59 -64t31 -77t9 -83v-356q0 -38 10 -71t37 -57t75 -36 t124 -8v-144q-64 -6 -117 -4t-94 11t-72 24t-54 35t-38 44t-24 51t-12 57t-3 60v358q0 22 -3 44t-8 44t-15 41t-25 35t-35 29t-48 21t-64 11t-80 1z" />
<glyph unicode="|" horiz-adv-x="1024" d="M434 -480v2046h150v-2046h-150z" />
<glyph unicode="}" horiz-adv-x="1024" d="M154 -262q76 -4 124 8t75 36t37 57t10 71v356q0 42 9 83t31 77t59 64t93 42q-56 8 -93 36t-60 66t-33 81t-10 85v356q0 36 -9 69t-36 58t-73 38t-120 9v148q74 2 130 -3t98 -16t72 -27t50 -36t31 -45t18 -52t8 -57t1 -62v-354q0 -46 13 -87t45 -72t86 -50t138 -17v-144 q-44 2 -80 -1t-64 -11t-49 -21t-36 -29t-24 -35t-15 -41t-8 -44t-2 -44v-358q0 -30 -4 -60t-12 -57t-23 -51t-38 -44t-54 -35t-73 -24t-94 -11t-118 4v144z" />
<glyph unicode="~" horiz-adv-x="1706" d="M178 460v152q42 26 88 52t95 47t101 34t104 13q36 0 75 -6t77 -17t77 -24t77 -27t74 -27t70 -23t66 -16t60 -6q52 0 102 16t97 40t93 53t90 57v-162q-44 -24 -90 -50t-94 -46t-98 -33t-100 -13q-38 0 -75 6t-73 16t-72 23t-72 27t-73 26t-73 22t-73 16t-75 6 q-50 0 -98 -14t-95 -36t-93 -50z" />
<glyph unicode="&#xa2;" d="M242 114v782q0 16 6 33t17 31t25 24t30 10h278v124q0 8 8 14t16 6h48q6 0 11 -6t5 -14v-124h384q12 0 26 -6t26 -15t19 -21t7 -24v-174q0 -10 -5 -18t-12 -15t-16 -12t-19 -5h-216q-8 0 -17 3t-17 7t-13 10t-5 14v68q0 6 -3 10t-7 8t-9 7t-11 3h-334q-6 0 -11 -3t-9 -7 t-7 -9t-3 -11v-606q0 -6 3 -11t8 -10t12 -8t11 -3h480q6 0 12 8t6 14v88q0 4 2 10t6 10t9 7t11 3h116q6 0 13 -3t12 -8t9 -12t4 -13v-200q0 -12 -5 -24t-13 -22t-19 -17t-23 -7h-400v-136q0 -8 -6 -14t-14 -6h-46q-8 0 -16 6t-8 14v136h-268q-18 0 -34 11t-28 28t-19 37 t-7 38z" />
<glyph unicode="&#xa3;" d="M22 880v56q0 4 3 6t7 3l8 2t8 1h142v458q0 6 4 13t9 13t11 10t14 4h570q6 0 12 -3t12 -8t9 -11t3 -12v-190q0 -4 -1 -10t-3 -12t-5 -10t-9 -4h-114q-6 0 -13 4t-12 10t-8 13t-3 13v68h-296v-348h170q6 0 13 -4t7 -12v-44q0 -6 -6 -11t-14 -5h-170v-674q0 -6 3 -11t7 -10 t10 -7t10 -2h574q6 0 15 -4t15 -10t10 -14t4 -16v-88q0 -6 -3 -12t-7 -11t-10 -8t-12 -3h-856q-10 0 -20 3t-18 9t-14 14t-6 18v558q0 18 5 37t13 38t19 37l22 36t22 34t19 31t13 29t5 24h-142h-8t-8 2t-7 4t-3 6z" />
<glyph unicode="&#xa9;" horiz-adv-x="1706" d="M102 730q0 76 15 149t43 139t68 126t91 110t110 91t126 69t139 43t148 15q78 0 150 -15t139 -43t126 -69t110 -91t91 -110t68 -126t43 -139t15 -149t-15 -149t-43 -139t-68 -126t-91 -110t-110 -90t-126 -69t-139 -43t-150 -14q-76 0 -148 14t-139 43t-126 69t-110 90 t-91 110t-68 126t-43 139t-15 149zM202 730q0 -66 13 -129t37 -120t59 -109t79 -95t95 -78t109 -59t120 -38t128 -14q68 0 130 14t120 38t109 59t95 78t79 95t59 109t37 120t13 129t-13 129t-37 120t-59 109t-79 95t-95 78t-109 60t-120 38t-130 13q-66 0 -128 -13t-120 -38 t-109 -60t-95 -78t-79 -95t-59 -109t-37 -120t-13 -129zM456 730q0 60 8 111t25 94t39 78t50 62t60 47t67 34t72 20t73 6q64 0 123 -19t106 -55t77 -87t36 -113h-154q-2 40 -20 71t-45 51t-59 30t-64 10q-36 0 -65 -9t-52 -25t-41 -38t-31 -48t-21 -54t-14 -57t-8 -58 t-2 -55q0 -80 18 -142t49 -104t74 -64t93 -22q88 0 141 45t67 133h142q-12 -82 -46 -138t-83 -90t-106 -48t-115 -14t-106 11t-86 31t-69 47t-53 60t-38 70t-25 75t-13 77t-4 77z" />
<glyph unicode="&#xad;" horiz-adv-x="920" d="M94 442v112q0 10 8 18t18 8h664q12 0 19 -8t7 -18v-112q0 -10 -7 -18t-19 -8h-664q-10 0 -18 8t-8 18z" />
<glyph unicode="&#xae;" horiz-adv-x="1706" d="M102 730q0 76 15 149t43 139t68 126t91 110t110 91t126 69t139 43t148 15q78 0 150 -15t139 -43t126 -69t110 -91t91 -110t68 -126t43 -139t15 -149t-15 -149t-43 -139t-68 -126t-91 -110t-110 -90t-126 -69t-139 -43t-150 -14q-76 0 -148 14t-139 43t-126 69t-110 90 t-91 110t-68 126t-43 139t-15 149zM202 730q0 -66 13 -129t37 -120t59 -109t79 -95t95 -78t109 -59t120 -38t128 -14q68 0 130 14t120 38t109 59t95 78t79 95t59 109t37 120t13 129t-13 129t-37 120t-59 109t-79 95t-95 78t-109 60t-120 38t-130 13q-66 0 -128 -13t-120 -38 t-109 -60t-95 -78t-79 -95t-59 -109t-37 -120t-13 -129zM556 324v830h372q70 0 124 -17t92 -47t56 -71t16 -87q-4 -52 -19 -92t-40 -68t-59 -45t-76 -23l190 -388h-182l-168 364h-152v-356h-154zM710 778h174q44 0 75 12t52 31t31 44t10 53t-12 54t-33 46t-52 33t-71 13 h-174v-286z" />
<glyph unicode="&#xe0;" horiz-adv-x="1270" d="M16 10v454h202q26 0 48 -8t40 -21t33 -32t25 -41q16 -34 22 -63t5 -58t-8 -57t-19 -60q-16 -52 -55 -82t-93 -32h-50h-50h-49h-51zM78 62q32 0 63 -4t58 -2t50 13t41 41q20 30 32 68t11 77t-16 75t-45 58q-22 16 -45 21t-47 6t-49 -1t-53 -2v-350zM438 232q0 48 13 89 t43 79q20 24 38 38t39 22t44 11t53 3q26 -2 50 -7t44 -16t37 -29t29 -42q6 -12 11 -27t5 -27h-28h-28q-6 18 -10 31t-11 23t-19 16t-36 14q-18 6 -36 10t-37 2t-36 -9t-35 -21q-16 -10 -28 -26t-21 -36t-15 -41t-8 -44t0 -45t8 -43t17 -39t27 -30q22 -22 49 -33t56 -10 t56 12t49 33q12 12 19 24t12 24t6 27t1 33h-140v52h196v-240h-38l-16 58q-8 -10 -18 -20t-20 -18t-21 -14t-27 -8q-16 -4 -30 -6t-28 -2t-29 1t-31 3q-38 6 -66 23t-50 49q-20 36 -30 75t-10 81zM922 10v454h60v-400h232v-54h-292z" />
<glyph unicode="&#x2000;" horiz-adv-x="784" />
<glyph unicode="&#x2001;" horiz-adv-x="1568" />
<glyph unicode="&#x2002;" horiz-adv-x="784" />
<glyph unicode="&#x2003;" horiz-adv-x="1568" />
<glyph unicode="&#x2004;" horiz-adv-x="522" />
<glyph unicode="&#x2005;" horiz-adv-x="392" />
<glyph unicode="&#x2006;" horiz-adv-x="261" />
<glyph unicode="&#x2007;" horiz-adv-x="261" />
<glyph unicode="&#x2008;" horiz-adv-x="196" />
<glyph unicode="&#x2009;" horiz-adv-x="313" />
<glyph unicode="&#x200a;" horiz-adv-x="87" />
<glyph unicode="&#x2010;" horiz-adv-x="920" d="M94 442v112q0 10 8 18t18 8h664q12 0 19 -8t7 -18v-112q0 -10 -7 -18t-19 -8h-664q-10 0 -18 8t-8 18z" />
<glyph unicode="&#x2011;" horiz-adv-x="920" d="M94 442v112q0 10 8 18t18 8h664q12 0 19 -8t7 -18v-112q0 -10 -7 -18t-19 -8h-664q-10 0 -18 8t-8 18z" />
<glyph unicode="&#x2012;" horiz-adv-x="920" d="M94 442v112q0 10 8 18t18 8h664q12 0 19 -8t7 -18v-112q0 -10 -7 -18t-19 -8h-664q-10 0 -18 8t-8 18z" />
<glyph unicode="&#x2013;" horiz-adv-x="1024" d="M0 474v46q0 6 4 13t10 12t13 8t13 3h942q6 0 13 -3t13 -8t9 -11t3 -12v-52q0 -6 -3 -12t-9 -11t-13 -8t-13 -3h-952q-6 0 -11 4t-10 9t-7 12t-2 13z" />
<glyph unicode="&#x2014;" horiz-adv-x="2048" d="M0 474v46q0 6 4 13t10 12t13 8t13 3h1956q6 0 13 -3t13 -8t9 -11t3 -12v-52q0 -6 -3 -12t-9 -11t-13 -8t-13 -3h-1966q-6 0 -11 4t-9 9t-7 12t-3 13z" />
<glyph unicode="&#x2018;" horiz-adv-x="410" d="M94 1224v224h134l-88 -132l33 11t31 5q26 0 45 -10t33 -25t22 -34t8 -37q0 -28 -10 -48t-25 -34t-35 -22t-38 -8q-20 0 -39 5t-35 17t-26 33t-10 55z" />
<glyph unicode="&#x2019;" horiz-adv-x="410" d="M94 1338q0 26 10 47t26 35t35 21t39 7q18 0 38 -4t35 -17t25 -34t10 -53v-226h-134l88 134q-16 -8 -32 -13t-32 -5q-24 0 -44 10t-34 25t-22 34t-8 39z" />
<glyph unicode="&#x201c;" horiz-adv-x="690" d="M94 1224v224h134l-88 -132l33 11t31 5q26 0 45 -10t33 -25t22 -34t8 -37q0 -28 -10 -48t-25 -34t-35 -22t-38 -8q-20 0 -39 5t-35 17t-26 33t-10 55zM374 1224v224h134l-88 -132q16 6 31 11t33 5q24 0 44 -10t34 -25t21 -34t7 -37q0 -28 -9 -48t-25 -34t-35 -22t-39 -8 q-18 0 -38 5t-35 17t-25 33t-10 55z" />
<glyph unicode="&#x201d;" horiz-adv-x="690" d="M94 1338q0 26 10 47t26 35t35 21t39 7q18 0 38 -4t35 -17t25 -34t10 -53v-226h-134l88 134q-16 -8 -32 -13t-32 -5q-24 0 -44 10t-34 25t-22 34t-8 39zM374 1338q0 26 10 47t25 35t35 21t38 7q20 0 39 -4t35 -17t25 -34t9 -53v-226h-134l90 134q-18 -8 -33 -13t-31 -5 q-26 0 -46 10t-34 25t-21 34t-7 39z" />
<glyph unicode="&#x2022;" horiz-adv-x="1200" d="M304 760q0 62 23 116t63 94t94 63t116 23t116 -23t94 -63t64 -94t24 -116t-24 -116t-64 -94t-94 -63t-116 -23t-116 23t-94 63t-63 94t-23 116z" />
<glyph unicode="&#x202f;" horiz-adv-x="313" />
<glyph unicode="&#x205f;" horiz-adv-x="392" />
<glyph unicode="&#x2122;" horiz-adv-x="1706" d="M240 1378v78h448v-78h-168v-458h-108v458h-172zM808 918v538h150l152 -382l140 382h148v-536h-96v444l-166 -444h-58l-172 444v-446h-98z" />
<glyph unicode="&#x25fc;" horiz-adv-x="1000" d="M0 0v1000h1000v-1000h-1000z" />
</font>
</defs>
</svg>
